<?xml version="1.0" encoding="UTF-8" standalone="no"?>
<svg
   xmlns:dc="http://purl.org/dc/elements/1.1/"
   xmlns:cc="http://creativecommons.org/ns#"
   xmlns:rdf="http://www.w3.org/1999/02/22-rdf-syntax-ns#"
   xmlns:svg="http://www.w3.org/2000/svg"
   xmlns="http://www.w3.org/2000/svg"
   xmlns:sodipodi="http://sodipodi.sourceforge.net/DTD/sodipodi-0.dtd"
   xmlns:inkscape="http://www.inkscape.org/namespaces/inkscape"
   viewBox="0 0 512 512"
   version="1.1"
   id="svg4"
   sodipodi:docname="image.svg"
   inkscape:version="1.0.1 (0767f8302a, 2020-10-17)">
  <metadata
     id="metadata10">
    <rdf:RDF>
      <cc:Work
         rdf:about="">
        <dc:format>image/svg+xml</dc:format>
        <dc:type
           rdf:resource="http://purl.org/dc/dcmitype/StillImage" />
        <dc:title></dc:title>
      </cc:Work>
    </rdf:RDF>
  </metadata>
  <defs
     id="defs8" />
  <sodipodi:namedview
     pagecolor="#ffffff"
     bordercolor="#666666"
     borderopacity="1"
     objecttolerance="10"
     gridtolerance="10"
     guidetolerance="10"
     inkscape:pageopacity="0"
     inkscape:pageshadow="2"
     inkscape:window-width="1858"
     inkscape:window-height="1016"
     id="namedview6"
     showgrid="false"
     inkscape:zoom="1.6992188"
     inkscape:cx="256"
     inkscape:cy="255.41149"
     inkscape:window-x="62"
     inkscape:window-y="27"
     inkscape:window-maximized="1"
     inkscape:current-layer="svg4"
     inkscape:document-rotation="0" />
  <!-- Font Awesome Free 5.15.1 by @fontawesome - https://fontawesome.com License - https://fontawesome.com/license/free (Icons: CC BY 4.0, Fonts: SIL OFL 1.1, Code: MIT License) -->
  <path
     style="fill:#000000;stroke-width:0.588506"
     d="m 49.977719,397.87515 -1.720248,-1.72024 V 256 115.84509 l 1.720248,-1.72024 1.720247,-1.72025 H 256 460.30204 l 1.72024,1.72025 1.72025,1.72024 V 256 396.15491 l -1.72025,1.72024 -1.72024,1.72025 H 256 51.697966 Z m 365.952731,-85.96839 0.15113,-40.31394 -44.28906,-44.25715 c -45.83107,-45.79805 -46.7392,-46.62301 -51.35114,-46.6482 -5.40976,-0.0295 -2.55501,-2.66105 -67.38745,62.11758 l -60.91388,60.86333 -20.00566,-20.02288 c -20.57816,-20.59588 -23.40396,-22.94188 -27.62465,-22.93417 -5.19983,0.009 -5.38603,0.15992 -27.54422,22.25283 l -21.039083,20.9771 v 23.89451 c 0,13.14197 0.177032,24.07153 0.393405,24.2879 0.216373,0.21637 72.183268,0.32672 159.926438,0.24521 l 159.53303,-0.14819 z M 138.0046,230.89668 c 8.42762,-2.09227 17.33944,-8.11611 22.2417,-15.03404 3.32306,-4.6894 4.67584,-7.39105 6.2363,-12.45451 4.41343,-14.32099 0.13052,-29.99418 -11.08833,-40.57747 -4.74044,-4.47189 -9.76518,-7.4169 -15.91841,-9.32978 -6.30338,-1.95957 -16.64834,-1.95957 -22.95172,0 -6.15323,1.91288 -11.17798,4.85789 -15.91841,9.32978 -16.584311,15.6448 -17.093306,41.04316 -1.148259,57.29683 10.052759,10.24733 24.448849,14.26927 38.547129,10.76919 z"
     id="path12" />
  <path
     style="fill:#ffffff;stroke-width:0.588506"
     d="m 96.316347,336.47816 c -0.213123,-8.49655 -0.388038,-19.17092 -0.388701,-23.72083 l -0.0012,-8.27254 20.450584,-20.30795 c 11.24781,-11.16937 21.45816,-20.91727 22.68968,-21.66202 3.40936,-2.06179 7.19748,-1.85957 10.79753,0.57641 1.56916,1.06177 11.60448,10.62612 22.30074,21.25411 10.69625,10.62799 19.68783,19.32362 19.9813,19.32362 0.29347,0 27.02889,-26.42504 59.41205,-58.72232 32.38315,-32.29728 60.4454,-59.90555 62.36055,-61.35172 2.86664,-2.16466 3.90681,-2.61981 5.88506,-2.57513 1.32163,0.0298 3.26155,0.499 4.31092,1.04257 3.19903,1.65707 15.86775,13.9172 54.60712,52.84588 l 37.09439,37.27567 -0.21236,39.87126 -0.21235,39.87126 H 256.04775 96.703843 Z"
     id="path34" />
  <path
     style="fill:#ffffff;stroke-width:0.588506"
     d="m 120.71946,231.20853 c -7.04038,-1.16961 -14.88335,-5.38969 -20.69868,-11.13737 -4.368536,-4.31772 -7.339459,-8.99428 -9.769799,-15.37875 -1.506383,-3.95725 -1.640377,-4.97385 -1.653545,-12.54528 -0.013,-7.47636 0.131034,-8.63867 1.55591,-12.55554 2.339729,-6.43172 4.953907,-10.45947 10.186884,-15.69528 7.49205,-7.49611 14.75333,-10.77314 25.05513,-11.30744 8.39047,-0.43517 13.08796,0.44766 19.89448,3.7389 4.56389,2.20683 6.3473,3.50108 10.29885,7.47407 5.30737,5.33616 7.91573,9.35113 10.25797,15.78975 1.42395,3.91432 1.56923,5.08404 1.55935,12.55554 -0.0103,7.78048 -0.1124,8.50466 -1.83446,13.01044 -3.15816,8.26335 -7.59371,14.19701 -14.06401,18.81412 -9.37262,6.68816 -19.6084,9.09412 -30.78808,7.23684 z"
     id="path36" />
</svg>
