<?xml version="1.0" encoding="utf-8"?>
<!-- Generator: Adobe Illustrator 19.2.1, SVG Export Plug-In . SVG Version: 6.00 Build 0)  -->
<svg version="1.1" xmlns="http://www.w3.org/2000/svg" xmlns:xlink="http://www.w3.org/1999/xlink" x="0px" y="0px"
	 viewBox="0 0 200 222.5" enable-background="new 0 0 200 222.5" xml:space="preserve">
<g id="Calque_1">
</g>
<g id="Calque_6">
	<g>
		<path d="M32,49.7c-0.8-1.5-2.4-3.3-4.3-4.6c-0.9-0.6-2.2-1.4-2.6-2.8c-0.2-0.6-0.1-1-0.1-1.4c-0.1-1.6,0.4-3.4,1.9-4.1
			c1.9-0.8,3.9,0.6,5.3,2c2.8,2.6,5.4,5.4,7.9,8.4c1.5,1.8,3,3.8,3.9,6s1,4.9-0.2,7c-0.6,1.1-1.6,2.2-1.2,3.3
			c0.1,0.5,0.5,0.9,0.9,1.3c4,4.4,8,8.8,12.8,12.3c4.8,3.5,10.4,6,16.4,6.3c1.4,0.1,3.3,0.6,3.1,1.9c-0.1,1-1.3,1.3-2.3,1.4
			c-6.6,0.6-13.1-2.1-18.4-6c-5.3-3.9-9.7-8.9-14.4-13.5c-0.2-0.2-1-0.5-1.9-1.1c-1-0.7-3.2-2.5-4.3-5.4c-0.5-1.3-0.2-1.2-0.8-4.8
			C32.9,52.6,32.7,51,32,49.7z"/>
		<path fill="#FFFFFF" d="M76.9,87c-0.3,0.3-0.3,0.6-0.1,0.9c0.1,0,0.2-0.1,0.4-0.1C77.1,87.5,77,87.2,76.9,87z"/>
	</g>
	<g>
		<path d="M194,119.9c-0.8,0.2-1.8-0.1-2.5-0.4c-1.9-1-3.7-2.3-5.5-3.4c-3-1.8-6.6-0.3-9.5-1.9c-1.4-0.8-3.2-2-3.9-3.6
			c-0.2-0.4-0.3-0.8-0.6-1.1c-0.7-0.7-3.2,0.3-4,0.5c-1,0.2-2,0.4-2.9,0.6c-1.4,0.3-2.9,0.6-4.3,0.8c-0.9,0.1-1.8,0.3-2.8,0.4
			c-4.7,0.6-10.7,1-15.2-0.1c-2.3-0.6-4.5-1.4-6.8-2.2c-1.1-0.4-2.2-1-3.2-1.7c-0.7-0.5-1.4-1.1-1.9-1.9c-0.6-0.9-0.1-2,1-2.2
			c0.9-0.1,1.6,0.6,2.4,1c0.6,0.3,1.3,0.6,1.9,0.9c0.9,0.4,1.7,0.7,2.6,1.1c0.4,0.2,0.8,0.4,1.2,0.5c0.5,0.2,1.1,0.3,1.6,0.5
			c0.8,0.2,1.5,0.4,2.3,0.5c0.8,0.1,1.5,0.2,2.3,0.3c0.4,0.1,0.8,0.1,1.1,0.2c1.1,0,2.3,0,3.4,0c1.4,0,2.7,0,4.1-0.2
			c5.3-0.6,10.5-1.9,15.7-3c0.1,0,0.3-0.3,0.3-0.4c0.1-0.7,0-1.5,0.1-2.2c0.2-1.3,0.7-2.5,1.2-3.7c0.3-0.7,0.8-1.4,1-2.1
			c0.2-0.7,0.1-1.4,0-2.1c-0.1-0.9-0.3-1.7-0.4-2.6c-0.1-0.9-0.2-1.7-0.3-2.6c-0.1-1.1-0.2-2.3-0.3-3.4c-0.1-1,0.6-2.1,1.5-2.5
			c1.1-0.6,2.3-0.7,3.6-0.6c1.1,0.1,1.3,0.8,1.6,1.7c0.3,1.1,0.6,2,0.8,3.1c0.3,1.6,0.5,3.3,0.7,4.9c0,0.2,0.1,0.4,0.1,0.4
			c0.6,0.2,1.1,0.4,1.5,0.5c1.4,0.5,2.8,0.5,4.1-0.3c0.5-0.3,1.1-0.5,1.7-0.8c0.5-0.2,0.9-0.4,1.4-0.6c0.6-0.3,1.2-0.5,1.9-0.8
			c1.2-0.5,2.3-1.2,3.6-1.5c2.3-0.5,4.1,1.1,4.5,3c0.1,0.9-0.2,1.7-0.7,2.4c-0.4,0.7-0.8,1.3-1.3,1.9c-0.6,0.6-1.3,0.9-2.1,1.2
			c-0.6,0.3-1.2,0.5-1.7,0.7c-0.8,0.3-4.9,0.4-3.6,2.3c0.1,0.2,0.3,0.3,0.5,0.4c0.5,0.2,1.1,0.2,1.7,0.2c1.1,0,2.2-0.3,3.3-0.2
			c1.4,0.1,2.9,0,3.8,1.2c0.9,1.1,1.4,1.8,1.2,3.1c-0.2,1.3-1.2,3-2.7,3.2c-1.2,0.2-2.6,0.1-3.7-0.2c-0.8-0.2-1.7-0.2-2.5-0.2
			c-0.5,0-1.1-0.1-1.6-0.2c-1.1-0.1-0.8,0.8-0.2,1.3c0.8,0.7,1.8,1,2.7,1.5c1,0.5,1.9,1.1,2.7,1.7c0.4,0.3,0.8,0.7,1,1.1
			C196.4,116.1,195.7,119.4,194,119.9z"/>
		<path fill="#FFFFFF" d="M128.8,105.3c0.1,0.4-0.1,0.6-0.4,0.8c-0.1-0.1-0.2-0.2-0.2-0.3C128.4,105.6,128.6,105.4,128.8,105.3z"/>
	</g>
	<path d="M24.7,57.6"/>
</g>
<g id="Calque_2">
	<g>
		<g>
			<path fill="#B1C948" d="M117.1,92.3c0.1-0.1,0.1-0.1,0.2-0.2C117.2,92.1,117.1,92.2,117.1,92.3C117.1,92.3,117.1,92.3,117.1,92.3
				z"/>
			<path fill="#E9B82F" d="M169.6,43.7c-0.6-3.9-1.6-7.6-3.2-11.1c-1.2-2.6-2.3-5.2-3.8-7.7c-2.7-4.7-6.8-8-10.7-11.7
				c-2.9-2.8-6-4.7-9.5-6.7c-2.6-1.5-5.2-2.6-8-3.6C112-4.9,86.2,3.6,72.8,23.3c-10.3,15-14.3,34.3-8.1,51.7c0.7,2,1.5,4,2.2,6
				c3.6,9.6,5.4,19,2.8,29.1c-0.4,1.8-1.1,3.5-1.6,5.2c-0.9,3-0.8,6.1-0.3,9.2c0.5,3.7,0.3,5.8-0.8,9.4c-1.7,5.5,12.7,6.6,15.9,7.4
				c7.8,1.9,15.7,3.8,23.5,5.7c2.4,0.6,5.2,1.8,7.7,1.7c1.9-0.1,1.8-0.5,2.3-2.4c0.6-2.1,1.5-4.1,3-5.7c2.7-2.9,4.7-6.4,5.8-10.1
				c1.6-5.3,3.5-10.7,6.5-15.4c3.4-5.2,8.3-9,13.1-12.7c1.4-1.1,2.8-2.1,4.2-3.2c0.9-0.7,1.8-1.5,2.7-2.3c0.9-0.8,1.9-1.6,2.7-2.4
				c2-2,3.8-4.2,5.4-6.5c1.9-2.8,3.5-5.7,4.8-8.8c1.1-2.5,1.9-5.2,2.7-7.8c0.9-2.9,1.5-5.9,1.9-8.8c0.5-3.3,0.6-6.6,0.7-9.9
				C170.2,49.5,170.1,46.6,169.6,43.7z M117.1,92.3C117.1,92.3,117.1,92.3,117.1,92.3c0-0.1,0.1-0.1,0.2-0.2
				C117.2,92.1,117.1,92.2,117.1,92.3z"/>
		</g>
	</g>
	<path d="M71.7,92.1"/>
</g>
<g id="Calque_5">
	<g>
		<path d="M26,204.5c-8.8-1.8-16.1-2.9-24.2-5.7c-2-0.7-2.4-2.3-0.9-3.7c3.4-2.9,7.1-5.7,11.1-7.7c3.9-1.9,8.5-2.8,12.7-1.7
			c4.9,1.3,8.8,5,12.1,8.9c-0.3-0.3,5.2-8.1,5.8-9c6.3-9.1,16-15.6,26.4-18.9c0.6,0.4,0.6,1.5,0.1,2c-0.5,0.6-1.3,0.8-2,1.1
			c-9.8,3.2-18.5,9.6-24.4,18.1c-2,2.9-3.7,6.3-3.1,9.7c0.3,2,1.4,4,0.5,5.8c-0.8,1.7-3.1,2.2-5,2.3C32.2,205.9,29,205.1,26,204.5z
			 M38.8,194.8"/>
		<g>
			<path fill="#E4D076" d="M36.9,203.5c0.4,0.2,0.8,0.4,0.7,1.1c-0.6-0.2-1.2-0.5-1.8-0.7c-0.9-0.3-1.8-0.6-2.8-0.8
				c-0.7-0.2-1.5-0.4-2.2-0.6c-0.9-0.2-1.7-0.4-2.6-0.5c-2.1-0.4-4.1-0.8-6.2-1.3c-1.2-0.2-2.3-0.5-3.5-0.7
				c-1.6-0.3-3.2-0.7-4.8-1.1c-1.3-0.3-2.5-0.5-3.8-0.8c-1.7-0.4-3.4-0.8-5-1.1c-1-0.2-2-0.5-2.9-0.7c-0.1,0-0.2-0.2-0.3-0.2
				c0.3-0.1,0.6-0.1,0.9-0.1c1.1,0.2,2.3,0.4,3.4,0.5c2.9,0.5,5.8,0.9,8.7,1.4c1.3,0.2,2.7,0.5,4,0.7c1.2,0.2,2.3,0.4,3.5,0.6
				c1,0.2,2.1,0.4,3.1,0.7c1.5,0.3,3,0.6,4.4,1C32.3,201.6,34.6,202.5,36.9,203.5z"/>
		</g>
	</g>
	<g>
		<path d="M133.8,221.2c-2.7,0.7-5.5,0.7-8.3,0.9c-1.6,0.1-3.1,0.3-4.7,0.3c-2.1,0.1-4.2,0.1-6.2,0c-2.2-0.1-4.5-0.2-6.7-0.4
			c-1.6-0.2-3.2-0.4-4.8-0.8c-1.5-0.3-3-0.7-4.4-1.2c-1-0.4-2-1-3-1.6c-0.5-0.3-0.8-0.9-1.1-1.4c-0.1-0.2-0.1-0.6,0-0.9
			c0.2-0.6,0.7-1,1.1-1.4c1.6-1.8,4-2.9,5.6-4.7c1.7-1.9,2.7-4.2,3.3-6.5c0.7-2.5,0.6-5.1,0.2-7.6c-0.8-4.1-2.1-8.2-4-12
			c-1.5-3.1-3.4-6-5-9c0-0.1-0.1-0.1-0.1-0.2c0-0.1,2.2-0.2,2.5,0.2c0.3,0.4,2.2,3.8,2.4,4.1c2.1,3.5,4.4,7.2,5.7,11.1
			c1.7,5.4,1.8,10.8,0.1,16.3c-0.2,0.5,1.5-0.6,2.5-0.8c1.8-0.3,3.6-0.3,5.3,0.1c1.7,0.4,3.3,0.9,5,1.5c0.9,0.3,1.7,0.7,2.5,1.2
			c1.1,0.6,2.2,1.4,3.3,2.1c2,1.3,3.8,3,5.6,4.6c1.2,1.1,2.2,2.3,3.3,3.5c0.2,0.2,0.4,0.5,0.5,0.8c0.3,0.4,0.3,0.9,0.1,1.3
			C134.3,220.9,134,221,133.8,221.2z M95.3,217.1c0.7,0,1.3-0.1,1.9-0.1c1,0,1.9,0,2.9,0.1c0.8,0,1.5,0.1,2.3,0.1
			c0.9,0.1,1.8,0.2,2.7,0.3c2.1,0.2,4.2,0.5,6.3,0.7c1.2,0.1,2.3,0.3,3.5,0.4c1.6,0.2,3.2,0.3,4.9,0.5c1.3,0.1,2.6,0.3,3.9,0.4
			c1.7,0.2,3.4,0.3,5.1,0.5c1,0.1,2,0.2,3,0.2c0.1,0,0.2-0.1,0.3-0.1c-0.3-0.2-0.6-0.3-0.8-0.3c-1.1-0.2-2.3-0.4-3.4-0.5
			c-2.9-0.4-5.8-0.9-8.8-1.3c-1.4-0.2-2.7-0.4-4.1-0.6c-1.2-0.2-2.3-0.3-3.5-0.5c-1-0.1-2.1-0.2-3.1-0.3c-1.5-0.1-3-0.3-4.5-0.4
			c-2.5-0.2-5-0.1-7.5,0.1C95.9,216.3,95.4,216.4,95.3,217.1z M134.4,220.1c-0.3-0.7-0.9-0.9-1.5-0.5
			C133.3,220,133.8,220.1,134.4,220.1z"/>
		<g>
			<path fill="#E4D076" d="M96.4,216.1c-0.5,0-0.9,0.2-1.1,0.8c0.7,0,1.3-0.1,1.9-0.1c1,0,1.9,0,2.9,0.1c0.8,0,1.5,0.1,2.3,0.1
				c0.9,0.1,1.8,0.2,2.7,0.3c2.1,0.2,4.2,0.5,6.3,0.7c1.2,0.1,2.3,0.3,3.5,0.4c1.6,0.2,3.2,0.3,4.9,0.5c1.3,0.1,2.6,0.3,3.9,0.4
				c1.7,0.2,3.4,0.3,5.1,0.5c1,0.1,2,0.2,3,0.2c0.1,0,0.2-0.1,0.3-0.1c-0.3-0.2-0.6-0.3-0.8-0.3c-1.1-0.2-2.3-0.4-3.4-0.5
				c-2.9-0.4-5.8-0.9-8.8-1.3c-1.4-0.2-2.7-0.4-4.1-0.6c-1.2-0.2-2.3-0.3-3.5-0.5c-1-0.1-2.1-0.2-3.1-0.3c-1.5-0.1-3-0.3-4.5-0.4
				C101.4,215.8,98.9,215.9,96.4,216.1z"/>
		</g>
	</g>
</g>
<g id="Calque_3">
	<path fill="#95999F" d="M68.4,137c-0.9,0-1.6,0.4-2,1.1c-0.5,0.9-0.3,2,0.3,2.6c0.3,0.2,0.6,0.3,0.6,0.5c0,0.2-0.4,0.3-0.9,0.6
		c-0.4,0.2-0.8,0.5-1,0.9c-0.4,0.8,0.2,1.8,0.4,2.5c0.1,0.2,0.1,0.3,0.1,0.5c-0.2,0.5-1,0.2-1.7,0.9c0,0-0.4,0.5-0.4,1
		c0,0.3,0.1,0.4,0.3,1.1c0.3,0.9,0.5,1.4,0.3,1.6c-0.2,0.2-0.4,0-0.9,0.2c-0.6,0.2-0.9,0.7-1.1,1c-0.7,1.1,0.1,3.2,0.8,4.8
		c1,2.5,1.3,2.8,2.1,4.5c1.3,2.8,1.8,5.4,2.2,7.3c0.6,2.9,0.4,3,0.8,3.9c0.4,0.7,1.3,2.3,6.6,4.5c0.7,0.3,4,1.7,8.9,2.9
		c0,0,4.8,1.1,8.7,0.5c0.3,0,0.8-0.1,1.4-0.4c1.3-0.7,1.9-1.9,2.1-2.3c1.8-3.4,7.8-7,10.5-8c0.1,0,1-0.4,1.9-1.2
		c0.8-0.6,1.3-1,1.5-1.8c0.1-0.2,0.5-1.5-0.2-2.4c-0.2-0.3-0.5-0.4-0.7-0.5c0.1-0.2,0.2-0.4,0.2-0.5c0.2-0.3,0.4-0.4,0.8-0.6
		c0.3-0.2,0.3-0.2,0.5-0.3c0.1-0.1,0.3-0.2,0.4-0.4c0.1-0.2,0.2-0.4,0.1-0.9c-0.1-0.9-0.5-1.6-0.8-2c0,0,0.1-0.1,0.2-0.2
		c0.5-0.3,0.8-0.3,1.1-0.4c0.5-0.2,0.8-0.7,0.9-1.1c0.1-0.4-0.1-0.6-0.3-1.6c-0.1-0.5-0.2-0.8-0.2-1.1c0.1-0.1,0.2-0.2,0.3-0.4
		c0.2-0.3,0.2-0.3,0.3-0.4c0.3-0.2,0.5,0,0.8-0.2c0.3-0.2,0.4-0.5,0.4-0.6c0.1-0.4,0-0.7,0-0.8c-0.2-0.5-0.5-0.5-0.7-1
		c0-0.1-0.1-0.2-0.1-0.4c0-0.7,1.3-1.1,1.5-1.2C99.2,145,83.8,141,68.4,137z"/>
</g>
<g id="Calque_4">
	<path fill="none" stroke="#4D4D4D" stroke-width="0.762" stroke-linecap="round" stroke-miterlimit="10" d="M67.5,141.3
		c2.4,1.4,5.5,2.9,9.7,4.6c3.7,1.5,6.4,2.2,11.9,3.8c9.7,2.7,13.9,3.2,14.9,3.3c1.2,0.1,4.4,0.4,6.1,0.4c0.1,0,1.9,0.1,1.9,0.1l0,0"
		/>
	<path fill="none" stroke="#4D4D4D" stroke-width="0.7555" stroke-linecap="round" stroke-miterlimit="10" d="M66.1,145.8
		c2.4,1.4,5.7,3.1,9.8,4.8c3.6,1.5,6.3,2.2,11.7,3.8c9.5,2.7,13.7,3.2,14.7,3.3c1.2,0.1,4.3,0.4,6,0.4c0.1,0,1.9,0.1,1.9,0.1l0,0"/>
	<path fill="none" stroke="#4D4D4D" stroke-width="0.7555" stroke-linecap="round" stroke-miterlimit="10" d="M64.8,150.5
		c2.4,1.4,5.7,3.4,9.8,5.1c3.6,1.5,6.3,2.2,11.7,3.8c9.5,2.7,13.7,3.2,14.7,3.3c1.2,0.1,4.3,0.4,6,0.4c0.1,0,1.9,0.1,1.9,0.1l0,0"/>
	<path fill="#B9B3B4" d="M69.6,159.5c5.6,2.4,10.4,4,14,5.2c4.8,1.5,7.8,2.1,9.8,2.5c2.2,0.4,4,0.6,5.4,0.8
		c-2.4,3.2-4.2,4.8-5.4,5.7c-0.4,0.3-1.3,0.9-2.3,2c-0.2,0.2-1,1.2-1.9,2.6c-0.3,0.6-0.6,1-0.8,1.4c-2.4,0-4.4-0.3-5.8-0.6
		c-2.6-0.6-4.6-1.4-6.2-2.1c-1.5-0.7-2.8-1.3-3.7-1.8c0.1-1.7,0.1-3.1,0-4.1c-0.1-1-0.1-1.6-0.3-2.4c-0.3-1.6-0.9-2.7-1.3-3.4
		C70.5,164,69.9,162.1,69.6,159.5z"/>
</g>
<g id="Calque_7">
	
		<path fill="none" stroke="#8C918D" stroke-width="0.7652" stroke-linecap="round" stroke-linejoin="round" stroke-miterlimit="10" d="
		M91.8,59.9c1.2-0.3,2.6,4.4,9.2,9.3c4.6,3.5,8.6,4.7,9.6,5c3.9,1.1,7,1.1,9.3,1c4.3-0.1,7.8-0.9,9.7-1.5c1.6-0.5,2.9-1,3.8-1.4
		c-8.9,11.1-17.8,22.2-26.7,33.3c-3.1,10.9-6.1,21.8-9.2,32.7c-3.4-1-7-1.7-10.4-2.7c3.3-10.7,6.7-21.6,10.1-32.2L91.8,59.9z"/>
	<path fill="#485250" d="M67.8,131.3c2.3,1.2,5,1.4,7.4,2c1.7,0.4,3.4,0.8,5.1,1.2c1.4,0.3,3,0.8,4.6,1.1c10.2,2.3,20.2,5,30.4,7.3
		c0.8,0.2,1.6,0.3,2.4,0.4c0,0-0.1,2.4-0.3,3.1c-0.8,2.4-1.6,3.2-2.9,2.8c-10-2.8-20-5.3-30-7.9c-3.3-0.9-6.7-1.7-10-2.7
		c-2-0.6-4.2-0.9-6.2-1.5c-1.9-0.5-1.7-2.9-1.3-4.3C67,132.6,67.7,131.3,67.8,131.3z"/>
</g>
<g id="Calque_8">
	<path fill="#4D4D4D" stroke="#4D4D4D" stroke-width="0.2826" stroke-miterlimit="10" d="M133.4,58.1"/>
	<path fill="#4D4D4D" stroke="#4D4D4D" stroke-width="0.2826" stroke-miterlimit="10" d="M137.4,55.5"/>
	<path fill="#4D4D4D" stroke="#4D4D4D" stroke-width="0.2826" stroke-miterlimit="10" d="M132.7,51"/>
</g>
</svg>
