<?xml version="1.0" encoding="utf-8"?>
<!-- Generator: Adobe Illustrator 22.1.0, SVG Export Plug-In . SVG Version: 6.00 Build 0)  -->
<svg version="1.1" id="Calque_1" xmlns="http://www.w3.org/2000/svg" xmlns:xlink="http://www.w3.org/1999/xlink" x="0px" y="0px"
	 viewBox="0 0 60.1 25.9" style="enable-background:new 0 0 60.1 25.9;" xml:space="preserve">
<style type="text/css">
	.st0{fill:#78BA4A;}
</style>
<g>
	<g>
		<path class="st0" d="M53.9,0c0,0,6.4,0,6.3,9.1H58C58,9.1,60.5,3.9,53.9,0z"/>
		<g>
			<path class="st0" d="M53.9,0L0,0.1v23h6.3c0,0-0.8-6.1,5.1-6.1s5.8,6,5.8,6h24.6c0,0-0.5-5.9,5.4-5.9s5.1,6.4,5.1,6.4h4.5V10.3
				C56.8,10.3,57.1,2.6,53.9,0z M7.9,10H2V2.6h5.9V10z M14.9,10H9V2.6h5.9V10z M24.9,21.1h-1v-1.9H21v0h-1.1v-5.5
				c-0.6-0.2-1.1-0.8-1.1-1.5c0-0.9,0.7-1.6,1.6-1.6s1.6,0.7,1.6,1.6c0,0.7-0.4,1.2-1,1.5h0v4.5h3v0.7h0.9V21.1z M27.3,10H17V3.1
				h3.6v2h-4v1.6h10.6V10z M27.3,5.1h-5.1v-2h5.1V5.1z M34.4,10h-5.9V2.6h5.9V10z M44.3,10H36V3.1h8.3V10z M56.6,14
				c-3.4,0.3-2.2-1.6-3.7-1.7l1.1,0V5.7h-1.3v6.6c-1.4-0.1-2.6-1.1-2.6-1.1c-5.6,0.2-5.3-0.8-5.3-0.8V3.2H52v1.3
				c0.5-0.1,1-0.2,1-0.2s-0.3-1.1,0.5-1.1c0.8,0-0.2,1.1,0.6,1.1s0.8,1,1,3.4s1.5,1,1.5,1V14z"/>
			<circle class="st0" cx="11.4" cy="22.1" r="3.8"/>
			<circle class="st0" cx="46.9" cy="22.1" r="3.8"/>
		</g>
	</g>
</g>
</svg>
