<?xml version="1.0" encoding="utf-8"?>
<!-- Generator: Adobe Illustrator 22.1.0, SVG Export Plug-In . SVG Version: 6.00 Build 0)  -->
<svg version="1.1" id="Calque_1" xmlns="http://www.w3.org/2000/svg" xmlns:xlink="http://www.w3.org/1999/xlink" x="0px" y="0px"
	 viewBox="0 0 44.8 44.8" style="enable-background:new 0 0 44.8 44.8;" xml:space="preserve">
<style type="text/css">
	.st0{fill:#F8C734;}
</style>
<g>
	<g>
		<path class="st0" d="M22.4,0C10,0,0,10,0,22.4c0,12.4,10,22.4,22.4,22.4c12.4,0,22.4-10,22.4-22.4C44.8,10,34.8,0,22.4,0z
			 M22.4,42.7c-11.2,0-20.3-9.1-20.3-20.3c0-11.2,9.1-20.3,20.3-20.3c11.2,0,20.3,9.1,20.3,20.3C42.7,33.6,33.6,42.7,22.4,42.7z"/>
		<path class="st0" d="M22.6,9.8L22.6,9.8c-0.5,0-0.9-0.4-0.9-0.9V3.9c0-0.5,0.4-0.9,0.9-0.9l0,0c0.5,0,0.9,0.4,0.9,0.9v4.9
			C23.6,9.3,23.2,9.8,22.6,9.8z"/>
		<path class="st0" d="M31.7,14L31.7,14c-0.4-0.4-0.4-1,0-1.3l3.4-3.4c0.4-0.4,1-0.4,1.3,0v0c0.4,0.4,0.4,1,0,1.3L33,14
			C32.7,14.4,32.1,14.4,31.7,14z"/>
		<path class="st0" d="M8.7,37L8.7,37c-0.4-0.4-0.4-1,0-1.3l3.4-3.4c0.4-0.4,1-0.4,1.3,0h0c0.4,0.4,0.4,1,0,1.3L10,37
			C9.7,37.4,9.1,37.4,8.7,37z"/>
		<path class="st0" d="M9.4,22.9L9.4,22.9c0,0.5-0.4,0.9-0.9,0.9H3.6c-0.5,0-0.9-0.4-0.9-0.9l0,0c0-0.5,0.4-0.9,0.9-0.9h4.9
			C9,22,9.4,22.4,9.4,22.9z"/>
		<path class="st0" d="M41.9,22.9L41.9,22.9c0,0.5-0.4,0.9-0.9,0.9h-4.9c-0.5,0-0.9-0.4-0.9-0.9l0,0c0-0.5,0.4-0.9,0.9-0.9H41
			C41.5,22,41.9,22.4,41.9,22.9z"/>
		<path class="st0" d="M13.5,13.8L13.5,13.8c-0.4,0.4-1,0.3-1.3,0l-3.3-3.5c-0.4-0.4-0.3-1,0-1.3l0,0c0.4-0.4,1-0.3,1.3,0l3.3,3.5
			C13.9,12.9,13.9,13.5,13.5,13.8z"/>
		<path class="st0" d="M36.1,36L36.1,36c-0.4,0.4-1,0.3-1.3,0l-3.3-3.5c-0.4-0.4-0.3-1,0-1.3h0c0.4-0.4,1-0.3,1.3,0l3.3,3.5
			C36.5,35,36.5,35.6,36.1,36z"/>
		<rect x="18.8" y="35.9" class="st0" width="8" height="3.1"/>
		<circle class="st0" cx="22.5" cy="23.1" r="3.2"/>
	</g>
</g>
</svg>
