<?xml version="1.0" encoding="utf-8"?>
<!-- Generator: Adobe Illustrator 21.1.0, SVG Export Plug-In . SVG Version: 6.00 Build 0)  -->
<svg version="1.1" xmlns="http://www.w3.org/2000/svg" xmlns:xlink="http://www.w3.org/1999/xlink" x="0px" y="0px" width="252px"
	 height="352px" viewBox="0 0 252 352" style="enable-background:new 0 0 252 352;" xml:space="preserve">
<style type="text/css">
	.st0{fill:#9A9A9A;}
	.st1{opacity:0.8;fill:#729F2D;}
	.st2{fill:#729F2D;}
	.st3{fill:#3C3C3B;}
	.st4{opacity:0.63;}
	.st5{fill:#693B32;}
</style>
<g id="Background">
</g>
<g id="Objects">
	<rect class="st0" width="252" height="352"/>
	<path class="st1" d="M245.2,222.1c-3.6-3.3-7.6-5.8-12.2-7.6c-1.8-0.7-3.9,1.5-3.2,3.2c0.7,1.9,1.4,3.7,2.1,5.6
		c-4.6-3.5-9.2-7.1-13.9-10.6c-2.1-1.6-5.1,1.5-3.6,3.6l0,0c-2.7-2.2-5.5-4.2-8.4-6.2c-2.1-1.5-5.1,1.5-3.6,3.6c2.1,3,4.1,6,6.2,9
		c-3.9-3.4-7.8-6.8-11.6-10.2c-2.6-2.3-5.8,1.1-3.7,3.7c3.6,4.5,6.9,9.2,10.1,13.9c-6.6-5.6-12.8-11.6-18.5-18.2
		c-1.9-2.2-5.9,0.8-4.1,3.2c2.3,3.2,4.6,6.4,7,9.5c-5.7-5.2-11.3-10.6-16.7-16.1c-2.1-2.1-5.6,0.6-4.1,3.2c0.4,0.7,0.8,1.4,1.2,2.1
		c-2.7-2.6-5.5-5.3-8.2-7.9c-2.1-2.1-5.7,0.6-4.1,3.2c3.2,5.3,6.4,10.5,9.5,15.8c-6.6-5.7-12.7-11.9-18.4-18.5
		c-2-2.3-5.8,0.7-4.1,3.2c3.2,5,6.5,10,9.7,15.1c-7.4-6.6-14.6-13.6-21.4-20.9c-2-2.2-5.8,0.7-4.1,3.2c3,4.6,6,9.2,9.1,13.8
		c-7-5.7-13.6-11.9-19.9-18.3c-2.1-2.1-5.7,0.6-4.2,3.2c3.2,5.2,6.3,10.4,9.5,15.6c-6.6-6.3-13-12.8-19.1-19.7
		c-2-2.2-5.8,0.7-4.2,3.2c3.8,5.8,7.5,11.7,11.3,17.5c-6.4-5.8-12.3-12.2-17.7-18.9c-1.9-2.4-5.7,0.7-4.2,3.2
		c3.6,5.8,7.1,11.6,10.7,17.3c-5.9-5.1-11.8-10.2-17.7-15.4c-2.2-1.9-5.8,0.5-4.2,3.2c3.4,5.4,6.8,10.9,10.2,16.3
		c-7-6.3-13.6-13.1-19.7-20.3c-1.9-2.3-5.8,0.7-4.2,3.2c2.5,3.8,5.1,7.6,7.6,11.4c-4.7-4.4-9.4-8.9-14.2-13.3c-2.1-2-6,0.7-4.1,3.2
		c1.3,1.8,2.5,3.5,3.8,5.3c-3.9-4-7.7-8-11.5-12.1c-2-2.2-5.7,0.6-4.1,3.2l9.8,15.7c-5.7-4.9-11.4-9.9-17.1-14.8
		c-2.1-1.9-5.8,0.5-4.1,3.2l6.7,10.6c-4.5-4.1-9.1-8.2-13.8-12.1c-2.1-1.8-5.7,0.5-4.1,3.1c3,4.8,6,9.7,8.9,14.5
		c-4.1-3.7-8.2-7.4-12.3-11.1c-2.5-2.2-5.6,1.1-3.6,3.6c2.6,3.3,5.2,6.5,7.8,9.8c-3.2-2-6.3-4-9.4-6c-2-1.3-4,1.6-2.5,3.2
		c3.8,4.2,7.8,8.2,11.7,12.3c1.3,1.3,3-0.6,1.9-1.9c-0.6-0.8-1.2-1.5-1.8-2.3c3.3,2.2,6.5,4.4,9.8,6.6c1,0.7,2.4,0.3,3.1-0.6
		c0.5-0.7,0.6-1.4,0.4-2.1c1.5,1.3,3,2.7,4.5,4c2.1,1.9,5.6-0.5,4-3.1c-3.1-5-6.1-10-9.2-15c5.6,5.1,11.1,10.4,16.5,15.9
		c2.1,2.1,5.7-0.6,4.1-3.2c-2.9-4.6-5.9-9.2-8.8-13.9c5.5,4.8,11.1,9.6,16.6,14.4c2.1,1.9,5.8-0.5,4.1-3.2c-1.9-3.1-3.9-6.3-5.8-9.4
		c5.1,5.1,10.4,10.1,15.7,15.1c2.1,1.9,6-0.7,4.1-3.2c-1.8-2.5-3.6-5.1-5.5-7.6c3.8,3.5,7.6,7.1,11.3,10.6c2.1,2,5.9-0.6,4.1-3.2
		c-1.5-2.2-3-4.5-4.5-6.7c4.2,3.8,8.6,7.4,13.1,10.9c2.2,1.7,4.9-1.5,3.6-3.6l-9.5-15.2c5.8,5.1,11.7,10.1,17.5,15.2
		c2.2,1.9,5.8-0.5,4.2-3.2c-2-3.2-4-6.5-6-9.7c4.3,3.9,8.8,7.6,13.5,11.1c2.2,1.6,5-1.5,3.6-3.6c-2-3.1-4-6.2-6-9.3
		c4.5,4.2,9.1,8.4,13.8,12.4c2.2,1.8,5.8-0.5,4.2-3.2c-2.8-4.7-5.6-9.3-8.4-14c6,5.3,12.3,10.3,18.8,15c2.2,1.6,5-1.5,3.6-3.6
		c-1.3-1.9-2.5-3.9-3.8-5.8c5.5,5.1,11.3,10,17.1,14.7c1,0.8,2.4,1.1,3.5,0.2c1-0.8,1.4-2.3,0.7-3.4c-1.8-2.9-3.7-5.7-5.5-8.6
		c4.1,3.6,8.4,7.1,12.8,10.4c2.2,1.6,4.9-1.5,3.6-3.6l-6.8-11.3c5.1,5,10.3,9.9,15.4,14.9c2.5,2.4,6-1.2,3.7-3.7
		c-1.4-1.6-2.8-3.3-4.2-5c5.2,4.7,10.5,9.3,15.9,13.7c1,0.8,2.4,1.1,3.5,0.2c0.9-0.8,1.5-2.3,0.7-3.4c-1-1.3-2-2.7-2.9-4
		c3,2.4,6.1,4.8,9.3,7c2.2,1.6,4.9-1.5,3.6-3.6c-1.7-2.9-3.5-5.8-5.3-8.6c3.5,3.1,7,6.2,10.5,9.2c2.1,1.9,5.9-0.6,4.1-3.2
		c-2.9-4.2-5.7-8.3-8.6-12.5c4,3.4,7.8,7,11.5,10.7c2,2.1,5.9-0.7,4.1-3.2c-1.1-1.6-2.3-3.2-3.4-4.8l8.3,6.4
		c0.9,0.7,2.4,0.3,3.2-0.4c0.9-0.9,0.9-2.1,0.4-3.2c-1.2-2.5-2.4-5.1-3.4-7.7c1.5,1,2.9,2.1,4.3,3.3
		C243.9,228.1,247.7,224.4,245.2,222.1z"/>
	<g>
		<path class="st2" d="M159,55.2c-1.3-5.9-4.3-11.5-8.7-15.6c-4.5-4.3-10.4-7-16.5-8.2c-6.8-1.3-14-0.7-20.7,1.1
			c-5.7,1.6-11.3,4.1-15.7,8.1c-1.9,1.7-3.4,3.6-4.6,5.7c0,0-0.1,0.1-0.1,0.1c-2,3.6-3.1,7.8-3.2,12c0,0.2,0,0.4,0,0.7
			c0,0-0.1,0-0.1-0.1c-0.1,0-0.1,0-0.2,0c0,0,0,0.1,0,0.1c0,0.1,0,0.2,0,0.3c0,0.1,0.1,0.2,0.1,0.3c0.1,0,0.1,0.1,0.2,0.1
			c0,0.2,0,0.4,0,0.6c0,0,0,0,0,0c-0.1,0-0.1,0-0.2,0c0,0.1-0.1,0.3-0.1,0.4c0,0,0.1,0.1,0.1,0.1c0.1,0,0.2,0.1,0.3,0.1
			c0,0.2,0,0.5,0,0.7c0,0-0.1,0-0.1,0c-0.3,0-0.4,0.5-0.1,0.6c0.1,0,0.2,0.1,0.3,0.1c0.1,0.9,0.2,1.8,0.3,2.6
			c-0.2,0.1-0.2,0.4,0,0.5c0,0,0.1,0,0.1,0.1c0.8,4.6,2.5,9.1,5.7,12.2c0,0,0.1,0.1,0.1,0.1c0.9,1,2.3,0.4,3.5,0
			c2.2-0.8,4.5-1.6,6.6-2.5c4.3-1.8,8.4-3.8,12.5-6.1c0.3-0.2,0.3-0.6,0-0.8c0.1-0.2,0.2-0.4,0-0.6c-3.9-3.2-1.8-9.4,1.5-12.3
			c3.5-3.2,9.1-3.3,12.3,0.4c0.5,0.5,0.8,1.1,1.1,1.7c-0.3,0.1-0.3,0.6,0,0.7c0.1,0,0.2,0.1,0.3,0.1c0.6,1.9,0.5,4.2,0,6.3
			c0,0-0.1,0-0.1-0.1c-0.4-0.2-0.7,0.4-0.3,0.6c0.1,0.1,0.2,0.1,0.3,0.2c-0.5,2-1.3,3.9-2,5.5c-2,4.2-4.8,8-8.4,10.9
			c-0.2,0-0.3,0.1-0.3,0.3c-0.1,0.1-0.2,0.1-0.2,0.2c-1.3,1-2.6,1.9-4,2.7c-0.1,0-0.2,0.1-0.3,0.2c-3.7,2.2-7.8,3.7-11.8,5.5
			c-0.1,0-0.2,0.1-0.2,0.2c-0.2,0-0.4,0.4-0.1,0.6c0,0,0,0,0,0c0,0.1,0,0.1,0,0.2c0,0.2,0,0.4,0,0.7c-0.1,0.1-0.1,0.2,0,0.3
			c-0.1,2.5-0.1,5-0.1,7.5c-0.2,0.1-0.3,0.3-0.1,0.5c0,0,0.1,0.1,0.1,0.1c0,0.2,0,0.4,0,0.6c-0.3-0.1-0.5,0.3-0.3,0.5
			c0.1,0.1,0.2,0.1,0.3,0.2c0,1.5,0,3,0,4.5c0,1.3-0.1,2.7-0.1,4.1c-0.1,0.1-0.1,0.2,0,0.3c-0.1,2.8-0.2,5.7,0,8.5
			c-0.1,0.1-0.1,0.2,0,0.3c0,0,0,0.1,0.1,0.1c0,0.5,0.1,1.1,0.1,1.6c0,0.1,0,0.2,0.1,0.2c0,0.2,0.1,0.5,0.4,0.5
			c4.3-0.1,8.5-0.4,12.8-0.5c2-0.1,4.1-0.1,6.1-0.2c1.1,0,2.2,0,3.3-0.1c0.6,0,1.3,0,1.9-0.2c0.3,0.2,0.7,0.1,0.7-0.4
			c0-3.9-0.1-7.8-0.1-11.7c0-1.7,0-3.4,0-5.2c0-0.9-0.1-1.9,0-2.8c0.2-1.6,1.1-1.8,2.4-2.2c4.2-1.6,8.2-3.8,11.7-6.7c0,0,0,0,0.1,0
			c0.3,0.2,0.7-0.2,0.5-0.5c0.8-0.7,1.6-1.4,2.4-2.2c5.1-5.1,8.9-11.5,10.6-18.5c0.1-0.1,0.2-0.3,0.1-0.4
			C159.9,65.6,160.1,60.3,159,55.2z M158.8,61.8c-14.7-6.4-29.7-12.1-44.7-17.6c-2.1-1-4.2-2-6.3-3.1c16.8,6.6,33.5,13.3,50.3,19.9
			c0.5,0.2,0.6-0.5,0.2-0.7c-9.4-3.7-18.8-7.5-28.2-11.2c-4.7-1.9-9.3-3.7-14-5.6c-1.5-0.6-2.9-1.2-4.4-1.8c2.2,0.9,4.4,1.6,6.6,2.4
			c13.3,5.1,26.6,10.3,39.9,15.4c0.2,0.1,0.4-0.1,0.4-0.2C158.7,60.1,158.8,60.9,158.8,61.8z M121.4,47.5c8.1,3.1,16.2,6.2,24.3,9.5
			c3.5,1.4,7,2.9,10.5,4.4c-7-1.3-13.5-4.4-20-7.3C131.3,52,126.3,49.8,121.4,47.5z M130.4,52.4c-1.4-0.6-2.8-1.1-4.2-1.7
			c-4.4-1.9-8.7-3.9-13-5.8c-1.6-0.7-3.1-1.4-4.7-2.1c1.7,0.6,3.3,1.2,5,1.8c3.5,1.7,6.9,3.3,10.4,4.9
			C126,50.4,128.2,51.4,130.4,52.4z M145.2,51c-2.2-0.7-4.3-1.4-6.5-2c0-0.1-0.1-0.1-0.2-0.2c-2.7-0.8-5.5-1.7-8.2-2.6
			c-7.6-2.5-15.1-5.4-22.2-9.1c6.6,2.6,13.3,5,19.9,7.5c1.4,0.5,2.7,1,4.1,1.5c0,0,0,0,0,0c4.6,1.7,9.3,3.4,13.9,5.2
			C145.8,51.1,145.5,51,145.2,51z M150.1,54.3c-4.8-1.8-9.6-3.5-14.3-5.3C140.5,50.7,145.4,52.3,150.1,54.3z M118.4,43.4
			c-0.4-0.1-0.7-0.3-1.1-0.4c-2.6-1-5.2-2-7.8-3c-0.3-0.1-0.6-0.3-0.9-0.4c1.6,0.6,3.2,1.1,4.8,1.7C115.1,42,116.7,42.7,118.4,43.4z
			 M158.5,57.9c0,0.3,0.1,0.7,0.1,1c0,0-0.1-0.1-0.1-0.1c-4.2-1.8-8.5-3.6-12.7-5.3c4.1,1.5,8.2,3,12.3,4.5
			C158.3,58.1,158.4,58,158.5,57.9z M158,55.6C158.1,55.6,158.1,55.6,158,55.6c0.2,0.6,0.3,1.2,0.4,1.7c0,0,0,0,0,0
			c-3.3-1.8-6.8-3.3-10.3-4.7c3.2,1.1,6.4,2.3,9.6,3.2C157.8,55.8,158,55.7,158,55.6z M157,51.7c0.4,1,0.7,2.1,0.9,3.1
			c-1.8-0.7-3.7-1.4-5.5-2c1.5,0.5,2.9,0.9,4.4,1.4c0.2,0.1,0.3-0.2,0.1-0.3c-9.9-3.4-19.8-6.7-29.6-10.4c9.7,3.6,19.5,7,29.3,10.1
			c0.4,0.1,0.6-0.5,0.3-0.6c-3.3-1.4-6.6-2.8-10-4.1C150.3,49.9,153.6,50.8,157,51.7C157,51.7,157,51.7,157,51.7z M115.6,38.3
			c1.3,0.5,2.5,0.9,3.8,1.3c1.1,0.4,2.2,0.7,3.2,1.1c4.5,1.7,9,3.3,13.6,4.8c4,1.5,8.1,3.1,12.1,4.7
			C137.3,46.5,126.4,42.5,115.6,38.3z M156.1,49.5c0.2,0.4,0.4,0.9,0.5,1.3c-7.9-2.6-15.8-5.2-23.7-7.8c-5.4-1.8-10.8-3.6-16-5.9
			c12.8,4.6,25.8,8.8,39,12.3C156,49.5,156.1,49.5,156.1,49.5z M116.3,35.6c3.8,1.3,7.5,2.5,11.3,3.8c2.3,0.9,4.6,1.7,6.9,2.5
			c1.3,0.4,2.6,0.8,3.9,1.1c3.8,1.3,7.6,2.5,11.4,3.8c-5.5-1.7-11-3.4-16.6-5.2C127.5,39.9,121.7,38.2,116.3,35.6z M154.6,46.5
			c0.4,0.7,0.8,1.5,1.2,2.2c-0.3-0.1-0.6-0.2-0.9-0.3c0.2-0.1,0.3-0.5,0-0.7c-4.7-2.5-9.9-3.7-15-5c-4.2-1.4-8.5-2.8-12.7-4.2
			c-2.5-1-4.9-2-7.3-3c2.1,0.6,4.2,1.3,6.3,1.9c9.2,3.6,18.6,6.9,28.2,9.1C154.4,46.5,154.5,46.5,154.6,46.5z M153.4,44.6
			c0.2,0.3,0.4,0.6,0.6,1c-9.1-3.1-18.3-6-27.5-8.8c-1.9-0.7-3.7-1.5-5.6-2.2c10.9,3,21.6,6.3,32.3,10.1
			C153.3,44.6,153.3,44.6,153.4,44.6z M151.4,42c0.2,0.2,0.4,0.4,0.6,0.7c-0.5-0.2-0.9-0.4-1.4-0.6c0.1,0,0.3,0.1,0.4,0.1
			C151.2,42.3,151.3,42.2,151.4,42z M150.7,41.2C150.7,41.3,150.7,41.3,150.7,41.2c0.1,0.1,0.1,0.1,0.2,0.2
			c-7.8-2.4-15.5-4.9-23.3-7.3c3.3,0.7,6.5,1.4,9.7,2.3C141.8,37.9,146.2,39.6,150.7,41.2z M146.6,37.7c0.8,0.6,1.6,1.2,2.3,1.8
			c0.1,0.1,0.2,0.2,0.3,0.3c-3.8-1.7-7.8-3-11.9-4.1c-1-0.3-2-0.7-3.1-1c4,1,7.9,2.1,11.9,3.2C146.4,38,146.5,37.9,146.6,37.7z
			 M143.4,36c0.1,0,0.2,0,0.3-0.1c0.7,0.4,1.4,0.8,2.1,1.3c-1.7-0.5-3.4-1-5.1-1.5C141.6,35.8,142.5,35.9,143.4,36z M132.7,33.2
			c-0.1,0-0.1,0-0.2,0c-0.5-0.1-1-0.3-1.5-0.4c3.1,0.4,6.1,1.2,9.1,2.1C137.7,34.5,135.2,33.9,132.7,33.2z M132.4,32
			c2.6,0.4,5.3,1.1,7.7,2.2c-4.1-1.3-8.4-2.1-12.8-2.5c-0.4,0-0.4,0.6-0.1,0.7c0.3,0.1,0.7,0.2,1,0.3c-1.2-0.3-2.4-0.6-3.6-0.9
			c-0.3-0.1-0.5,0.4-0.1,0.5c1.7,0.5,3.3,1,5,1.5c-2.6-0.6-5.3-1.1-7.9-1.6c-0.1,0-0.1,0-0.2,0c-0.3-0.1-0.6-0.2-0.9-0.3
			c-0.4-0.1-0.6,0.5-0.2,0.7c0.6,0.2,1.2,0.4,1.8,0.6c-1.2-0.3-2.3-0.6-3.5-0.9c-0.4-0.1-0.6,0.6-0.2,0.7c8.2,2.2,16.5,4.4,24.5,7.3
			c-8.8-2.9-17.6-5.5-26.5-7.8C121.6,31.5,127.1,31.2,132.4,32z M115.6,32.7c0,0.2,0,0.3,0.2,0.4c1.1,0.5,2.3,0.9,3.4,1.4
			c-1.5-0.5-3.1-0.9-4.6-1.4c-0.4-0.1-0.6,0.5-0.3,0.6c1.2,0.5,2.4,1.1,3.6,1.6c-1.9-0.6-3.7-1.2-5.6-1.9
			C113.5,33.3,114.5,33,115.6,32.7z M111.5,33.9c0.1,0,0.3-0.1,0.4-0.1c-0.1,0.2-0.1,0.4,0.1,0.5c1,0.6,2,1.1,3,1.6
			c-1.5-0.5-3-1.1-4.5-1.7C110.9,34,111.2,33.9,111.5,33.9z M109.9,34.4c0,0.1,0,0.2,0.2,0.3c1.4,0.8,2.9,1.5,4.3,2.1
			c-1.8-0.7-3.5-1.4-5.3-2.1C109.4,34.6,109.6,34.5,109.9,34.4z M108.4,34.9c0,0.1,0.1,0.2,0.1,0.2c1.2,0.7,2.4,1.3,3.7,1.8
			c-1.5-0.6-2.9-1.2-4.4-1.8c0,0,0,0,0,0C108,35.1,108.2,35,108.4,34.9z M107.4,35.3c-0.1,0.2-0.1,0.4,0.1,0.5
			c1.5,0.7,3,1.4,4.5,2.1c-1.9-0.7-3.8-1.4-5.8-2c-0.2-0.1-0.3,0.3-0.1,0.4c0,0,0.1,0,0.1,0c0,0,0,0.1,0.1,0.1
			c0.9,0.5,1.9,1.1,2.8,1.6c-1.3-0.6-2.5-1.1-3.8-1.7c0,0,0,0-0.1,0C106,35.9,106.7,35.6,107.4,35.3z M104.9,36.5
			c-0.1,0.1,0,0.3,0.1,0.4c1,0.6,2,1.2,3,1.7c-1.4-0.5-2.9-1-4.3-1.5C104.1,36.9,104.5,36.7,104.9,36.5z M102.5,37.8
			c0,0.1,0.1,0.2,0.2,0.2c0.4,0.2,0.8,0.5,1.2,0.7c-0.6-0.2-1.1-0.4-1.7-0.7C102.2,38,102.3,37.9,102.5,37.8z M101.4,38.5
			C101.4,38.5,101.4,38.5,101.4,38.5c2.1,1.1,4.2,2.2,6.3,3.2c-2.4-0.9-4.7-1.7-7.1-2.6c-0.1,0-0.1,0-0.2,0
			C100.8,38.9,101.1,38.7,101.4,38.5z M100.3,39.3c-0.1,0.2-0.1,0.4,0.1,0.5c3.1,1.4,6.2,2.9,9.3,4.3c-3.4-1.4-6.8-2.8-10.3-4.2
			C99.7,39.7,100,39.5,100.3,39.3z M96.7,42.4c0.1-0.1,0.1-0.1,0.2-0.2c3.2,1.5,6.4,3.1,9.6,4.6c-3.4-1.3-6.9-2.5-10.4-3.5
			c-0.1,0-0.1,0-0.2,0C96.2,43,96.4,42.7,96.7,42.4z M95.6,43.6c0,0.1,0,0.3,0.2,0.3c2.9,1.4,5.9,2.7,8.8,4.1
			c-3.2-1.3-6.3-2.5-9.5-3.8C95.3,44,95.5,43.8,95.6,43.6z M94.7,44.8c2.8,1.3,5.5,2.6,8.3,3.9c-2.7-1.1-5.4-2.3-8.2-3.4
			c-0.4-0.2-0.6,0.5-0.3,0.7c3.8,1.7,7.5,3.5,11.3,5.2c-4.1-1.6-8.1-3.2-12.2-4.8C94,45.9,94.4,45.3,94.7,44.8z M93.4,47
			c2,1.1,4,2.1,6,3c-1.5-0.5-3-1.1-4.5-1.6c-0.6-0.2-1.1-0.4-1.7-0.6c-0.1,0-0.1,0-0.2,0C93.1,47.5,93.2,47.3,93.4,47z M92.8,48.2
			c0,0.1,0.1,0.2,0.2,0.2c0.5,0.2,1,0.4,1.5,0.5c5.3,1.9,10.5,3.9,15.6,6.3c-5.8-2.3-11.6-4.6-17.5-6.7
			C92.6,48.5,92.7,48.3,92.8,48.2z M108.3,55.4c-1.5-0.6-3-1.1-4.5-1.8C105.3,54.2,106.8,54.8,108.3,55.4z M92.2,49.5
			c3.7,1.6,7.4,3.3,11.1,4.9c-3.8-1.4-7.6-2.8-11.4-4.2C92,50,92.1,49.8,92.2,49.5z M91.7,50.9c5.7,2.5,11.4,5,17.2,7.5
			c-5.8-2.1-11.5-4.5-17.2-7c-0.1,0-0.1,0-0.2,0C91.6,51.2,91.7,51.1,91.7,50.9z M91.4,52c1.4,0.8,2.9,1.6,4.3,2.4
			c-1.5-0.5-3-0.9-4.4-1.4c0,0-0.1,0-0.1,0C91.2,52.7,91.3,52.4,91.4,52z M91,53.4C91,53.4,91.1,53.5,91,53.4c2.5,0.8,5,1.6,7.4,2.5
			c5.3,2.8,10.7,5.2,16.5,6.6c0.3,0.1,0.6-0.4,0.2-0.6c-5.1-2.3-10.3-4.4-15.6-6.2c-0.6-0.3-1.3-0.7-1.9-1
			c5.9,2.5,11.8,4.8,17.9,6.7c-0.2,0.8-0.2,1.6-0.2,2.4c0-0.1-0.1-0.2-0.2-0.2c-8-3.4-16-6.6-24.1-9.8c0,0,0,0,0,0
			C91,53.6,91,53.5,91,53.4z M104.5,58.1c1.9,0.7,3.7,1.5,5.5,2.3C108.1,59.7,106.3,59,104.5,58.1z M110.2,62.3
			c-5.2-1.5-10.1-3.5-14.9-6.1C100.3,58.2,105.3,60.2,110.2,62.3z M90.8,54.4c1,0.8,2,1.5,3,2.1c-1-0.4-2.1-0.8-3.1-1.3
			C90.7,55,90.8,54.7,90.8,54.4z M90.6,56c5,2.4,10.1,4.8,15.1,7.1c-5.1-2.1-10.1-4.1-15.2-6.2C90.5,56.6,90.5,56.3,90.6,56z
			 M90.4,57.7c2.4,1.3,4.8,2.5,7.3,3.6c-2.4-1-4.9-2-7.3-3C90.4,58.1,90.4,57.9,90.4,57.7z M90.4,58.9c3.5,1.6,7,3.3,10.6,4.9
			c-3.5-1.5-7-3-10.6-4.4C90.4,59.3,90.4,59.1,90.4,58.9z M90.4,60.3c0.3,0.2,0.7,0.4,1,0.5c-0.3-0.1-0.7-0.2-1-0.3
			C90.4,60.4,90.4,60.4,90.4,60.3z M90.4,61.5c0.2,0.1,0.4,0.2,0.7,0.3c-0.2,0-0.4-0.1-0.7-0.1C90.5,61.7,90.4,61.6,90.4,61.5z
			 M90.7,64.1c-0.1-0.4-0.1-0.9-0.1-1.3c0.1,0.1,0.3,0.1,0.4,0.2c-0.1,0.1-0.2,0.4,0,0.5c1.6,0.8,3.2,1.6,4.8,2.3
			c-1.7-0.6-3.3-1.1-5-1.7C90.8,64.1,90.7,64.1,90.7,64.1z M90.8,64.8c1,0.5,2.1,1,3.1,1.5c-1-0.3-2-0.7-3.1-1
			C90.8,65.1,90.8,65,90.8,64.8z M91.1,66.8c1.9,0.9,3.8,1.7,5.7,2.6c-1.8-0.6-3.7-1.1-5.5-1.6C91.3,67.4,91.2,67.1,91.1,66.8z
			 M91.5,68.5c0.6,0.3,1.2,0.6,1.9,0.9c-0.4-0.1-0.8-0.3-1.3-0.4c-0.2-0.1-0.3,0.1-0.4,0.3C91.7,69,91.6,68.7,91.5,68.5z M91.8,69.5
			C91.9,69.5,91.9,69.5,91.8,69.5c1.1,0.6,2.2,1.2,3.3,1.7c-1-0.3-2-0.6-3-0.8C92,70,91.9,69.7,91.8,69.5z M92.7,71.9
			c-0.1-0.2-0.2-0.4-0.3-0.7c0.6,0.3,1.3,0.6,1.9,0.9c-0.5-0.1-0.9-0.2-1.4-0.3C92.9,71.8,92.8,71.8,92.7,71.9z M93,72.4
			c1.2,0.5,2.3,1,3.5,1.5c-1-0.3-2.1-0.5-3.1-0.8C93.2,72.9,93.1,72.6,93,72.4z M94.3,74.8c0.4,0.2,0.9,0.4,1.3,0.7
			c-0.3-0.1-0.7-0.1-1-0.2C94.5,75.1,94.4,74.9,94.3,74.8z M96.2,77.3C96.1,77.3,96.1,77.3,96.2,77.3c-0.2-0.2-0.3-0.3-0.4-0.4
			c0.5,0.2,1.1,0.4,1.6,0.6C97,77.6,96.5,77.6,96.2,77.3z M99.1,77c-0.3,0.1-0.6,0.3-1,0.4c0-0.1,0-0.1-0.1-0.2
			c-0.9-0.4-1.7-0.8-2.4-1.3c1.3,0.3,2.5,0.6,3.7,1c0.3,0.1,0.4-0.3,0.2-0.4c0.1,0,0.1,0,0.2,0.1c0.3,0.1,0.4-0.4,0.1-0.5
			c-1.5-0.6-2.9-1.2-4.4-1.9c2.1,0.5,4.2,1.2,6.2,2C100.7,76.4,99.9,76.7,99.1,77z M102.1,75.9c0-0.1,0-0.1-0.1-0.2
			c-1.9-0.8-3.8-1.7-5.8-2.5c0.7,0.2,1.4,0.4,2.1,0.6c1.6,0.6,3.2,1.2,4.8,1.7C102.8,75.6,102.5,75.8,102.1,75.9z M103.6,75.3
			c0-0.1,0-0.3-0.2-0.3c-1.6-0.6-3.1-1.1-4.7-1.6c-1.5-0.6-2.9-1.2-4.4-1.9c1.9,0.5,3.8,1.1,5.7,1.6c1.7,0.6,3.5,1.1,5.3,1.5
			C104.7,74.9,104.2,75.1,103.6,75.3z M105.8,74.4c0-0.1,0-0.3-0.2-0.3c-1.8-0.5-3.5-1-5.3-1.5c-1.6-0.6-3.3-1.2-4.8-1.9
			c1.3,0.4,2.6,0.9,4,1.3c2.3,0.9,4.6,1.6,6.9,2.3C106.1,74.3,106,74.4,105.8,74.4z M107.4,73.7c-0.1,0-0.1,0.1-0.2,0.1
			c-2.5-0.8-5-1.6-7.5-2.4c-1.8-0.7-3.5-1.4-5.2-2.2c4.4,1.3,8.8,2.8,13.2,4.3C107.6,73.6,107.5,73.7,107.4,73.7z M108.5,73.3
			C108.5,73.2,108.5,73.2,108.5,73.3c-0.8-0.3-1.5-0.5-2.3-0.8c-0.7-0.2-1.3-0.5-2-0.7c1.4,0.4,2.7,0.8,4.1,1.3
			c0.4,0.1,0.5-0.4,0.2-0.6c-4.9-1.9-9.8-3.6-14.7-5.3c-0.3-0.2-0.6-0.3-1-0.5c3.8,1.2,7.5,2.5,11.3,3.7c2,0.7,4,1.3,6.1,2
			c0.4,0.1,0.5-0.5,0.2-0.6c-1.8-0.6-3.6-1.2-5.4-1.8c-3-1-6-2.1-9-3.4c5.1,1.8,10.3,3.5,15.4,5.3C110.5,72.3,109.5,72.8,108.5,73.3
			z M99,66.5c3.1,1.2,6.3,2.4,9.4,3.6C105.2,69,102.1,67.8,99,66.5z M112.8,71.2C112.8,71.2,112.8,71.2,112.8,71.2
			c-7.2-2.9-14.4-5.8-21.6-8.7c1.6,0.3,3.1,1.2,4.5,1.7c0.6,0.2,1.2,0.5,1.7,0.7c5.2,2.3,10.5,4.2,15.8,6.1
			C113.1,71.1,112.9,71.1,112.8,71.2z M113.8,70.7c0-0.1-0.1-0.1-0.2-0.2c-4.1-1.6-8.3-3.2-12.4-4.8L98,64.4c-2.1-0.9-4.3-1.9-6.4-3
			c1.1,0.3,2.1,0.6,3.2,1c3.4,1.6,6.9,3,10.5,4.4c2.9,1.3,5.8,2.4,8.8,3.3c0.1,0.1,0.3,0.1,0.4,0.2
			C114.3,70.4,114.1,70.6,113.8,70.7z M115.3,69.9c-4-1.9-7.9-3.7-11.9-5.6c0,0,0.1,0,0.1,0c4.2,1.8,8.5,3.7,12.9,4.9
			C116,69.5,115.7,69.7,115.3,69.9z M117.7,68.6C117.7,68.6,117.7,68.6,117.7,68.6c-0.2,0.1-0.4,0.3-0.6,0.4c0-0.1-0.1-0.1-0.2-0.2
			c-6.5-2.4-12.8-5.2-19-8.2c6.2,2.5,12.4,5,18.6,7.6c0.3,0.1,0.5-0.3,0.4-0.5C117.1,68,117.4,68.3,117.7,68.6z M116.8,67.6
			C116.8,67.6,116.7,67.6,116.8,67.6c-5.5-2.6-10.9-5.2-16.3-7.7c4.9,1.9,9.7,3.9,14.6,5.8c0.4,0.1,0.6-0.4,0.3-0.6
			c-1.3-0.7-2.7-1.3-4-1.9c1.2,0.3,2.4,0.6,3.7,0.9c0.2,0.1,0.4-0.1,0.4-0.3C115.4,65.3,115.9,66.6,116.8,67.6z M115.7,60.7
			c-5-2.2-9.9-4.3-14.9-6.5c4.9,1.8,9.8,3.7,14.6,5.6c0.3,0.1,0.6-0.5,0.3-0.6c-1.5-0.7-3-1.3-4.5-2c1.7,0.6,3.3,1.1,5,1.7
			c0,0,0.1,0,0.1,0C116.1,59.5,115.8,60.1,115.7,60.7z M116.6,58.3c0,0-0.1-0.1-0.1-0.1c0.1-0.2,0-0.3-0.1-0.4
			c-1.7-1-3.5-1.9-5.2-2.8c1.9,0.7,3.9,1.4,5.8,2.1c0.4,0.2,0.6-0.5,0.2-0.7c-5.8-2.2-11.6-4.3-17.2-6.9c5.8,2.3,11.5,4.5,17.3,6.8
			c0.4,0.2,0.7-0.5,0.3-0.7c-1.5-0.7-3.1-1.4-4.6-2.1c1.8,0.7,3.6,1.5,5.4,2.2C117.6,56.6,117,57.4,116.6,58.3z M119.4,54.7
			c-0.2,0.2-0.4,0.4-0.7,0.6c0,0,0,0-0.1,0c-3.9-1.8-7.8-3.7-11.7-5.5c4,1.6,8,3.2,12,4.8c0.4,0.2,0.7-0.5,0.3-0.7
			c-6-2.8-12-5.5-18-8.3c6.5,2.2,12.7,5.1,19,7.9c0.4,0.2,0.8-0.4,0.4-0.7c-0.6-0.4-1.3-0.8-1.9-1.2c1.2,0.4,2.4,0.8,3.6,1.2
			C121.3,53.3,120.3,53.9,119.4,54.7z M123.5,52.5c-6.5-2.8-13-5.7-19.5-8.5c6.5,2.4,12.8,5.3,19.1,8.3c0.5,0.2,0.9-0.5,0.4-0.7
			c-8.3-4-16.7-7.9-25.6-10.4c0.3-0.3,0.6-0.6,0.9-0.8c0,0,0,0,0.1,0.1c3.5,2,7.3,3.4,10.9,5c3.9,1.7,7.8,3.3,11.7,5l4.4,1.9
			C125.1,52.2,124.3,52.3,123.5,52.5z M133.9,56.8c-0.2-0.3-0.3-0.6-0.5-0.9c1.4,0.8,2.7,1.5,4.1,2.2
			C136.3,57.7,135.1,57.3,133.9,56.8z M135.2,60.1c2,0.9,3.9,1.9,5.8,2.9c-2-1-4-1.9-6.1-2.5c0-0.5-0.1-1.1-0.2-1.6
			c1.8,0.7,3.6,1.4,5.3,2.2c0.5,0.2,0.9,0.5,1.4,0.7c-1.9-0.8-3.9-1.6-5.8-2.3C135.1,59.3,134.8,60,135.2,60.1z M134.4,65.1
			c0.1-0.4,0.2-0.8,0.2-1.2c4.5,2.5,9.1,5,13.6,7.5C143.6,69.3,139,67.2,134.4,65.1z M143.2,70.6c-3-1.4-6.1-2.8-9.1-4.2
			c0,0,0,0,0,0c0-0.2,0.1-0.3,0.1-0.5C137.2,67.4,140.2,69,143.2,70.6z M135.3,62.1c-0.2-0.1-0.4,0-0.5,0.1c0-0.3,0-0.6,0-0.9
			c3,1.6,6,3.2,9,4.8C141,64.8,138.2,63.5,135.3,62.1z M143.9,67.4c-3-1.4-6.1-2.8-9.1-4.2c0-0.2,0-0.4,0.1-0.6c0,0,0.1,0.1,0.1,0.1
			C137.9,64.3,140.9,65.8,143.9,67.4z M133.9,67c0.8,0.4,1.6,0.8,2.4,1.3c-0.8-0.3-1.6-0.6-2.4-1c-0.1,0-0.1,0-0.1,0
			C133.8,67.2,133.9,67.1,133.9,67z M133.6,67.9C133.6,67.9,133.6,67.9,133.6,67.9c4.2,1.8,8.3,3.8,12.3,5.9
			C141.8,71.8,137.7,69.9,133.6,67.9C133.6,68,133.6,67.9,133.6,67.9z M133.3,68.6c5,2.5,9.8,5.3,14.6,8.2c-5-2.4-9.9-4.9-14.9-7.3
			C133.1,69.2,133.2,68.9,133.3,68.6z M132.5,70.8c4.1,2.4,8.1,4.8,12.2,7.3c-4.2-2.1-8.4-4.1-12.6-6.2c0,0-0.1,0-0.1,0
			C132.1,71.5,132.3,71.1,132.5,70.8z M131.4,73c0.4,0.2,0.7,0.3,1.1,0.5c-0.1,0-0.1,0-0.2-0.1c-0.4-0.1-0.6,0.5-0.3,0.7
			c2.3,1.3,4.6,2.5,6.9,3.9c-2.6-1.4-5.3-2.8-8-4C131,73.7,131.2,73.3,131.4,73z M130.5,74.6c2.6,1.3,5.1,2.7,7.6,4.2
			c-2.6-1.3-5.3-2.4-8.1-3.5C130.2,75.1,130.3,74.8,130.5,74.6z M129.6,75.9C129.6,75.9,129.7,75.9,129.6,75.9
			c5.3,2.5,10.7,5,15.3,8.6c-4.9-3.1-10.1-5.9-15.4-8.4C129.5,76.1,129.6,76,129.6,75.9z M129.1,76.7c1.5,1,3,1.9,4.5,2.9
			c-1.5-0.8-3-1.5-4.5-2.2c-0.4-0.2-0.8,0.4-0.4,0.6c3.5,1.8,6.9,3.9,10.1,6.1c-3.6-2.2-7.2-4.1-11.1-5.6
			C128.2,77.9,128.6,77.3,129.1,76.7z M127.2,79.1c1,0.7,2.1,1.3,3.1,2c-1-0.6-2.1-1.2-3.1-1.8c0,0-0.1,0-0.1,0
			C127.1,79.2,127.1,79.2,127.2,79.1z M126.7,79.7c0,0.1,0.1,0.1,0.1,0.2c4,2.3,7.8,4.8,11.6,7.4c-4.1-2.4-8.2-4.7-12.4-6.9
			C126.2,80.2,126.4,79.9,126.7,79.7z M125.5,80.9c0,0,0.1,0.1,0.1,0.1c1,0.7,2.1,1.4,3.2,2.1c-1.2-0.7-2.3-1.3-3.5-2
			C125.4,81,125.4,81,125.5,80.9z M124.8,81.6c3.7,2.5,7.3,4.9,11,7.4c-4-2.2-7.9-4.4-11.9-6.6C124.2,82.1,124.5,81.8,124.8,81.6z
			 M123.1,83c0.1-0.1,0.2-0.1,0.2-0.2c1.5,1,2.9,2,4.4,2.9c-1.6-0.9-3.2-1.7-4.8-2.6C122.9,83.1,123,83.1,123.1,83z M122.3,83.7
			c0.8,0.5,1.5,0.9,2.3,1.4l-2.1-1.2c-0.4-0.2-0.6,0.3-0.3,0.6c1.2,0.9,2.4,1.8,3.7,2.7c-1.5-0.9-3.1-1.8-4.6-2.6
			C121.5,84.2,121.9,83.9,122.3,83.7z M120.6,84.9c3.6,2.5,7.3,4.9,10.9,7.4c-4-2.2-8-4.4-12.1-6.6
			C119.8,85.4,120.2,85.1,120.6,84.9z M118.7,86.1c1.9,1.5,3.8,2.8,5.8,4.1c-2.2-1.2-4.4-2.4-6.5-3.7
			C118.2,86.4,118.4,86.2,118.7,86.1z M117.3,86.9c0.4,0.5,0.9,0.9,1.4,1.3c-0.7-0.3-1.4-0.6-2-0.9c0,0,0,0-0.1,0
			C116.8,87.1,117.1,87,117.3,86.9z M116.1,87.5c0,0.1,0,0.2,0.1,0.3c1.1,1,2.3,1.9,3.5,2.9c-1.4-0.9-2.9-1.9-4.3-2.8
			C115.7,87.8,115.9,87.6,116.1,87.5z M114.7,88.2c1.2,1.1,2.5,2.2,3.8,3.2c-1.6-0.9-3.1-1.9-4.7-2.8
			C114.1,88.5,114.4,88.4,114.7,88.2z M113.1,89c1.9,1.7,3.9,3.3,5.9,4.8c-2.3-1.4-4.6-2.9-6.9-4.4C112.5,89.2,112.8,89.1,113.1,89z
			 M128.1,117.8c-3.8-3.1-7.6-6.2-11.3-9.4c3.9,2.9,7.6,6,11.3,9.1C128.1,117.6,128.1,117.7,128.1,117.8z M111.8,105.8
			c2.7,2.3,5.4,4.5,8.1,6.7c0.3,0.2,0.5,0.5,0.8,0.7c-3.8-3.1-7.7-6.1-11.5-9.2C110.1,104.6,110.9,105.2,111.8,105.8z M109.6,103.2
			c0.2,0.1,0.3,0.2,0.5,0.4c1,0.9,2,1.7,3.1,2.6c-0.3-0.2-0.5-0.4-0.8-0.6C111.5,104.8,110.6,104,109.6,103.2z M117.3,111.4
			c0.1,0.1,0.2,0.2,0.3,0.2c2.4,1.9,4.7,3.7,7.1,5.6c1,0.8,1.9,1.6,2.9,2.4c-1.8-0.6-3.5-2.2-5-3.3c-2-1.4-3.9-2.9-5.8-4.5
			c-2.4-2-4.8-4-7.1-6.1C112.2,107.6,114.8,109.5,117.3,111.4z M110.8,103.4c-0.9-0.8-1.9-1.6-2.8-2.4c3.8,1.9,7,5,10.3,7.6
			c4,3.1,7.9,6.3,11.9,9.4c0,0.1,0,0.2,0,0.3c-0.3-0.3-0.6-0.5-0.9-0.6C123.3,112.7,117.2,107.8,110.8,103.4z M118.3,107.3
			c3.9,3,7.8,5.9,11.6,8.9c0.1,0,0.1,0.1,0.2,0.1c0,0.3,0,0.6,0,1C126.2,113.9,122.3,110.6,118.3,107.3z M110.7,99.9
			c6.5,4.2,12.5,9.3,18.5,14.4c0.3,0.3,0.8-0.2,0.5-0.5c-0.9-0.8-1.7-1.7-2.6-2.5c1,0.6,2,1.1,3.1,1.4c0,0.9,0,1.8,0,2.7
			C123.6,110.3,117.2,105.1,110.7,99.9z M122.5,102.3c-5.1-3.5-10.2-6.9-15.6-9.8c0,0,0-0.1,0-0.1
			C112.2,95.5,117.5,98.6,122.5,102.3z M112.9,95.2c5,2.6,9.8,5.6,14.4,8.9c-3.2-1.6-6.2-3.7-9.1-5.6c-0.1-0.1-0.3-0.2-0.4-0.3
			C116.2,97.2,114.6,96.2,112.9,95.2C113,95.2,113,95.2,112.9,95.2z M109.3,94.9c-0.6-0.3-1.2-0.7-1.8-1c-0.4-0.2-0.7,0.4-0.3,0.6
			c1.7,1,3.3,2,4.9,3c3.2,2,6.3,4.2,9.3,6.5c-4.7-3.3-9.6-6.4-14.6-9.3c0-0.4,0-0.9,0-1.3C107.7,93.8,108.5,94.4,109.3,94.9z
			 M107.3,95.9c-0.2-0.1-0.3-0.2-0.5-0.3c0,0,0-0.1,0-0.1C107,95.7,107.2,95.8,107.3,95.9z M114.4,101.7c-2.5-1.7-5-3.4-7.6-4.9
			c0-0.1,0-0.2,0-0.4C109.4,98.1,112,99.9,114.4,101.7z M115.9,101.9c4.4,3,8.6,6.3,12.7,9.6c-1.5-0.8-2.9-1.8-4.3-2.9
			c-1.8-1.4-3.7-2.9-5.5-4.3c-0.5-0.4-1.1-0.9-1.6-1.3C116.8,102.6,116.3,102.2,115.9,101.9z M111,98c-0.3-0.2-0.6-0.5-0.9-0.7
			c6.7,4.1,13.2,8.5,19.4,13.4c0.3,0.3,0.8-0.2,0.5-0.5c-1.6-1.5-3.3-2.9-5-4.4c1.7,1.2,3.4,2.4,5.1,3.7c0,0,0,0,0,0
			c0,0.7,0,1.5,0,2.2C124,106.9,117.8,102.1,111,98z M122.7,103.2c2.3,1.6,4.5,3.2,6.8,4.8c0.3,0.2,0.7-0.3,0.4-0.5
			c-1.2-1.2-2.5-2.3-3.9-3.4c1.3,0.7,2.5,1.3,3.9,1.8c0.1,0,0.1,0,0.2,0l0,2.7c0,0,0,0.1,0,0.1C127.6,106.8,125.1,105,122.7,103.2z
			 M108.2,92.2C108.1,92.2,108.1,92.1,108.2,92.2c7.7,2.3,14.2,7.5,21.3,11.3c0.3,0.2,0.5-0.2,0.4-0.4c0,0,0.1,0,0.1,0l0,2.1
			C123.2,100.1,116,95.6,108.2,92.2z M117.7,95.1c-1.6-1.1-3.3-2.1-4.9-3.2c-0.1-0.1-0.2-0.1-0.3-0.2c3,1.9,6.1,3.7,9.1,5.5
			C120.4,96.5,119,95.8,117.7,95.1z M124,99.2c0.7,0.4,1.4,0.8,2,1.2c-0.4-0.2-0.8-0.4-1.2-0.6C124.6,99.5,124.3,99.4,124,99.2z
			 M130,102.4c-1.1-0.9-2.3-1.7-3.4-2.5c0.9,0.5,1.8,1,2.7,1.4c0.3,0.2,0.6-0.3,0.3-0.5c-2.4-1.3-4.7-2.6-7-3.9
			c-2.6-1.5-5-3.2-7.4-5c4.8,3,9.7,5.9,14.7,8.6c0.1,0,0.1,0,0.2,0C129.9,101.2,130,101.8,130,102.4z M111.5,89.6
			c0.8,0.8,1.6,1.5,2.5,2.2c-1.1-0.7-2.1-1.3-3.2-2C111.1,89.8,111.3,89.7,111.5,89.6z M111.3,91.7c-0.4-0.3-0.8-0.5-1.2-0.8
			C110.6,91.1,111,91.4,111.3,91.7z M108.8,90.7C108.8,90.7,108.8,90.7,108.8,90.7c1.6,1.1,3.2,2.1,4.9,3.1c-2.1-1-4.2-1.8-6.5-2.3
			c-0.1-0.1-0.2-0.1-0.3-0.2C107.5,91.1,108.1,90.9,108.8,90.7z M106.8,97.7c0.7,0.6,1.5,1.2,2.2,1.8c-0.6-0.4-1.1-0.9-1.7-1.3
			c-0.3-0.2-0.7,0.3-0.4,0.5c1.5,1.2,2.9,2.4,4.4,3.6c-1.4-1-2.9-1.9-4.5-2.5C106.8,99.1,106.8,98.4,106.8,97.7z M106.8,101.5
			c0.4,0.3,0.8,0.7,1.2,1c-0.4-0.2-0.8-0.5-1.2-0.7C106.8,101.7,106.8,101.6,106.8,101.5z M106.8,102.8c0.3,0.2,0.5,0.4,0.8,0.6
			c-0.2-0.1-0.5-0.3-0.8-0.4C106.8,102.9,106.8,102.8,106.8,102.8z M106.7,103.8c1.7,1.6,3.4,3.1,5.1,4.6c0.6,0.5,1.1,1,1.7,1.5
			c-2.2-1.7-4.4-3.3-6.8-4.7C106.7,104.7,106.7,104.3,106.7,103.8z M106.7,106.6c0-0.2,0-0.4,0-0.7c1.3,1.1,2.6,2.1,3.9,3.2
			c-1.3-0.9-2.6-1.7-3.9-2.4C106.7,106.7,106.7,106.6,106.7,106.6z M106.7,107.4c2.6,2.2,5.3,4.4,7.9,6.6l-0.1-0.1
			c-1.5-1.1-3-2.3-4.5-3.4c-1.1-0.8-2.1-1.6-3.3-2.1C106.7,108.1,106.7,107.7,106.7,107.4z M106.7,113.4c0-0.2,0-0.3,0-0.5
			c2,1.6,4.1,3.3,6.1,4.9C110.7,116.4,108.7,114.9,106.7,113.4z M115.1,119.9c-0.8-0.4-1.5-0.9-2.3-1.3c-1-0.6-1.9-1.3-2.8-2
			C111.7,117.7,113.4,118.8,115.1,119.9z M106.7,114.3c0.3,0.3,0.6,0.6,0.8,0.8c-0.2-0.1-0.4-0.3-0.6-0.4c-0.1-0.1-0.2-0.1-0.2,0
			C106.7,114.5,106.7,114.4,106.7,114.3z M106.7,110.5c0.8,0.7,1.5,1.5,2.3,2.2c-0.8-0.5-1.6-1.1-2.3-1.6
			C106.7,110.9,106.7,110.7,106.7,110.5z M106.7,112.2c0-0.1,0-0.3,0-0.4c1.7,1.3,3.3,2.7,5,4C110,114.6,108.4,113.4,106.7,112.2z
			 M106.7,109.7c0-0.1,0-0.2,0-0.3c4.4,3.1,8.6,6.4,12.7,9.9C115,116.3,110.8,113,106.7,109.7z M106.7,115.2
			c0.8,0.8,1.7,1.5,2.6,2.3c-0.9-0.5-1.7-1.1-2.6-1.7C106.7,115.6,106.7,115.4,106.7,115.2z M106.7,116.5c0.3,0.2,0.6,0.4,0.8,0.7
			c-0.3-0.2-0.6-0.4-0.8-0.5C106.7,116.6,106.7,116.6,106.7,116.5z M106.6,117.6c0.2,0.2,0.3,0.3,0.5,0.5c-0.2-0.1-0.3-0.2-0.5-0.3
			C106.6,117.7,106.6,117.6,106.6,117.6z M106.6,118.5c0.3,0.3,0.5,0.5,0.8,0.8c-0.3-0.2-0.5-0.3-0.8-0.5
			C106.6,118.6,106.6,118.6,106.6,118.5z M106.5,119.4c0.2,0.3,0.5,0.5,0.7,0.8c-0.3-0.2-0.5-0.3-0.8-0.5
			C106.5,119.6,106.5,119.5,106.5,119.4z M106.4,121.3c0-0.1,0-0.1,0-0.2c0.1,0.1,0.2,0.1,0.3,0.2
			C106.6,121.3,106.5,121.3,106.4,121.3z M107.5,121.2c-0.4-0.3-0.8-0.6-1.1-0.9c0,0,0,0,0,0c0.5,0.3,1,0.6,1.5,0.9
			C107.8,121.2,107.7,121.2,107.5,121.2z M108.7,121.1c-0.4-0.4-0.7-0.8-1.1-1.2c0.6,0.4,1.2,0.8,1.9,1.1
			C109.2,121.1,109,121.1,108.7,121.1z M110.4,121c-0.9-0.6-1.7-1.3-2.5-2c0.9,0.5,1.7,1,2.6,1.5c0.2,0.1,0.5,0.3,0.7,0.4
			C110.9,121,110.6,121,110.4,121z M111.7,120.9c0-0.1,0-0.2-0.1-0.3c-1.4-0.8-2.7-1.7-3.8-2.7c1.6,1,3.1,2,4.7,3
			C112.2,120.9,112,120.9,111.7,120.9z M113.1,120.9c0-0.1,0-0.2-0.1-0.3c-0.6-0.4-1.2-0.8-1.7-1.3c0.8,0.5,1.7,1,2.5,1.5
			C113.6,120.9,113.3,120.9,113.1,120.9z M114.9,120.8c-1.5-0.9-3-2-4.4-3.1c0.6,0.4,1.2,0.8,1.8,1.1c1,0.7,2.1,1.3,3.2,1.9
			C115.3,120.8,115.1,120.8,114.9,120.8z M116,120.8c0.1-0.1,0.1-0.2,0-0.3c0.1,0.1,0.3,0.2,0.4,0.3
			C116.3,120.8,116.2,120.8,116,120.8z M117.3,120.7c0-0.1,0-0.1-0.1-0.2c-1.2-1-2.5-2-3.7-2.9c1.5,1,2.9,2.1,4.4,3.1
			C117.7,120.7,117.5,120.7,117.3,120.7z M119,120.7c-0.1,0-0.2,0-0.3,0c0,0,0-0.1-0.1-0.1c-1.9-1.6-3.9-3.1-5.8-4.7
			c2.2,1.6,4.4,3.1,6.6,4.7c0,0,0.1,0,0.1,0C119.3,120.7,119.2,120.7,119,120.7z M119.6,120.6c0.2,0,0.3-0.4,0.1-0.5
			c-0.5-0.3-0.9-0.7-1.4-1c0.7,0.5,1.5,1,2.2,1.5C120.2,120.6,119.9,120.6,119.6,120.6z M121.6,120.6c-0.2-0.1-0.4-0.2-0.6-0.3
			c-1.9-1.7-3.7-3.3-5.7-4.9c2.3,1.7,4.6,3.5,6.9,5.2C122,120.6,121.8,120.6,121.6,120.6z M123.1,120.5c-4.7-4-9.4-7.9-14.2-11.9
			c2.4,1.5,4.6,3.3,6.8,5c2.9,2.3,5.8,4.6,8.8,6.9C124.1,120.5,123.6,120.5,123.1,120.5z M125.4,120.5c-5-4.1-10-8.2-15-12.2
			c2,1.4,4,3,5.9,4.5c3.2,2.6,6.4,5.1,9.7,7.7C125.8,120.5,125.6,120.5,125.4,120.5z M128.5,120.4c-0.6,0-1.1,0-1.7,0
			c0,0,0-0.1-0.1-0.1c-1.2-1-2.4-2-3.6-3c1.7,1.2,3.4,2.8,5.6,3c0,0,0,0,0.1,0c0,0,0,0,0,0C128.7,120.4,128.6,120.4,128.5,120.4z
			 M129.7,120.4C129.7,120.4,129.6,120.4,129.7,120.4c-0.5-0.4-0.9-0.7-1.3-1c0.4,0.3,0.9,0.6,1.3,0.9c0.3,0.2,0.6-0.2,0.3-0.4
			c-0.3-0.2-0.6-0.5-0.9-0.7c0.1-0.1,0.2-0.2,0.1-0.4c-0.1-0.2-0.2-0.3-0.2-0.5c0.4,0.3,0.8,0.6,1.2,1c0,0.4,0,0.8,0,1.3
			C130,120.4,129.8,120.4,129.7,120.4z M130.1,100c-4.8-2.9-9.6-5.8-14-9.3c4.8,2.9,9.5,5.8,14.3,8.6
			C130.3,99.6,130.2,99.8,130.1,100z M131,98.8c0,0-0.1,0.1-0.1,0.1c0,0,0,0,0,0c-4-2.4-7.9-4.9-11.6-7.7
			C123.1,93.7,127,96.2,131,98.8C131,98.7,131,98.8,131,98.8C131,98.8,131,98.8,131,98.8z M131.4,98.5c0-0.1,0-0.3-0.1-0.4
			c-0.5-0.3-1-0.6-1.5-0.9c0.6,0.3,1.3,0.7,1.9,1c0.3,0.1,0.5-0.3,0.3-0.4c-4.8-2.5-9.4-5.5-13.6-9c0.6,0.3,1.3,0.6,1.9,0.9
			c4.1,3.5,8.8,6.1,14,7.8C133.3,97.8,132.3,98,131.4,98.5z M122.9,90.9c3.2,1.6,6.3,3.3,9.3,5.1C128.8,94.7,125.7,93,122.9,90.9z
			 M135,97.1c0-0.1-0.1-0.1-0.1-0.2c-4.6-3-9.3-5.6-14.3-7.9c-0.4-0.3-0.7-0.6-1.1-1c5.4,3.1,10.9,5.9,16.5,8.6
			C135.6,96.9,135.3,97,135,97.1z M136.6,96.4C136.6,96.4,136.6,96.3,136.6,96.4c-4.9-2.6-9.7-5.2-14.2-8.3
			c4.9,2.7,9.8,5.4,14.6,8.1C136.9,96.2,136.8,96.3,136.6,96.4z M139.2,95c-0.5,0.3-1,0.6-1.5,0.8c0,0-0.1-0.1-0.1-0.1
			c-3.3-2.2-6.6-4.5-9.9-6.7c2.7,1.6,5.5,3.1,8.2,4.7c0.8,0.5,1.6,0.9,2.5,1.4c0.4,0.2,0.7-0.3,0.3-0.6c-4.1-2.3-8.1-4.8-11.9-7.5
			c4.3,2.4,8.7,4.8,13,7.2c0.4,0.2,0.7-0.4,0.3-0.6c-2.3-1.4-4.6-2.8-6.8-4.2c2.5,1.3,5,2.7,7.5,4c0.4,0.2,0.7-0.4,0.3-0.6
			c-3.4-1.9-6.8-3.8-10.1-5.9c3.6,2,7.3,4,10.9,6.1C141.1,93.8,140.2,94.4,139.2,95z M142.6,92.8C142.6,92.8,142.6,92.7,142.6,92.8
			c-3.2-2.2-6.3-4.3-9.4-6.3c3.3,1.9,6.5,3.8,9.8,5.7c0.4,0.2,0.7-0.4,0.3-0.6c-4-2.4-7.9-4.8-11.7-7.4c4.3,2.4,8.5,4.8,12.6,7.5
			C143.6,92,143.1,92.4,142.6,92.8z M144.8,91.1c-1.5-1.2-3.1-2.3-4.7-3.5c1.6,0.9,3.1,1.8,4.7,2.7c0.4,0.2,0.7-0.4,0.4-0.6
			c-4.7-3-9.4-6-14.2-9.1c5.4,2.5,10.3,5.8,15.2,9.1C145.8,90.2,145.3,90.7,144.8,91.1z M147,89.1c-0.1,0.1-0.2,0.2-0.3,0.2
			c-2.2-1.8-4.5-3.6-6.8-5.2c2.5,1.5,4.9,3.1,7.4,4.6C147.3,88.8,147.2,88.9,147,89.1z M147.9,88.2c-4.8-3.2-9.7-6.3-14.5-9.5
			c5.2,2.6,10.2,5.6,15,8.9C148.2,87.8,148.1,88,147.9,88.2z M148.9,87.1c-2-2-4.1-3.7-6.4-5.2c2.4,1.4,4.8,2.8,7.1,4.4
			C149.4,86.6,149.2,86.8,148.9,87.1z M150.1,85.7c-1.2-0.8-2.4-1.7-3.6-2.5c1.2,0.8,2.5,1.5,3.7,2.3
			C150.2,85.7,150.1,85.7,150.1,85.7z M150.7,85c-4-3.2-8.4-5.9-12.9-8.5c2.4,1.1,4.8,2.3,7,3.6c2.2,1.3,4.3,2.6,6.4,4c0,0,0,0,0,0
			C151.1,84.5,150.9,84.7,150.7,85z M151.7,83.6C151.7,83.6,151.7,83.5,151.7,83.6c-2-1.4-4-2.7-6.1-3.9c-4.5-2.7-9.1-5.2-13.9-7.4
			c0,0,0-0.1,0.1-0.1c0,0,0,0,0.1,0c6.7,3.4,13.4,6.7,20,10c0.4,0.2,0.7-0.3,0.3-0.6c-2.8-1.7-5.5-3.3-8.3-5c2.9,1.5,5.8,2.8,8.9,4
			c0.4,0.1,0.6-0.5,0.3-0.6c-3.9-1.7-7.7-3.5-11.5-5.4c-1.3-0.7-2.7-1.5-4-2.3c5.2,2.6,10.4,5.1,15.7,7.7c0.4,0.2,0.7-0.4,0.4-0.6
			c-3.4-2.2-6.8-4.4-10.4-6.4c3.8,1.8,7.7,3.6,11.5,5.4c0,0,0,0,0,0C153.9,80.3,152.8,82,151.7,83.6z M155.1,78
			c-0.4-0.2-0.9-0.5-1.3-0.7c0.2,0.1,0.5,0.2,0.7,0.4c0.4,0.2,0.7-0.4,0.3-0.6c-2-1-4.1-2.1-6.1-3.1c2.2,1,4.3,2,6.5,3
			c0.1,0.1,0.3,0,0.4,0C155.4,77.2,155.2,77.6,155.1,78z M155.7,76.5c0-0.1-0.1-0.2-0.2-0.2c-3.8-2-7.5-3.9-11.3-5.9
			c3.9,1.8,7.8,3.6,11.8,5.3C156,76,155.9,76.2,155.7,76.5z M156.3,75c-4.3-2.4-8.7-4.8-13-7.1c4.4,2,8.7,4,13.1,6
			c0.1,0.1,0.2,0,0.3,0C156.6,74.3,156.5,74.7,156.3,75z M156.9,73.4c0-0.1-0.1-0.1-0.1-0.1c-1-0.5-1.9-1-2.9-1.5c1,0.5,2,1,3,1.4
			c0,0,0.1,0,0.1,0C157,73.3,156.9,73.4,156.9,73.4z M157.2,72.6c-5.5-2.9-10.9-5.9-16.4-8.8c1.6,0.8,3.1,1.6,4.7,2.4
			c3.8,1.9,7.5,3.9,11.3,5.8c0.4,0.2,0.8-0.4,0.4-0.7c-4.1-2.6-8.3-5-12.6-7.3c4.5,2,8.9,4.3,13.2,6.7
			C157.6,71.4,157.4,72,157.2,72.6z M157.9,70c-0.3-0.2-0.6-0.4-0.9-0.6c0,0,0,0,0.1,0c0.3,0.2,0.7-0.2,0.5-0.5
			c0.1,0,0.1,0.1,0.2,0.1c0.1,0,0.2,0,0.3-0.1C158.1,69.3,158,69.7,157.9,70z M158.2,68.7c0-0.1-0.1-0.2-0.2-0.2
			c-1.1-0.4-2.3-0.9-3.4-1.3c-5.6-3.2-11.3-6.2-17.4-8.4c-0.1-0.1-0.2-0.1-0.3-0.2c2.2,0.8,4.4,1.7,6.6,2.6
			c4.9,2.4,9.9,4.7,14.9,6.7C158.3,68.2,158.2,68.4,158.2,68.7z M158.4,67.3c-4.7-2.3-9.5-4.5-14.4-6.5c-1.9-1-3.9-1.9-5.8-2.9
			c6.7,2.7,13.3,5.4,20,8.1c0.2,0.1,0.3,0,0.4-0.2C158.6,66.3,158.5,66.8,158.4,67.3z M158.5,65.4c-9.3-3.9-18.5-7.9-27.8-11.8
			c-0.7-0.4-1.5-0.7-2.3-1c-3.7-1.6-7.3-3.1-11-4.7c2.4,1,4.7,1.9,7.1,2.9c6.8,3,13.6,5.9,20.4,8.6c4.3,1.7,8.6,3.3,13,4.9
			c0.4,0.2,0.6-0.5,0.2-0.7c-2-0.8-4-1.6-5.9-2.4c2.2,0.6,4.4,1.1,6.6,1.4c0,1-0.1,2-0.2,3C158.6,65.5,158.6,65.4,158.5,65.4z"/>
		<path class="st2" d="M131.6,142.7c-1-5.9-6.2-10.3-12-11.2c0-0.1-0.1-0.1-0.2-0.1c-5.4-1.3-11.4,2-14.1,6.6
			c-0.1,0.1-0.1,0.2-0.2,0.3c0,0,0,0-0.1,0c-0.2-0.1-0.5,0.3-0.3,0.4c0,0,0,0,0.1,0.1c-2.4,5-1.7,11.3,2.1,15.5
			c4.2,4.7,11.4,5.3,16.9,2.7C129.1,154.5,132.6,148.6,131.6,142.7z M129.8,149.4c-6-4.3-12.2-8.3-18.5-12.1
			c6.6,3.1,12.3,7.8,18.9,11C130.1,148.7,130,149.1,129.8,149.4z M110,134.4c5.5,2.7,10.7,5.8,15.6,9.4c-1.9-1.2-3.8-2.4-5.8-3.6
			c-3.3-2-6.6-3.9-10.2-5.4c0,0,0,0,0,0v0c0,0,0,0-0.1,0c0,0-0.1,0-0.1,0C109.6,134.6,109.8,134.5,110,134.4z M127.4,137
			c0.1,0.1,0.3,0,0.4-0.1c0.3,0.3,0.6,0.7,0.8,1c-1.2-0.8-2.3-1.5-3.5-2.2C125.8,136.1,126.6,136.5,127.4,137z M129.3,139.1
			c0.1,0.2,0.2,0.4,0.3,0.7c-2.1-1.3-4.3-2.6-6.4-3.8c2,1,4,2,6,3.1C129.2,139.1,129.3,139.1,129.3,139.1z M130.7,142.8
			c-2.2-1.5-4.4-2.9-6.6-4.3c2.1,1.1,4.2,2.2,6.2,3.3c0.1,0,0.1,0,0.2,0C130.5,142.1,130.6,142.5,130.7,142.8z M130.5,147.4
			C130.5,147.4,130.5,147.4,130.5,147.4c0,0.1,0,0.2-0.1,0.3c-5.5-3.4-11-6.8-16.4-10.2c2,1.1,4,2.2,5.9,3.4
			C123.4,143.1,127,145.2,130.5,147.4z M130.6,146.8c-4.2-3.4-8.7-6.4-13.4-9.2c4.7,2.4,9.1,5.3,13.5,8.2
			C130.7,146.2,130.7,146.5,130.6,146.8z M126.2,142.1c1.4,0.9,2.9,1.7,4.3,2.6c0.1,0.1,0.2,0.1,0.3,0c0,0.2,0,0.3,0,0.5
			C129.3,144.1,127.7,143.1,126.2,142.1z M130.8,144.1c-3-2.1-6.1-4.1-9.2-6.1c3.1,1.7,6.2,3.6,9.2,5.5
			C130.8,143.8,130.8,144,130.8,144.1z M130.1,140.7C130.1,140.7,130.1,140.7,130.1,140.7c0,0.1,0.1,0.2,0.1,0.2c0,0,0,0.1,0,0.1
			c-1.5-0.9-3-1.8-4.5-2.7C127.1,139.2,128.6,139.9,130.1,140.7z M114.8,132.5c2,1.2,4,2.4,6,3.6c-2.2-1.2-4.4-2.4-6.7-3.5
			c0.2-0.1,0.4-0.1,0.6-0.2C114.7,132.4,114.7,132.5,114.8,132.5z M113.5,132.9c1.7,0.9,3.3,1.9,4.9,2.8c-1.9-1-3.8-1.9-5.8-2.8
			c0.2-0.1,0.5-0.2,0.7-0.2C113.4,132.8,113.5,132.9,113.5,132.9z M112.2,133.4c2.5,1.3,5,2.7,7.4,4.2c-2.6-1.5-5.2-2.9-7.8-4.2
			c0.1,0,0.2-0.1,0.3-0.1C112.1,133.3,112.2,133.3,112.2,133.4z M111.5,133.9c1.2,0.6,2.3,1.3,3.4,2c-1.4-0.7-2.8-1.3-4.3-1.8
			c0.2-0.1,0.5-0.3,0.7-0.4C111.3,133.7,111.3,133.8,111.5,133.9z M109.3,135.3c0.9,0.6,1.9,1.2,2.8,1.8c-1.2-0.6-2.4-1.1-3.7-1.6
			c0.2-0.2,0.5-0.4,0.7-0.6C109.2,135,109.2,135.2,109.3,135.3z M118.5,131.9c0.1,0.2,0.2,0.3,0.4,0.3c0.8,0.1,1.5,0.2,2.3,0.4
			c0,0.1,0,0.2,0.2,0.3c0.8,0.5,1.6,0.9,2.4,1.4c-1.8-0.9-3.7-1.7-5.7-2.4c-0.3-0.1-0.5,0.4-0.2,0.6c1.4,0.7,2.8,1.4,4.2,2.1
			c-2-0.9-4-1.8-6.1-2.6C116.8,132,117.6,131.9,118.5,131.9z M107.9,136c2.1,1.2,4.2,2.5,6.3,3.8c-2.2-1.2-4.5-2.2-6.9-3.1
			C107.5,136.5,107.7,136.2,107.9,136z M107,137.1C107,137.2,107,137.2,107,137.1c2.4,1.2,4.7,2.5,6.9,3.8c-2.3-1.3-4.8-2.4-7.4-3.2
			C106.6,137.6,106.8,137.4,107,137.1z M106.1,138.3c0.8,0.5,1.7,1,2.5,1.5c-0.9-0.4-1.8-0.8-2.7-1.2
			C106,138.5,106.1,138.4,106.1,138.3z M111.2,142c-1.5-0.8-3.1-1.5-4.5-2.5c2.4,1,4.6,2.3,6.8,3.7C112.8,142.8,112,142.4,111.2,142
			z M113.7,144.4c-0.6-0.4-1.2-0.8-1.8-1.1c-0.4-0.3-0.8-0.5-1.3-0.8C111.6,143.1,112.7,143.8,113.7,144.4z M105.4,139.9
			c0.5,0.3,0.9,0.6,1.4,0.9c-0.5-0.2-1-0.4-1.5-0.6C105.3,140.1,105.3,140,105.4,139.9z M105,140.8c2.4,1.6,4.8,3.2,7.2,4.8
			c-2.4-1.5-4.9-3-7.3-4.5C105,141,105,140.9,105,140.8z M104.8,141.6c1.5,1,3,1.9,4.5,2.9c-1.5-0.8-3.1-1.6-4.6-2.3
			C104.7,142,104.8,141.8,104.8,141.6z M104.6,142.7c1.3,0.8,2.5,1.6,3.8,2.5c-1.3-0.7-2.5-1.4-3.8-2.1
			C104.5,143,104.5,142.8,104.6,142.7z M104.4,143.7c2.9,2.1,5.8,4.1,8.8,6c-2.9-1.7-5.9-3.4-8.8-5.1
			C104.4,144.3,104.4,144,104.4,143.7z M104.4,145.5c3.5,2.3,7,4.6,10.4,7c-3.4-2-6.7-4-10.1-6c-0.1-0.1-0.2,0-0.3,0
			C104.4,146.2,104.4,145.8,104.4,145.5z M104.5,146.9c1.4,1,2.7,2,4.1,3c-1.3-0.8-2.7-1.5-4-2.3
			C104.6,147.3,104.5,147.1,104.5,146.9z M104.8,148.2c1.6,1.1,3.3,2.1,5,3.2c-1.5-1-3.1-1.9-4.8-2.6
			C104.9,148.6,104.8,148.4,104.8,148.2z M117.9,156.2c-2.9-1.3-5.4-3.2-8.1-4.9C112.4,153,115.1,154.7,117.9,156.2z M112.5,153.7
			c-1.3-0.8-2.5-1.6-3.8-2.4C110,152,111.3,152.8,112.5,153.7z M105.1,149.4c2.9,1.9,5.8,3.7,8.8,5.6c-1.9-1.1-3.7-2.2-5.6-3.4
			C107.2,150.9,106.2,150.2,105.1,149.4C105.1,149.4,105.1,149.4,105.1,149.4z M106.3,152c-0.1-0.1-0.1-0.2-0.2-0.3
			c0.2,0.2,0.5,0.4,0.7,0.6C106.7,152.2,106.5,152.1,106.3,152z M105.6,150.6c-0.1-0.2-0.2-0.4-0.2-0.5c1,0.7,2.1,1.4,3.1,2.1
			c1.8,1.2,3.6,2.4,5.4,3.7C111.1,154.3,108.3,152.5,105.6,150.6z M107.2,153.2c-0.1-0.1-0.2-0.2-0.2-0.3c1.3,1,2.6,2,3.9,3
			C109.6,155.1,108.4,154.2,107.2,153.2z M108.9,155c-0.3-0.3-0.6-0.5-0.9-0.8c1.2,0.9,2.4,1.8,3.7,2.5
			C110.7,156.2,109.8,155.7,108.9,155z M112.9,157.1C112.9,157,112.9,157,112.9,157.1c-1.9-1.4-3.7-2.7-5.4-4.1
			c0.2,0.1,0.4,0.2,0.6,0.3c2,1.7,4.2,3.2,6.7,4.2C114.2,157.4,113.5,157.3,112.9,157.1z M110.3,154.7c1.1,0.7,2.2,1.3,3.3,2
			C112.5,156.1,111.4,155.4,110.3,154.7z M115.6,157.6c0,0,0-0.1-0.1-0.1c-2.3-1.4-4.6-2.7-6.9-4.1c-0.5-0.4-1-0.8-1.5-1.3
			c3,2,6.2,3.9,9.4,5.6C116.2,157.6,115.9,157.6,115.6,157.6z M117,157.6c0-0.1,0-0.1-0.1-0.2c-0.8-0.5-1.5-1-2.3-1.6
			c1,0.6,2.1,1.2,3.2,1.7C117.6,157.6,117.3,157.6,117,157.6z M118.6,157.6c-1.7-1.1-3.4-2.2-5.1-3.3c1.9,1.2,3.9,2.4,6.1,3.1
			C119.3,157.5,118.9,157.5,118.6,157.6z M121.1,157.1c-4.2-2.5-8.5-5-12.5-7.8c4.3,2.6,8.6,5.1,12.9,7.7
			C121.4,157,121.2,157,121.1,157.1z M122,156.8C122,156.7,122,156.7,122,156.8c-3.1-2.1-6.1-4.1-9.1-6.1c3.2,2,6.5,3.9,9.7,5.9
			C122.4,156.6,122.2,156.7,122,156.8z M123.1,156.3C123.1,156.3,123.1,156.3,123.1,156.3c-2.5-1.6-5.1-3.2-7.6-4.8
			c2.6,1.5,5.3,3.1,7.9,4.6C123.3,156.2,123.2,156.3,123.1,156.3z M123.9,155.9c-5.4-3.4-10.8-6.7-16-10.4c4.6,2.7,9.2,5.4,13.7,8.3
			c0.9,0.6,1.8,1.2,2.7,1.8c0,0,0,0,0,0C124.2,155.8,124.1,155.8,123.9,155.9z M125.1,155.2c-0.1,0.1-0.3,0.2-0.4,0.2
			c0-0.1,0-0.2-0.1-0.3c-1.3-0.8-2.5-1.7-3.8-2.5c-4.4-2.8-8.7-5.7-13.1-8.5c2.8,1.4,5.5,3,8.1,4.7c3.2,2.1,6.1,4.5,9.7,6.1
			C125.4,155.1,125.2,155.1,125.1,155.2z M126.5,154.2c-6.3-4.2-12.6-8.3-19-12.5c1.2,0.5,2.4,1.1,3.5,1.8c1.6,1,3.2,2,4.8,3.1
			c3.6,2.5,7.2,5.2,11.2,7.2C126.8,153.9,126.6,154,126.5,154.2z M116,145.2c2.9,1.7,5.7,3.7,8.3,5.8c-3.2-2-6.2-4.3-9.4-6.4
			C115.3,144.8,115.7,145,116,145.2z M115.5,143.9c3.4,2.1,6.7,4.2,9.8,6.6C122,148.5,118.8,146.1,115.5,143.9z M127.6,153
			C127.6,153,127.6,153,127.6,153c-0.7-0.6-1.4-1.2-2-1.7c0.8,0.5,1.6,0.9,2.4,1.3C127.9,152.7,127.8,152.8,127.6,153z M128.4,152
			c-6-4.8-12.5-8.8-19.2-12.6c7.1,2.9,13.1,7.9,19.8,11.6C128.8,151.4,128.6,151.7,128.4,152z M129.3,150.5
			c-5.3-3.9-10.7-7.5-16.4-10.7c5.8,2.9,11.1,6.5,16.4,10.2c0.1,0.1,0.2,0.1,0.3,0C129.5,150.2,129.4,150.3,129.3,150.5z"/>
	</g>
	<path class="st3" d="M211.7,90.4c-1.5-9.1-10.2-15.2-19.2-14.6c-0.3,0-0.4,0.2-0.5,0.4c0,0-0.1,0-0.1,0c-8.2-1-14.9,5.5-17.3,12.8
		c-1.3,3.9-2.1,8.7-0.8,12.7c1.2,3.6,4,6.7,7,8.9c6.3,4.5,14.7,5.4,21.5,1.5c3.5-2,5.9-5.1,7.5-8.7
		C211.3,99.2,212.4,94.7,211.7,90.4z M209.6,100.1c-1.1,3.5-2.8,6.9-5.7,9.3c-5.6,4.6-13.5,5.1-19.8,1.8c-3.1-1.6-6-4.1-7.9-7.1
		c-2.3-3.6-2.2-8-1.3-12.1c0.9-4,2.8-7.7,5.6-10.4c0,0.3,0,0.6,0,0.9c0,0.3,0.4,0.3,0.4,0c0-0.4,0.1-0.9,0-1.4
		c0.6-0.5,1.2-1,1.8-1.5c-0.1,0.4,0,0.9,0.1,1.3c0.1,0.3,0.5,0.2,0.5-0.1c0-0.6,0-1.1,0.1-1.6c0.5-0.3,1.1-0.6,1.6-0.9
		c-0.2,0.5-0.3,1.1-0.1,1.6c0.1,0.3,0.5,0.2,0.5-0.1c0-0.3,0-0.6,0-0.9c0-0.3,0.1-0.6,0.3-0.9c0.6-0.2,1.2-0.4,1.8-0.6
		c0,0.1-0.1,0.3-0.1,0.4c-0.1,0.4-0.2,0.8,0,1.1c0.1,0.1,0.3,0.2,0.4,0c0.2-0.3,0.1-0.6,0.1-1c0-0.2,0.1-0.5,0.1-0.7
		c0.5-0.1,1-0.2,1.6-0.3c-0.1,0.4-0.2,0.9-0.1,1.3c0,0.2,0.3,0.2,0.4,0.1c0.2-0.4,0.2-0.9,0.3-1.4c0.5,0,1.1-0.1,1.6,0
		c0,0.4-0.1,0.9,0.1,1.2c0.1,0.2,0.4,0.2,0.5,0c0.2-0.4,0.1-0.9,0.1-1.4c0,0,0.1,0,0.1,0c0.7,0,1.3,0,2,0c-0.1,0.5,0,1.1,0.4,1.5
		c0.2,0.2,0.5,0,0.4-0.2c-0.1-0.4-0.3-0.8-0.3-1.2c0.7,0.1,1.4,0.2,2,0.3c0,0.6,0.1,1.2,0.2,1.8c0.1,0.3,0.6,0.2,0.6-0.1
		c0-0.5-0.1-1.1-0.2-1.7c0.6,0.1,1.3,0.3,1.9,0.5c0,0.3,0.1,0.5,0.1,0.7c0,0.3,0,0.6,0.2,0.9c0.1,0.2,0.4,0.2,0.5-0.1
		c0.1-0.3,0-0.6-0.1-0.9c0-0.1-0.1-0.3-0.1-0.5c0.7,0.3,1.5,0.6,2.1,1c0,0.6,0.1,1.2,0.3,1.7c0.1,0.3,0.5,0.2,0.5-0.1
		c0-0.4,0-0.9-0.1-1.3c0.6,0.4,1.2,0.8,1.8,1.2c0,0.5-0.1,1.1,0,1.5c0.1,0.2,0.4,0.2,0.5,0c0.1-0.3,0.1-0.7,0.1-1
		c2.1,1.8,3.8,4.2,4.8,7.1C211.2,92.2,210.8,96.3,209.6,100.1z"/>
	<path class="st3" d="M216.4,219.5c-0.9-2.7-5.4-0.4-6.5,1.1c0,0,0,0,0,0c-1.2-17.1-2.7-34.7-7.6-51.2c-0.7-2.5-2.3-6.9-5.6-6.8
		c-3,0.2-5,3.2-6.1,5.6c-1.5,3.5-2.5,7.3-3.5,10.9c-1,4.1-1.8,8.2-2.4,12.3c-1.2,8.9-1.4,17.9-0.1,26.8c-1-0.6-2.4-0.8-3.5-0.4
		c-1.1,0.3-2.7,1.2-2.6,2.5c0.1,1.4,1.6,1.8,2.8,1.6c1.7-0.2,3.2-1.2,4-2.7c0.1-0.2,0.1-0.4,0-0.5c-1.1-15.3-0.1-30.5,4.6-45.2
		c1-3,1.9-6.7,4.5-8.8c0.6-0.5,1.3-1,2.1-1.1c1.5-0.2,2.4,0.9,3.2,2c1,1.6,1.5,3.6,2,5.4c2,7.5,3.4,15.1,4.4,22.8
		c1.2,8.9,2,17.9,2.7,27c0,0.6,0.7,0.7,1,0.4c1.4,0.7,3.1,1,4.6,0.7C215.6,221.8,216.9,220.9,216.4,219.5z M182.4,220.6
		c-0.5,0.2-1,0.3-1.5,0.3c-0.9,0-1.2-1-0.4-1.6c1.2-0.9,2.7-0.8,4-0.4C183.9,219.7,183.2,220.3,182.4,220.6z M214.3,221
		c-0.5,0.1-1,0.2-1.4,0.2c-0.6,0-1.2-0.1-1.8-0.2c1.1-0.8,2.5-2,3.9-1.5C215.9,219.9,215,220.9,214.3,221z"/>
	<path class="st3" d="M189.1,123.6c-2,6.8-6.2,12.8-12.6,16c-3.4,1.7-7.4,2.5-11.2,1.9c-1.9-0.3-3.8-1-5.4-2.1
		c-1.8-1.3-2.7-2.9-3.8-4.7c-0.2-0.3-0.8-0.2-0.8,0.2c0.5,3.8,4.8,6.6,8.2,7.6c4.1,1.1,8.5,0.6,12.3-1.1c7-3,12.9-9.8,14-17.5
		C189.9,123.3,189.2,123.1,189.1,123.6z"/>
	<path class="st3" d="M157.9,131.7c-0.2-1.8-2.2-2.9-3.8-2.6c-1.7,0.3-3.1,2.1-2.7,3.9c0.4,1.5,2.4,2.9,3.8,2c0,0,0.1,0,0.1-0.1
		C156.8,134.7,158.1,133.2,157.9,131.7z M155.2,134c-0.1,0-0.1,0-0.2,0c-1,0.1-2,0-2.4-1c-0.5-1.1,0.4-2.5,1.5-2.8
		c1.1-0.3,2.4,0.3,2.8,1.4C157.2,132.7,156.3,133.8,155.2,134z"/>
	<path class="st3" d="M210.5,94.4c0.1-0.3,0.1-0.7,0.1-1.1c0,0.1,0,0.3-0.1,0.4V94.4z"/>
	<path class="st3" d="M184.6,93.8c-0.3-0.7-0.3-1.4-0.1-2.1c0.2-0.5-0.7-0.9-0.9-0.4c-0.4,0.9-0.5,1.8-0.2,2.8
		C183.6,95,184.9,94.6,184.6,93.8z"/>
	<path class="st3" d="M203.8,91.9c0.2-0.3-0.2-0.5-0.4-0.4c0.1-0.1-0.2,0-0.3,0c-0.2,0.1-0.3,0.2-0.4,0.3c-0.2,0.2-0.4,0.5-0.4,0.8
		c-0.2,0.7-0.1,1.5,0.4,2c0.1,0.2,0.4,0.2,0.6,0.2c0.1,0,0.2-0.1,0.3-0.2c0.2-0.2,0.2-0.5,0.1-0.7c-0.2-0.4-0.3-0.7-0.2-1.2
		c0-0.2,0.1-0.4,0.2-0.6c0-0.1,0.1-0.1,0.1-0.2C203.8,91.9,203.8,91.9,203.8,91.9C203.8,91.7,203.8,91.8,203.8,91.9z"/>
	<path class="st3" d="M193.7,100c-0.4-0.2-0.6,0-1,0c-0.3,0-0.7,0-1-0.2c-0.4-0.3-0.5-1.2,0.1-1.4c0.5-0.2,0.3-0.9-0.2-0.8
		c-1.1,0.2-1.5,1.7-0.9,2.5c0.3,0.5,1,0.8,1.6,0.9c0.6,0.1,1.4,0,1.6-0.6C193.9,100.3,193.9,100,193.7,100z"/>
	<path class="st3" d="M201.7,102.3c-0.8,0.8-1.4,1.8-2.4,2.5c-1.1,0.9-2.4,1.5-3.8,1.9c-3,0.8-6,0.3-8.9-0.5
		c-0.4-0.1-0.7,0.5-0.3,0.7c3,1.5,6.6,1.9,9.8,1c2.4-0.7,5.6-2.5,6.5-5.1C202.7,102.3,202,102,201.7,102.3z"/>
	<path class="st3" d="M199.5,144.4c0.1-1.5-0.4-3.1-0.8-4.5c-1.8-6.6-2.5-13.3-2.3-20.1c0-0.1,0-0.2-0.1-0.3
		c0.1-0.1,0.2-0.2,0.2-0.4c0.2-0.5,0.1-1.1,0.1-1.6c0.1-0.7,0.1-1.5,0.2-2.2c0-0.3-0.2-0.5-0.5-0.5c-1.2,0.1-2.5,0-3.7,0.2
		c-0.2,0-0.3,0.2-0.3,0.3c-0.3-0.1-0.6,0.1-0.6,0.4c-0.1,0.9-0.2,2.4,0.4,3.2c0.2,0.3,0.6,0.6,1.1,0.7c-1.4,6.2-2.4,12.5-3.5,18.7
		c-0.5,3.1-0.2,6.3,0.6,9.4c0.2,0.7,1.8,9.1,3.1,8.9c0.1,0,0.2-0.1,0.3-0.2c0.6-0.5,1.7-2,1.8-2.8c-0.1,2.1-0.1,6.3,0.3,8.3
		c0.2,0.8,1.4,0.5,1.2-0.3c-0.4-2.5-0.4-7.1-0.6-9.6c0.6-1.2,1.2-2.4,1.7-3.7c0.5-1.3,1.3-2.6,1.5-4
		C199.5,144.5,199.5,144.4,199.5,144.4z M192.9,118.3c-0.3-0.6-0.2-1.7-0.2-2.4c0,0,0.1,0,0.1,0c1,0.1,2,0,3.1-0.1
		c-0.1,0.7-0.1,1.4-0.2,2c0,0.1,0,0.8-0.1,1c-0.2,0.2-0.8,0.2-1,0.2C194,119.1,193.2,118.9,192.9,118.3z M193.8,154.8
		c-0.6-2.4-1.9-4.6-2.6-7c-0.7-2.5-1.1-5.1-0.7-7.7c0.3-1.8,0.6-3.5,0.9-5.3c0.7-3.9,1.5-7.8,2.1-11.7c0-0.2,0.6-3,0.4-3
		c0.2,0,0.5,0.1,0.7,0.1c0.2,0,0.5,0,0.8-0.1c-0.3,6,0.3,12.1,1.7,18c0.3,1.2,0.7,2.3,0.9,3.4c0.8,3.4-0.9,7-2.4,10
		C195.1,152.5,194.4,153.6,193.8,154.8z"/>
	<path class="st3" d="M232.1,110.8c-1.3-0.7-3-0.1-4.1,0.8c-1.1,0.9-1.1,3-0.8,4.3c0.2,0.8,0.9,1.3,1.6,1.6c1.4,0.7,3,0.1,3.8-1.1
		c5.6,7.3,1.5,19.7-7.3,22.3c-9.5,2.8-19-6.7-23.6-13.9c-0.5-0.8-1.1-1.8-2-2.2c-0.3-0.1-0.7-0.2-0.8,0.1c-0.1,0.2,0,0.3,0.1,0.5
		c1.4,3.2,3.7,6,6.1,8.5c2.4,2.5,5,5,8.1,6.6c1.9,1,4.5,2.2,6.6,2c0,0,0,0,0,0c0,0,0,0,0,0c8.4,1.2,15.2-5.7,16.2-13.7
		c0.6-4-0.4-8.1-3-11.3C234,113.7,233.8,111.7,232.1,110.8z M232.6,114.7c-0.3-0.1-0.5,0.1-0.6,0.4c-0.3,1.3-1.6,2-2.8,1.3
		c-1.2-0.7-1.4-2.3-0.7-3.4c0.6-1,2.1-1.7,3.2-1.1C232.7,112.4,232.9,113.6,232.6,114.7z"/>
	<path class="st3" d="M63.7,96.9c0.2-0.7,0.2-1.4,0-2.1c-0.2-0.5,0.6-1,0.9-0.4c0.5,0.9,0.6,1.8,0.4,2.8
		C64.8,97.9,63.5,97.6,63.7,96.9z"/>
	<path class="st3" d="M44.4,96.1c-0.2-0.3,0.1-0.5,0.4-0.4c-0.1,0,0.2,0,0.3,0c0.2,0.1,0.3,0.2,0.4,0.3c0.2,0.2,0.4,0.5,0.5,0.8
		c0.2,0.7,0.2,1.5-0.3,2c-0.1,0.2-0.4,0.3-0.6,0.2c-0.1,0-0.2-0.1-0.3-0.1c-0.2-0.2-0.2-0.5-0.1-0.7c0.2-0.4,0.2-0.8,0.1-1.2
		c-0.1-0.2-0.1-0.4-0.2-0.6c0-0.1-0.1-0.1-0.1-0.2C44.4,96.2,44.4,96.1,44.4,96.1C44.4,96,44.4,96,44.4,96.1z"/>
	<path class="st3" d="M55,103.5c0.4-0.2,0.6,0,1,0c0.3,0,0.7-0.1,1-0.3c0.4-0.4,0.4-1.2-0.2-1.3c-0.5-0.1-0.3-0.9,0.2-0.8
		c1.1,0.2,1.6,1.6,1.1,2.5c-0.3,0.6-0.9,0.9-1.5,1c-0.6,0.1-1.4,0.1-1.6-0.5C54.8,103.9,54.8,103.6,55,103.5z"/>
	<path class="st3" d="M47.2,106.4c0.9,0.8,1.5,1.7,2.5,2.4c1.2,0.8,2.5,1.4,3.9,1.7c3.1,0.7,6-0.1,8.9-1.1c0.4-0.1,0.7,0.4,0.3,0.7
		c-2.9,1.7-6.4,2.3-9.7,1.6c-2.5-0.6-5.8-2.2-6.8-4.7C46.1,106.5,46.8,106.1,47.2,106.4z"/>
	<path class="st3" d="M88.3,134.6c-2.6,4.7-8,7.6-13.4,7.2c-5.1-0.4-9.5-3.4-13.1-7c-2.9-2.8-5.4-6.2-6.2-10.2
		c-0.3-1.5-0.4-3.3-1.7-4.2c-0.5-0.4-1.2-1.1-0.7-1.4c5.9,0.7,11.8-2.5,15.2-7.4c3.4-4.9,4.3-11.2,3.3-17c-0.8-4.7-3.1-9.5-7.1-12.1
		c-2.2-1.4-4.8-2.1-7.4-2.3c-10-0.7-19.8,7.3-21.1,17.2s6.2,20.1,16.1,21.8c-1.1,0.9-2,2.1-2.6,3.4c-0.7,1.5-0.9,3.2-1.5,4.8
		c-3.5,10.6-19.9,15.1-27.5,6.4c-4.5-5.2-4.4-13.9,0.2-19c1,0.7,2.3,1,3.5,0.6c0.6,2.2,3.2,3.7,5.4,3.1c0.6,1.4,1.2,2.8,2.2,4
		c1,1.2,2.4,2.1,3.9,2.1c-2.2-1.7-4.1-3.9-5.6-6.4c1-0.4,2-0.9,3-1.3c0.4,2.3,1.6,4.5,3.2,6.2c0.5,0.5,1.4,1,1.9,0.5
		c-2.1-1.9-3.5-4.4-4.2-7.2c1.8-0.2,3.3-2.1,3-3.9c1.7,2.6,4,4.8,6.6,6.4c0.2-1-0.7-1.8-1.4-2.5c-4.1-3.5-7.4-8.3-8-13.6
		c-0.6-4.8,1.1-9.6,2.7-14.1c-3.7,5.1-4.8,11.9-3,17.9c-0.9-2.7-3.5-4.9-3.5-7.8c0-1.1,0.4-2.1,0.8-3.1c2.6-6.4,6.7-12.6,13.1-15.3
		c3.7-1.5,7.7-1.8,11.7-1.8c0-0.6-0.8-0.9-1.4-0.9C49,77,43,79.1,38.5,83s-7.5,9.2-9,14.9c-1-0.8-1.3-2.2-1.2-3.4s0.8-2.4,1.5-3.4
		c2.9-4.8,6.6-9.2,11.4-12s10.9-3.9,16.1-1.9c-1.1-1.4-2.9-2-4.7-2.2c-4.4-0.5-8.8,1.2-12.6,3.6c-5.7,3.7-10.3,9.1-12.9,15.3
		c-0.8-1.1-2.5-0.5-3.7,0.1c-2.5,1.3-5,2.7-7.5,4c-0.6,0.3-1.3,0.7-1.4,1.4c-0.1,0.5,0.1,1,0.4,1.5c1.6,3.1,3.4,6.1,5.5,9
		c-1.3,0.9-1.3,3.1,0,4c-4.2,4.2-5.5,11.1-3.3,16.6c2.3,5.5,7.8,8.8,13.7,9.1c6.8,0.4,13-3.5,17.2-8.7
		c-5.9,20.6-11.9,41.2-17.8,61.8c-0.1,0.3-0.2,0.6,0,0.9c0.1,0.3,0.5,0.5,0.9,0.6c2.8,1,5.6,2,8.4,3c-0.9,7.5-1.4,15-1.4,22.5
		c-1.8-0.9-4.5-1.6-5.5,0.2c-0.8,1.4,0.6,3.3,2.1,3.4c1.6,0.1,3.1-1,3.8-2.5s0.8-3.1,0.9-4.7c0.4-6.2,0.8-12.4,1.2-18.6
		c6.2,1.8,12.7,2.3,19.1,1.7c0.1,4.8,0.3,9.6,0.4,14.5c0,1.8,0.1,3.6,1.1,5.1s3.1,2.3,4.5,1.3c1.3-1,1.1-3.4-0.4-4.1
		c-1.5-0.7-3.5,0.7-3.4,2.3c-0.3-6.4-0.7-12.8-1-19.3c3.6-0.7,7.1-2.1,10.2-4.1c-8.5-20.7-11.6-43.3-14.6-65.5
		c2.6,3.9,5.6,7.6,9.5,10.2c3.9,2.6,8.7,4.1,13.3,3.2c4.6-0.9,8.8-4.4,9.6-9C88.6,134.2,88.5,134.4,88.3,134.6z M18.1,104.2
		c-0.6-1-1.3-2-1.7-3.1c-0.1-0.2-0.2-0.3-0.3-0.5c-0.4-0.9-0.2-1.4,0.6-1.6c0.4-0.4,1.1-0.6,1.5-0.8c2-1.1,4-2.5,6.1-3.4
		c2.1-0.9,2.4,0.3,3.2,1.8c0.6,1.1,1.2,2.2,1.7,3.3c1.1,2.1,2.2,4.2,3.3,6.4c1.1,2,2.3,4,3.2,6.1c0.4,0.9,0.7,1.9-0.2,2.4
		c-0.4,0.2-0.9,0.4-1.4,0.6c-1.1,0.5-2.2,1-3.4,1.4c-1,0.4-2.5,1.3-3.5,0.7c-0.8-0.5-1.4-1.7-1.9-2.7c0.2-0.2,0.4-0.5,0.6-0.8
		c0.1,0.1,0.2,0.1,0.4,0c2.3-0.8,5-2.2,6.3-4.4c0.1-0.1,0-0.3-0.1-0.3c-0.6-1.9-1.8-3.7-2.7-5.5c-1-2-2.1-4-3.2-5.9c0,0,0,0,0,0
		c0-0.2-0.3-0.4-0.6-0.3c-1.3,0.7-2.6,1.5-3.9,2.3c-1.1,0.6-2.5,1.1-3.4,2c0,0,0,0,0,0c-0.2,0.1-0.3,0.3-0.2,0.6
		c1.1,2.4,2.4,4.7,4.1,6.8c-0.1,0-0.2,0-0.3,0c-0.2,0-0.6,0.1-0.9,0.2C20.4,107.7,19.1,106,18.1,104.2z M26.3,112.2
		c-0.2-1.7-1.6-2.8-3.2-3c-1.4-2.3-2.8-4.7-4-7.1c1.1-0.2,2.2-0.9,3.1-1.4c1.3-0.7,2.7-1.4,3.9-2.3c0.8,1.9,1.8,3.7,2.7,5.5
		c0.9,1.8,1.8,3.9,3,5.6c-0.8,0.6-1.6,1.3-2.4,1.8c-1,0.7-2.1,1.2-3.2,1.6C26.3,112.8,26.3,112.5,26.3,112.2z M25.1,113.1
		c-0.4,1.1-1.6,1.8-2.7,1.4c-1.1-0.3-1.7-1.4-2-2.5c0-0.1-0.1-0.2-0.2-0.2C20.5,109.5,26.1,110,25.1,113.1z M33.6,221.7
		c-0.8-0.5-0.7-1.4,0.2-1.8c0.5-0.2,1.1-0.1,1.5,0c0.9,0.2,1.8,0.5,2.6,1c0,0,0,0,0.1,0c0,0.1,0,0.1,0.1,0.1
		C36.9,221.9,35,222.5,33.6,221.7z M63.6,217.5c0.6-0.4,2.6-0.6,2.4,0.8c-0.1,0.9-1.7,1.1-2.3,1c-0.6,0-1.1-0.2-1.6-0.5
		C62.6,218.5,63,217.9,63.6,217.5z M42.8,113.4c-5-4.9-6.8-12.3-4.6-18.9c2.6-7.6,10.9-14.9,19.3-12.4c0.3,0.1,0.5-0.1,0.6-0.3
		c8,0.4,12.6,8.4,12.9,15.7c0.4,7-2.3,14.8-8.7,18.4C56.2,119.5,48,118.4,42.8,113.4z M56.4,140.5c1,6.4,2,12.8,3.2,19.1
		c2.2,11.7,4.3,24,9.8,34.7c-2.7,1.7-5.7,2.8-8.8,3.4c0-0.1,0-0.1,0-0.2c-0.1,0.1-0.2,0.1-0.2,0.2c-3.1,0.6-6.3,0.6-9.5,0.4
		c-6.9-0.6-13.3-3.2-19.9-5.1c3.9-11.7,7.5-23.5,10.8-35.4c1.7-6,3.3-12,4.9-18c1.5-6,3.4-12.1,4.4-18.2c0,0,0-0.1,0-0.1
		c0.8,0,1.5,0.1,2.2,0.2c0.2,0,0.6,0.1,0.9,0C54.5,127.9,55.5,134.2,56.4,140.5z"/>
	<path class="st3" d="M93.3,127.6c-1.5-0.6-3.3,0-4.1,1.3c-1.6,1-0.6,3.3,0.8,4.1c1.6,0.9,4,0.7,4.8-1.2
		C95.5,130.3,94.9,128.3,93.3,127.6z M93.9,130.8c-0.5,3.2-5.1,1.1-4.6-0.8c0.2,0.1,0.4,0,0.6-0.2C91,127.7,94.4,128.2,93.9,130.8z"
		/>
	<path class="st3" d="M22.2,96.7c-0.9,0.4-1.7,1-2.4,1.7c-0.4,0.4,0.2,0.9,0.6,0.6c0.7-0.6,1.5-1,2.3-1.4
		C23.4,97.4,22.8,96.4,22.2,96.7z"/>
	<path class="st3" d="M32.2,112.6c-0.6-0.4-1.6-0.1-1.8,0.6c-0.1,0-0.3,0.1-0.4,0.2c-0.4,0.3-0.4,0.9-0.2,1.3c0.5,1,1.8,1.1,2.6,0.3
		C32.9,114.4,33,113.1,32.2,112.6z M31.8,114.2c-0.2,0.3-0.6,0.5-0.9,0.3c-0.2-0.1-0.3-0.3-0.3-0.4c0,0,0-0.2,0-0.3
		c0.2,0.1,0.5,0.1,0.6-0.2c0.1-0.2,0.3-0.5,0.6-0.3C32,113.5,31.9,114,31.8,114.2z"/>
	<path class="st3" d="M76.9,95.5c-0.8-5-2.6-10.1-6.4-13.6c-3.3-3-8.3-4.9-12.7-3.4c-0.4,0.1-0.3,0.7,0.2,0.7
		c4.8-0.8,9.4,0.9,12.7,4.5c3.2,3.6,4.7,8.4,5.2,13.1c1.1,9.2-1.2,19.4-9.9,24c-0.8,0.4-0.1,1.5,0.7,1.1
		C76.3,117.2,78.3,105.2,76.9,95.5z"/>
	<path class="st3" d="M74.2,97.7c0-0.3-0.5-0.3-0.5,0c-0.1,5.1,0.1,10.3-2.7,14.8c-1.2,1.9-2.8,3.5-4.6,4.8
		c-1.8,1.3-3.8,2.1-5.7,3.2c-0.5,0.3-0.2,1.1,0.4,0.9c4.2-1.1,8.4-4.6,10.7-8.2C74.9,108.6,74.8,103,74.2,97.7z"/>
	<path class="st3" d="M80.2,92.9c-1.1-5.1-3.4-10.4-7.3-14c-3.6-3.3-8.9-5-13.5-2.9c-0.4,0.2-0.1,0.8,0.3,0.7
		c11.4-3.8,18.3,9.2,19.8,18.5c1.6,9.7-0.8,19.8-6.7,27.7c-0.4,0.6,0.6,1.2,1,0.6C80.2,114.7,82.5,103.4,80.2,92.9z"/>
	<g>
		<path class="st2" d="M228.7,114.1C228.7,114.1,228.7,114,228.7,114.1c0.1-0.1,0.1-0.1,0.2-0.1c0.2-0.1,0.5-0.3,0.8-0.5
			c0.3-0.2,0.6-0.4,0.7-0.5c0.3-0.2,0.5-0.4,0.8-0.7c0.1-0.1,0.4-0.4,0.6-0.7c0.1-0.1,0.2-0.3,0.3-0.5c0.1-0.2,0.1-0.3,0.1-0.4
			c0,0,0.1-0.3,0-0.6c0-0.6-0.4-1.3-0.4-1.3c-0.1-0.2-0.2-0.7-0.6-1.7c-0.5-1.7-0.8-3.4-0.3-5.2c0.5-1.8,1.7-3.3,3-4.6
			c1.1-1.1,2.5-2.1,3.6-3.3c0.8-1,1.5-2.2,2.3-3.3c0.4-0.7,0.6-1,0.8-1.5c0.1-0.2,0.2-0.6,0.5-1.4c0.2-0.6,0.3-0.8,0.4-1.2
			c0.1-0.3,0.1-0.6,0.1-0.8c0.3,0.4,0.7,1.1,1.1,2c0.3,0.7,0.4,1.3,0.7,2.3c0.2,0.6,0.4,1.5,0.5,2.7c0.1,0.9,0.3,1.8,0.3,3.2
			c0,0.7,0,1.7-0.3,2.9c-0.1,0.6-0.3,1.6-0.8,2.7c-0.5,1-1,1.7-1.5,2.4c-0.8,1.2-1.9,2.2-3.1,3c-0.9,0.7-1.8,1.2-2.8,1.8
			c-0.8,0.4-1.7,0.7-2.4,1.2c-0.6,0.5-0.8,1.2-1.3,1.8c-0.5,0.6-1,1-1.5,1.5c-0.3,0.3-0.6,0.6-1,0.7
			C229.4,114.3,228.5,114.5,228.7,114.1z"/>
		<g class="st4">
			<g>
				<g>
					<g>
						<g>
							<path class="st5" d="M233,111c0,0,0,0.1,0.1,0.1C233.1,111.1,233,111,233,111z"/>
							<polygon class="st5" points="233.3,110.4 233.3,110.4 233.3,110.3 							"/>
							<path class="st5" d="M233.7,110c-0.2-0.1-0.1,0.2-0.3,0.2l0,0l0.1,0.1C233.6,110.2,233.6,110,233.7,110z"/>
							<path class="st5" d="M234.2,110C234.2,109.9,234.3,109.9,234.2,110C234.2,110,234.2,110,234.2,110
								C234.2,110,234.2,110,234.2,110z"/>
							<path class="st5" d="M234.2,110C234.2,110.1,234.3,110,234.2,110L234.2,110z"/>
							<path class="st5" d="M234.4,109.8l0,0.1c0,0,0.1,0,0.1,0C234.5,109.8,234.5,109.8,234.4,109.8z"/>
							<path class="st5" d="M234.3,109.6L234.3,109.6C234.3,109.7,234.4,109.7,234.3,109.6z"/>
							<path class="st5" d="M234.3,109.8l0-0.1C234.3,109.7,234.3,109.6,234.3,109.8C234.3,109.7,234.3,109.7,234.3,109.8z"/>
							<path class="st5" d="M234.2,109.8c-0.1,0-0.1,0-0.1-0.1C234,109.9,234.1,109.9,234.2,109.8z"/>
							<path class="st5" d="M233.6,109.8L233.6,109.8L233.6,109.8C233.5,109.9,233.7,109.8,233.6,109.8z"/>
							<path class="st5" d="M234.8,109.4c0,0-0.1,0-0.1-0.1l0,0.1C234.7,109.4,234.8,109.4,234.8,109.4z"/>
							<path class="st5" d="M234.7,109.4l0-0.1C234.6,109.3,234.6,109.3,234.7,109.4z"/>
							<polygon class="st5" points="234.2,109.5 234.2,109.7 234.2,109.4 							"/>
							<polygon class="st5" points="235.1,109.1 235.1,109.2 235.1,109.1 							"/>
							<path class="st5" d="M235.2,109c0,0.1,0.1,0,0.1,0.1c0-0.1,0-0.1,0-0.2C235.4,108.9,235.3,108.9,235.2,109z"/>
							<path class="st5" d="M235.4,108.7c0,0,0,0.1,0,0.1C235.4,108.8,235.4,108.8,235.4,108.7z"/>
							<path class="st5" d="M234.8,109.1c0,0,0.1,0,0.1,0L234.8,109.1L234.8,109.1z"/>
							<path class="st5" d="M234.8,109.1L234.8,109.1C234.9,109.1,234.9,109,234.8,109.1C234.9,109,234.9,109.1,234.8,109.1z"/>
							<path class="st5" d="M234.8,109.1L234.8,109.1C234.8,109.1,234.8,109.1,234.8,109.1z"/>
							<path class="st5" d="M234.4,109.3c0-0.1,0-0.2-0.1-0.2C234.4,109.2,234.4,109.2,234.4,109.3z"/>
							<path class="st5" d="M234.7,109.1L234.7,109.1c-0.1,0.1,0,0.1,0,0.1L234.7,109.1z"/>
							<polygon class="st5" points="234.7,109 234.7,109.1 234.7,109.1 							"/>
							<path class="st5" d="M235.2,108.8c0-0.1,0-0.1,0.1-0.1C235.2,108.7,235.1,108.7,235.2,108.8
								C235.1,108.8,235.1,108.8,235.2,108.8z"/>
							<path class="st5" d="M235,108.9L235,108.9C235,108.9,235,108.9,235,108.9z"/>
							<polygon class="st5" points="235.6,108.2 235.6,108.2 235.6,108.2 							"/>
							<path class="st5" d="M235.1,108.7C235,108.8,235,108.8,235.1,108.7C235,108.8,235.1,108.8,235.1,108.7
								C235.1,108.7,235.1,108.7,235.1,108.7z"/>
							<path class="st5" d="M235.4,108.6C235.4,108.6,235.4,108.6,235.4,108.6C235.4,108.6,235.4,108.6,235.4,108.6z"/>
							<path class="st5" d="M235,108.9L235,108.9C235.1,108.9,235.1,108.9,235,108.9z"/>
							<path class="st5" d="M235,108.9C235,108.9,235,108.9,235,108.9C235,108.9,235,108.9,235,108.9C235,108.9,235,108.9,235,108.9
								z"/>
							<path class="st5" d="M235.2,107.7c0.1,0.1,0.1,0.2-0.1,0.2c0,0.1,0.3,0.3,0.5,0.3c0,0-0.1-0.1,0-0.2c-0.1,0-0.2,0.1-0.3,0
								c0-0.1,0.1-0.1,0.2-0.1C235.3,107.9,235.4,107.7,235.2,107.7L235.2,107.7C235.2,107.7,235.2,107.6,235.2,107.7z"/>
							<path class="st5" d="M235.4,108.4L235.4,108.4c0,0,0.1,0,0.2,0c0-0.1,0-0.1,0-0.1L235.4,108.4L235.4,108.4z"/>
							<path class="st5" d="M235.3,108.5c-0.1-0.1,0-0.2-0.2-0.2c-0.1,0.1,0,0.1,0,0.2C235.2,108.4,235.1,108.6,235.3,108.5
								C235.3,108.6,235.2,108.6,235.3,108.5C235.3,108.6,235.3,108.6,235.3,108.5L235.3,108.5L235.3,108.5L235.3,108.5
								C235.3,108.6,235.3,108.6,235.3,108.5L235.3,108.5C235.3,108.6,235.3,108.6,235.3,108.5C235.3,108.5,235.3,108.6,235.3,108.5
								L235.3,108.5L235.3,108.5l0.1-0.1C235.4,108.4,235.3,108.5,235.3,108.5z"/>
							<path class="st5" d="M234.2,108.9C234.2,108.9,234.2,108.9,234.2,108.9C234.2,108.9,234.2,108.9,234.2,108.9z"/>
							<path class="st5" d="M234.3,108.9C234.3,108.9,234.4,109,234.3,108.9C234.3,109,234.3,109,234.3,108.9
								c-0.1,0.1-0.1,0.2,0,0.1l0,0c0.1,0,0.3,0,0.3,0C234.5,109,234.4,108.9,234.3,108.9z"/>
							<path class="st5" d="M234.8,108.7l0.1-0.2l-0.1,0l0,0C234.7,108.6,234.8,108.7,234.8,108.7z"/>
							<polygon class="st5" points="235.6,108.2 235.7,108.3 235.6,108.2 							"/>
							<polygon class="st5" points="235.8,108.1 235.8,108.1 235.8,108.1 							"/>
							<path class="st5" d="M240.7,97.3L240.7,97.3C240.7,97.3,240.7,97.3,240.7,97.3z"/>
							<path class="st5" d="M240.6,97.6L240.6,97.6C240.6,97.6,240.6,97.6,240.6,97.6z"/>
							<path class="st5" d="M238.9,103.8c0.1,0,0.3,0,0.2-0.1L238.9,103.8C238.9,103.8,238.9,103.8,238.9,103.8z"/>
							<path class="st5" d="M240.1,100.4L240.1,100.4C240.1,100.4,240.1,100.4,240.1,100.4C240.1,100.4,240.1,100.4,240.1,100.4z"/>
							<path class="st5" d="M239.7,100.1l0.1-0.1C239.8,100.1,239.8,100.1,239.7,100.1z"/>
							<path class="st5" d="M240.9,95.5l-0.1-0.1C240.8,95.5,240.8,95.5,240.9,95.5z"/>
							<path class="st5" d="M237.1,106.3c0.1,0,0.1-0.1,0.1-0.1C237.1,106.3,237,106.3,237.1,106.3z"/>
							<path class="st5" d="M241.8,97.7C241.7,97.7,241.7,97.6,241.8,97.7C241.7,97.7,241.7,97.7,241.8,97.7z"/>
							<path class="st5" d="M237.3,106.1C237.3,106.1,237.3,106.1,237.3,106.1c-0.1,0.1-0.1,0.1-0.1,0.1
								C237.3,106.2,237.4,106.2,237.3,106.1z"/>
							<path class="st5" d="M241.3,88.7L241.3,88.7C241.3,88.7,241.3,88.7,241.3,88.7z"/>
							<path class="st5" d="M242.2,86.6C242.2,86.7,242.2,86.7,242.2,86.6C242.2,86.7,242.2,86.7,242.2,86.6z"/>
							<path class="st5" d="M236.3,107.4C236.3,107.5,236.3,107.4,236.3,107.4L236.3,107.4z"/>
							<path class="st5" d="M235.9,107.3C235.9,107.3,235.9,107.3,235.9,107.3C235.9,107.3,235.9,107.3,235.9,107.3z"/>
							<path class="st5" d="M237.1,105.3L237.1,105.3C237,105.3,237,105.3,237.1,105.3z"/>
							<path class="st5" d="M236.3,107.5C236.3,107.4,236.3,107.4,236.3,107.5C236.3,107.4,236.3,107.4,236.3,107.5z"/>
							<path class="st5" d="M236.3,107.5C236.3,107.5,236.3,107.5,236.3,107.5C236.3,107.5,236.3,107.5,236.3,107.5z"/>
							<path class="st5" d="M236.4,107.4C236.4,107.4,236.3,107.4,236.4,107.4C236.3,107.4,236.3,107.4,236.4,107.4
								C236.3,107.4,236.4,107.4,236.4,107.4z"/>
							<path class="st5" d="M241.5,92.3C241.5,92.3,241.5,92.3,241.5,92.3C241.5,92.3,241.5,92.3,241.5,92.3z"/>
							<polygon class="st5" points="238.5,102.2 238.5,102.2 238.6,102.2 							"/>
							<path class="st5" d="M238.6,102.1c0.1,0.1,0,0.2,0,0.2l0.3,0.1L238.6,102.1z"/>
							<path class="st5" d="M240.8,96.5l-0.1,0.1c-0.1-0.2-0.1-0.2-0.2-0.2c0.3,0.1,0,0.4,0.3,0.5l-0.1,0.1c0,0,0,0,0,0
								c-0.2,0.1,0.2,0.2,0.1,0.3c0,0.1-0.1,0.1-0.1,0l0,0.2c0,0-0.1,0-0.1,0l0,0.2l0,0c0,0,0.1,0.1,0.1,0.2c-0.1,0,0,0-0.1,0l0,0.1
								c-0.1,0-0.2-0.1-0.1-0.2c-0.4,0,0.1,0.1-0.2,0.3l0-0.1c-0.2,0-0.2,0.1-0.3,0.2c0.1,0,0.4-0.1,0.4,0c0,0-0.1,0.1,0,0.2
								c-0.1,0-0.1,0-0.1,0.1l-0.1-0.1c0,0.1,0.1,0.1,0.1,0.2c-0.1,0.1-0.2,0.1-0.3,0.1c-0.1,0.1,0.2,0,0.2,0.2
								c-0.1,0.1-0.1,0.2-0.1,0.4c-0.1,0.1-0.1-0.1-0.1,0l0.1,0.1c0,0,0,0-0.1,0c0,0.1,0.1,0.1,0.1,0.2c0.1,0.1-0.3,0.1-0.2,0.3
								c-0.1,0-0.1-0.1-0.1-0.1c0,0.2,0,0.2,0.1,0.4l-0.2,0.1c0.2,0,0.2,0.1,0.3,0.3c0.1,0,0.1,0,0.2,0l0,0.2c0,0-0.1,0-0.1-0.1l0,0
								c-0.1,0-0.1,0-0.2-0.1l0.1,0c-0.1-0.1-0.1-0.2-0.2-0.2c0,0,0,0,0,0.1c0,0,0,0-0.1,0c0,0,0,0,0,0.1l-0.2,0l0.1,0l-0.2,0.2
								c0.1,0.2,0.3,0.5,0.2,0.8c-0.1-0.1-0.2-0.1-0.3-0.2c0.2,0,0-0.2,0.1-0.3c0,0.1-0.1,0-0.1,0l0,0.3c-0.1-0.1-0.1,0-0.2,0
								c0.2,0.1,0.1,0.2,0.1,0.4c-0.1,0-0.1-0.1-0.1-0.2c-0.2,0,0.2,0.3,0,0.3c0,0,0,0,0-0.1c0,0.1-0.1,0.2-0.1,0.1l0,0
								c-0.1,0.2-0.3,0.5-0.1,0.7c0,0-0.2-0.2-0.2-0.2l0.4,0.7c-0.1-0.1-0.6-0.2-0.6-0.4c0,0-0.1,0.1-0.1,0.2c0,0,0.3,0.1,0.3,0.1
								c-0.2,0-0.1,0-0.4,0c0.1,0,0.3,0.2,0.2,0.2c0,0-0.2-0.1-0.3-0.2l0.1,0.3c0-0.1-0.2-0.1-0.3-0.1c0.1,0-0.1,0.1-0.1,0.2l0.1,0
								c-0.1,0.2,0.2,0.4,0.1,0.6c0-0.1-0.3-0.2-0.4-0.2c0.1,0.1,0.5,0.6,0.4,0.8l-0.1,0l0,0.2c-0.1-0.2-0.4-0.7-0.4-0.9
								c-0.1,0-0.1,0-0.2,0.1c-0.1,0-0.1-0.1,0-0.2l-0.2,0.2c0.1,0.1,0,0.3,0.1,0.3l0-0.3c0.1,0.1,0.3,0.4,0.2,0.6
								c-0.1,0-0.2-0.2-0.3-0.2c0,0.1,0,0.2-0.1,0.2l0-0.1c-0.1,0.1,0.1,0.3-0.1,0.3c0,0-0.3,0-0.2,0.1c0.2,0,0.7,0.4,0.8,0.5
								c0,0-0.3,0.1-0.4,0.1c-0.2,0-0.2-0.3-0.4-0.3c0,0,0.1,0.1,0.1,0.1c-0.1,0-0.1-0.1-0.1,0c0.1,0.1-0.1,0.2,0.1,0.1
								c0,0.1-0.1,0.1-0.2,0.2c0.1,0,0.2,0.3,0.2,0.4c0,0-0.1,0-0.1-0.1c-0.1,0.2-0.3,0.2-0.4,0.4c0,0-0.1,0-0.2,0c0,0,0,0.1,0,0.1
								c-0.2,0,0.1-0.1-0.1-0.2c0.1,0.1,0,0.2,0,0.3c0.1,0.1,0.1-0.1,0.1-0.2c0.2,0.1,0.3,0.4,0.2,0.6c-0.1,0.2-0.2,0-0.1,0
								c-0.2,0.2,0.1,0.4-0.1,0.5c-0.2,0-0.2-0.2-0.3-0.2c0-0.1,0.2-0.1,0.2-0.2l-0.1,0c0-0.1,0-0.2,0.1-0.2c-0.1,0-0.3,0.4-0.6,0.5
								c0,0.1,0,0.1,0.1,0.2l0-0.1c0.1,0,0,0.2,0.1,0.2c0,0.1,0,0.3-0.1,0.4l-0.1-0.1c0,0,0.1,0,0.1-0.1c0,0.1-0.3,0-0.2,0.2l0.1,0
								c0,0.1,0,0.3-0.1,0.4c0.2,0.1,0,0,0.2,0c-0.2-0.1,0.2-0.2,0-0.3c0.2,0.1,0.2-0.1,0.4-0.1c0,0-0.1,0,0-0.1c0,0,0,0,0,0l0,0
								l0,0c0,0,0,0,0,0c0,0-0.1,0-0.1,0c-0.1-0.1,0.1-0.2,0-0.3c0.1,0,0,0.1,0.1,0.1l0-0.1c0.1,0.1,0.3,0,0.2,0.1l0.1-0.1
								c0.1,0,0.2-0.1,0.2-0.2c0.1,0,0-0.2,0-0.1l0.1-0.2l0,0c0.1-0.2,0.1-0.4,0.4-0.5c0-0.1,0-0.2,0.1-0.2l0.1,0
								c0-0.1,0.2-0.2,0.2-0.3c0.3,0.1,0.3-0.3,0.4-0.4l-0.1-0.1c0.1-0.1,0.1-0.2,0.1-0.3l-0.1-0.1c0-0.1,0.2-0.2,0.3-0.4
								c0,0,0,0.1,0,0.1c0.3,0,0.1-0.5,0.4-0.6c0-0.1,0-0.1,0.1-0.1l0,0l0,0c0,0,0.1,0,0.1,0c0,0-0.1,0-0.1,0c0,0,0-0.1,0-0.2l0.1,0
								c0,0,0,0,0,0c0.1,0,0-0.1-0.1-0.1c0,0,0-0.1,0-0.1c0.2,0.1,0-0.2,0.2-0.1c-0.1-0.1,0.1-0.3-0.1-0.4c0,0,0,0,0,0
								c0.1,0,0.1-0.1,0.1-0.2l0.1,0.1l-0.1-0.2c0.1,0,0.2,0,0.2,0.1c-0.1-0.3,0-0.2,0-0.4l0.1,0.1c0-0.1,0-0.2,0.1-0.2
								c0.2,0,0.4-0.6,0.7-0.8c-0.3-0.1,0.2-0.1,0-0.2c0.1,0,0.1,0,0.2,0.1c0-0.2,0.2-0.2,0.1-0.4c0.1,0,0.1,0.1,0.1,0.1
								c0,0,0-0.1,0-0.1c0,0,0,0,0.1,0.1c0.1-0.2-0.1-0.3-0.3-0.4c0.1,0,0.1-0.1,0-0.2c0.1,0,0.2,0,0.1,0.1c0-0.1,0.3-0.3,0.1-0.4
								c0,0,0-0.1,0-0.1c0.1-0.1,0.1-0.1,0.1-0.3l0,0c-0.2-0.1,0-0.1,0-0.2l0,0c0.2-0.2,0-0.1,0.2-0.3l-0.1,0
								c-0.2-0.1,0.2-0.2,0.2-0.3l-0.1,0c-0.1-0.1,0.4-0.1,0.5-0.2c0,0,0,0,0,0.1c0.2-0.2-0.1-0.1-0.1-0.2c0.1,0,0.2,0.1,0.2,0
								c0.1,0-0.2-0.4,0-0.5c-0.1,0-0.1,0-0.2-0.1c0-0.1,0.3-0.2,0.1-0.4c0,0,0,0,0.1,0c0-0.1,0-0.3-0.1-0.4c0.4,0-0.1-0.6,0.3-0.5
								l0-0.3l0,0c0.1-0.2,0-0.2-0.1-0.3c0,0,0.1,0,0.1,0c0.1-0.2,0.1-0.3-0.1-0.5l0.1,0c-0.1-0.1,0.2-0.3,0.1-0.6c0,0,0,0,0.1,0
								c-0.1-0.3,0.4-0.6,0-0.8l-0.1-0.2c-0.1,0.2-0.2,0-0.3,0c0-0.1,0.2-0.2,0.2-0.1l0,0c0.2,0.1,0.1-0.3,0.3-0.3
								c0-0.5,0.2-0.9,0.2-1.3l-0.2,0l0-0.1c0,0,0.1,0,0.1,0.1c0.1,0-0.1-0.2-0.1-0.2c0.1-0.2,0.2,0.1,0.2,0l0-0.1l0,0
								c-0.1-0.1-0.1-0.1-0.1-0.2c0-0.1,0.1,0,0.1-0.1c0,0,0,0,0,0l0-0.2l-0.2,0.1c-0.1-0.1,0-0.2-0.1-0.1c0.3-0.1,0.1-0.7,0.2-0.8
								c-0.1-0.1-0.1-0.2-0.1-0.4c0,0-0.2,0-0.2-0.1c0.3,0.1,0.2-0.2,0.4-0.3c-0.2,0.1,0-0.4-0.3-0.2c0-0.1,0.1,0,0.2-0.1
								c-0.1-0.3,0.1-0.6,0-0.9c0,0-0.1,0.1-0.2,0l0.2-0.2c0-0.1-0.3,0-0.1-0.2c0,0-0.1,0-0.1,0c0.2-0.6-0.3-1.2,0-1.9
								c-0.1,0.1-0.1,0-0.1,0c0,0-0.1,0-0.2,0l0.1-0.3c-0.2,0-0.1-0.3-0.2-0.3l0,0.1c-0.2-0.1-0.4,0.2-0.6,0.2
								c0.2,0.1-0.3,0.4,0.1,0.5c0,0-0.1,0-0.1,0c0.1,0,0.1,0.1,0.1,0.2l0,0c0.1,0.3,0,0.4-0.1,0.8l0.1,0c0,0.1,0,0.1-0.1,0.1
								c0.2,0.1,0-0.2,0.2-0.1c-0.2,0.1,0,0.5-0.2,0.6c0,0.1,0.1,0,0.1,0.1l-0.1,0l0.1,0c0,0.1-0.1,0.1-0.2,0.1c0,0,0,0,0-0.1
								c-0.1,0.1,0,0.3,0,0.3l0-0.1c0.1,0.3,0,0.7,0.1,1l0.1,0c0.1,0.2-0.1,0.2,0,0.4l0,0c0.1,0.1,0.1,0.1,0.1,0.2
								c-0.1-0.1-0.1,0.1-0.2,0c0.1,0.3,0.1,0.1,0.3,0.3l-0.1,0c0.1,0.1,0.1,0.1,0.1,0.2c-0.1-0.1-0.1,0.1-0.2-0.1
								c-0.2,0.2,0.2,0.4-0.1,0.5c0.2,0.1,0.2-0.2,0.2-0.1c0.1-0.1,0.2,0.1,0.2,0.2c0,0.1-0.3,0.1-0.4,0.3c0,0,0,0,0,0
								c-0.1,0.1,0.1,0.2,0,0.3c0.1,0.1,0,0.1,0.2,0.2l0-0.2c0,0.1,0.3,0.2,0.1,0.4c0,0-0.1-0.1-0.1-0.1c-0.1,0,0,0.1,0,0.2
								c-0.2,0,0-0.2-0.2-0.4c-0.1,0.1,0.1,0.2-0.1,0.2c0.3,0.1-0.1,0.2,0.1,0.4l-0.1,0c0,0,0.1,0.1,0.1,0.1l-0.1-0.1
								c0.1,0.1-0.1,0.2-0.1,0.3c0-0.2,0.1,0,0.2-0.1c0.1,0.3-0.3,0.1-0.3,0.5c0,0,0.1-0.2,0.1-0.1c0,0.1-0.1,0.1-0.1,0.2
								c0,0.2,0.1,0,0.2,0.1c-0.1,0.1,0.1,0.1,0.1,0.2l-0.1,0c-0.1,0.2,0.2,0.1,0.1,0.3l-0.2-0.1l0,0.1l-0.1,0
								c0.1,0.1,0.1,0.2,0,0.3c0.1,0,0.2,0,0.2,0.1c-0.1,0.1-0.1-0.1-0.1,0.1c-0.1,0-0.2-0.1,0-0.1c0,0-0.1,0-0.1,0
								c-0.1,0.1,0,0.2,0,0.3c0,0,0,0,0-0.1l0.1,0.2c0,0-0.1,0-0.1,0c0,0,0.1,0.1,0.1,0.1c-0.1,0-0.2,0-0.2-0.1L241,95
								c0,0-0.1,0.1-0.2,0.1c-0.1,0.1,0.2,0.3,0.1,0.4c0,0,0,0,0,0.1c0,0.1-0.2,0.2-0.1,0.4l-0.2,0.1c0,0.1,0.2-0.1,0.3,0.1
								c0,0.2-0.2,0-0.2,0.1c0.1,0.1,0.2,0.3,0.1,0.4C240.8,96.6,240.8,96.5,240.8,96.5z M240.5,98.1c0,0-0.1-0.1,0-0.1
								C240.6,98,240.6,98,240.5,98.1z M239.8,100.5C239.8,100.5,239.8,100.4,239.8,100.5C239.8,100.4,239.8,100.5,239.8,100.5z
								 M236.6,107L236.6,107C236.7,106.9,236.6,107,236.6,107z M236.4,107.1C236.4,107.1,236.5,107.1,236.4,107.1
								C236.5,107.1,236.5,107,236.4,107.1C236.5,107,236.4,107,236.4,107.1z M242.3,91.9L242.3,91.9
								C242.3,91.9,242.3,91.9,242.3,91.9z"/>
							<path class="st5" d="M239.8,100.2C239.8,100.2,239.8,100.2,239.8,100.2C239.8,100.2,239.8,100.2,239.8,100.2z"/>
							<polygon class="st5" points="240.9,95.5 240.9,95.5 240.9,95.5 							"/>
							<path class="st5" d="M237,104.6C237.1,104.6,237.1,104.6,237,104.6C237.1,104.5,237.1,104.5,237,104.6z"/>
							<path class="st5" d="M236.1,107.8L236.1,107.8C236.1,107.8,236.1,107.8,236.1,107.8C236.1,107.8,236.1,107.8,236.1,107.8z"/>
							<path class="st5" d="M235,108C235,108,235,108,235,108L235,108C235,108,235,108,235,108z"/>
							<path class="st5" d="M235.7,107.6c-0.1-0.1-0.1,0-0.1,0.1l0,0C235.7,107.8,235.7,107.7,235.7,107.6z"/>
							<path class="st5" d="M235.6,107.7C235.6,107.8,235.6,107.8,235.6,107.7C235.6,107.8,235.6,107.8,235.6,107.7z"/>
							<path class="st5" d="M236.4,107.3C236.3,107.3,236.5,107.4,236.4,107.3C236.5,107.5,236.4,107.1,236.4,107.3z"/>
							<polygon class="st5" points="235.4,107.5 235.5,107.5 235.5,107.4 							"/>
							<path class="st5" d="M235.8,107.1L235.8,107.1c-0.1,0.1-0.1,0.1-0.1,0.1C235.8,107.2,235.9,107.1,235.8,107.1z"/>
							<path class="st5" d="M235.8,107.2C235.7,107.3,235.7,107.3,235.8,107.2C235.7,107.3,235.8,107.3,235.8,107.2z"/>
							<polygon class="st5" points="235.5,107.3 235.5,107.3 235.6,107.3 							"/>
							<path class="st5" d="M236.6,106.2l0-0.1C236.6,106.1,236.6,106.1,236.6,106.2C236.5,106.2,236.5,106.2,236.6,106.2z"/>
							<path class="st5" d="M236.1,106.3c0,0,0.1,0,0.1,0L236.1,106.3L236.1,106.3z"/>
							<path class="st5" d="M236.3,106C236.2,106,236.3,105.8,236.3,106C236.2,105.9,236.2,106.1,236.3,106z"/>
							<polygon class="st5" points="237.5,104.7 237.5,104.7 237.7,104.8 							"/>
							<path class="st5" d="M237.8,103c-0.1,0.1,0.1,0.1,0,0.2c0,0.1,0.1-0.1,0.1,0C238,103.1,238,103.1,237.8,103z"/>
							<path class="st5" d="M238,103.2C238,103.2,238,103.2,238,103.2C238,103.2,238,103.2,238,103.2z"/>
							<polygon class="st5" points="242.3,86.3 242.3,86.2 242.2,86.3 							"/>
							<path class="st5" d="M242.1,86.1l0.2,0L242.1,86.1C242.1,86.1,242.1,86.1,242.1,86.1z"/>
							<path class="st5" d="M240.1,98.2L240.1,98.2c0.1,0,0.1,0,0.1,0L240.1,98.2z"/>
							<polygon class="st5" points="240.5,97.1 240.5,97.2 240.7,97.2 							"/>
							<path class="st5" d="M240.5,96.2c0,0,0,0.1,0,0.1C240.5,96.2,240.7,96.2,240.5,96.2z"/>
						</g>
					</g>
				</g>
			</g>
		</g>
	</g>
	<g>
		<path class="st2" d="M27.3,110.4C27.3,110.4,27.3,110.4,27.3,110.4C27.3,110.3,27.3,110.3,27.3,110.4c0-0.1,0-0.2,0.1-0.3
			c0-0.1,0-0.2,0-0.3c0-0.1,0-0.2,0-0.3c0-0.1,0-0.2,0-0.3c0,0,0-0.1,0-0.2c0-0.1-0.1-0.1-0.1-0.1c0,0-0.1-0.1-0.1-0.1
			c-0.1-0.1-0.4-0.1-0.4-0.2c-0.1,0-0.2-0.1-0.5-0.2c-0.5-0.2-0.9-0.5-1.2-0.9c-0.3-0.5-0.4-1-0.5-1.5c0-0.5,0-1-0.1-1.4
			c-0.1-0.4-0.2-0.8-0.3-1.1c-0.1-0.2-0.1-0.3-0.2-0.5c0-0.1-0.1-0.2-0.2-0.4c-0.1-0.2-0.1-0.2-0.2-0.3c-0.1-0.1-0.1-0.1-0.2-0.2
			c0.2,0,0.4,0,0.7,0.1c0.2,0.1,0.4,0.1,0.7,0.3c0.2,0.1,0.4,0.2,0.7,0.4c0.2,0.1,0.5,0.3,0.8,0.5c0.2,0.1,0.4,0.3,0.6,0.6
			c0.1,0.1,0.3,0.4,0.5,0.7c0.1,0.3,0.2,0.5,0.3,0.8c0.1,0.4,0.1,0.8,0.1,1.3c0,0.3-0.1,0.7-0.1,1c0,0.3-0.2,0.5-0.2,0.8
			c0,0.2,0.1,0.4,0.2,0.6c0,0.2,0,0.4,0.1,0.6c0,0.1,0,0.2,0,0.4C27.5,110.3,27.4,110.5,27.3,110.4z"/>
		<g class="st4">
			<g>
				<g>
					<g>
						<g>
							<path class="st5" d="M27.4,108.8C27.4,108.9,27.5,108.8,27.4,108.8C27.5,108.8,27.4,108.8,27.4,108.8z"/>
							<polygon class="st5" points="27.4,108.6 27.4,108.6 27.3,108.6 							"/>
							<path class="st5" d="M27.3,108.5c-0.1,0,0,0.1,0,0.1l0,0l0,0C27.4,108.5,27.3,108.5,27.3,108.5z"/>
							<path class="st5" d="M27.4,108.3C27.4,108.4,27.4,108.3,27.4,108.3L27.4,108.3C27.4,108.4,27.4,108.4,27.4,108.3z"/>
							<path class="st5" d="M27.4,108.4C27.4,108.4,27.5,108.4,27.4,108.4L27.4,108.4z"/>
							<path class="st5" d="M27.4,108.3L27.4,108.3C27.5,108.3,27.5,108.3,27.4,108.3C27.4,108.3,27.4,108.3,27.4,108.3z"/>
							<path class="st5" d="M27.4,108.3L27.4,108.3C27.4,108.3,27.4,108.3,27.4,108.3z"/>
							<path class="st5" d="M27.4,108.3L27.4,108.3C27.4,108.3,27.4,108.3,27.4,108.3C27.4,108.3,27.4,108.3,27.4,108.3z"/>
							<path class="st5" d="M27.4,108.3C27.4,108.3,27.4,108.4,27.4,108.3C27.4,108.4,27.4,108.4,27.4,108.3z"/>
							<path class="st5" d="M27.3,108.5L27.3,108.5L27.3,108.5C27.3,108.5,27.3,108.5,27.3,108.5z"/>
							<path class="st5" d="M27.4,108.1C27.4,108.1,27.4,108.1,27.4,108.1L27.4,108.1C27.4,108.1,27.4,108.1,27.4,108.1z"/>
							<path class="st5" d="M27.4,108.1L27.4,108.1C27.4,108.1,27.4,108.1,27.4,108.1z"/>
							<polygon class="st5" points="27.3,108.3 27.4,108.3 27.3,108.3 							"/>
							<polygon class="st5" points="27.4,108 27.4,108 27.4,108 							"/>
							<path class="st5" d="M27.4,107.9C27.4,107.9,27.4,107.9,27.4,107.9C27.4,107.9,27.4,107.9,27.4,107.9
								C27.4,107.9,27.4,107.9,27.4,107.9z"/>
							<path class="st5" d="M27.4,107.9C27.4,107.9,27.4,107.9,27.4,107.9C27.4,107.9,27.4,107.9,27.4,107.9z"/>
							<path class="st5" d="M27.4,108.1C27.4,108.1,27.4,108,27.4,108.1L27.4,108.1L27.4,108.1z"/>
							<path class="st5" d="M27.4,108L27.4,108C27.4,108,27.4,108,27.4,108C27.4,108,27.4,108,27.4,108z"/>
							<path class="st5" d="M27.4,108.1L27.4,108.1L27.4,108.1z"/>
							<path class="st5" d="M27.3,108.2C27.3,108.2,27.3,108.1,27.3,108.2C27.3,108.2,27.3,108.2,27.3,108.2z"/>
							<path class="st5" d="M27.3,108.1L27.3,108.1C27.3,108.1,27.3,108.1,27.3,108.1L27.3,108.1z"/>
							<polygon class="st5" points="27.3,108.1 27.3,108.1 27.3,108.1 							"/>
							<path class="st5" d="M27.3,107.9C27.3,107.9,27.3,107.9,27.3,107.9C27.3,107.9,27.3,107.9,27.3,107.9
								C27.3,107.9,27.3,107.9,27.3,107.9z"/>
							<path class="st5" d="M27.3,108L27.3,108C27.3,108,27.3,108,27.3,108z"/>
							<polygon class="st5" points="27.3,107.7 27.3,107.7 27.3,107.7 							"/>
							<path class="st5" d="M27.3,107.9C27.3,107.9,27.3,108,27.3,107.9L27.3,107.9L27.3,107.9z"/>
							<path class="st5" d="M27.3,107.8L27.3,107.8C27.3,107.8,27.4,107.8,27.3,107.8z"/>
							<path class="st5" d="M27.4,108L27.4,108C27.4,108,27.4,108,27.4,108z"/>
							<polygon class="st5" points="27.4,108 27.3,108 27.3,108 							"/>
							<path class="st5" d="M27.1,107.7C27.1,107.7,27.1,107.7,27.1,107.7c0.1,0.1,0.2,0,0.2,0c0,0,0,0,0,0c0,0,0,0.1-0.1,0.1
								c0,0,0,0,0-0.1C27.2,107.7,27.1,107.7,27.1,107.7L27.1,107.7C27.1,107.7,27.1,107.7,27.1,107.7z"/>
							<path class="st5" d="M27.3,107.8L27.3,107.8C27.3,107.8,27.3,107.8,27.3,107.8C27.3,107.7,27.3,107.7,27.3,107.8L27.3,107.8
								L27.3,107.8z"/>
							<path class="st5" d="M27.3,107.8C27.3,107.8,27.3,107.8,27.3,107.8C27.2,107.9,27.3,107.9,27.3,107.8
								C27.3,107.8,27.3,107.9,27.3,107.8C27.3,107.9,27.3,107.9,27.3,107.8C27.3,107.9,27.3,107.9,27.3,107.8L27.3,107.8
								L27.3,107.8L27.3,107.8L27.3,107.8L27.3,107.8L27.3,107.8C27.3,107.8,27.3,107.8,27.3,107.8L27.3,107.8L27.3,107.8
								L27.3,107.8C27.3,107.8,27.3,107.8,27.3,107.8z"/>
							<path class="st5" d="M27.2,108.2L27.2,108.2C27.2,108.1,27.2,108.1,27.2,108.2z"/>
							<path class="st5" d="M27.2,108.1C27.2,108.1,27.2,108.1,27.2,108.1C27.2,108.2,27.2,108.2,27.2,108.1
								C27.2,108.2,27.2,108.2,27.2,108.1L27.2,108.1C27.2,108.1,27.3,108.1,27.2,108.1C27.3,108.1,27.2,108.1,27.2,108.1z"/>
							<path class="st5" d="M27.3,108L27.3,108L27.3,108L27.3,108C27.2,108,27.2,108,27.3,108z"/>
							<polygon class="st5" points="27.3,107.7 27.3,107.7 27.3,107.7 							"/>
							<polygon class="st5" points="27.3,107.6 27.3,107.6 27.3,107.6 							"/>
							<path class="st5" d="M25.8,104.5L25.8,104.5C25.8,104.5,25.8,104.5,25.8,104.5z"/>
							<path class="st5" d="M25.8,104.6L25.8,104.6C25.8,104.6,25.8,104.6,25.8,104.6z"/>
							<path class="st5" d="M26.9,106.1C26.9,106.1,27,106.1,26.9,106.1L26.9,106.1C26.9,106.1,26.9,106.1,26.9,106.1z"/>
							<polygon class="st5" points="26.4,105.2 26.4,105.2 26.4,105.2 							"/>
							<path class="st5" d="M26.2,105.3L26.2,105.3C26.3,105.2,26.2,105.2,26.2,105.3z"/>
							<path class="st5" d="M25.4,104.1L25.4,104.1C25.4,104.1,25.4,104.1,25.4,104.1z"/>
							<path class="st5" d="M27.2,107C27.2,107,27.2,107,27.2,107C27.1,107,27.1,107,27.2,107z"/>
							<path class="st5" d="M26.1,104.3C26.1,104.3,26.1,104.3,26.1,104.3C26.1,104.3,26.1,104.3,26.1,104.3z"/>
							<path class="st5" d="M27.1,106.9C27.1,106.9,27.1,106.9,27.1,106.9C27.2,106.9,27.2,107,27.1,106.9
								C27.2,106.9,27.2,106.9,27.1,106.9z"/>
							<path class="st5" d="M24,102.7L24,102.7L24,102.7z"/>
							<path class="st5" d="M23.7,102.1C23.7,102.1,23.7,102.2,23.7,102.1C23.7,102.2,23.7,102.1,23.7,102.1z"/>
							<path class="st5" d="M27.3,107.4C27.3,107.4,27.3,107.4,27.3,107.4L27.3,107.4z"/>
							<path class="st5" d="M27.1,107.5C27.1,107.5,27.1,107.5,27.1,107.5C27.1,107.5,27.1,107.5,27.1,107.5z"/>
							<path class="st5" d="M26.9,106.8L26.9,106.8C26.9,106.8,26.9,106.8,26.9,106.8z"/>
							<path class="st5" d="M27.2,107.4L27.2,107.4C27.3,107.4,27.3,107.4,27.2,107.4z"/>
							<path class="st5" d="M27.3,107.4C27.3,107.4,27.3,107.4,27.3,107.4C27.3,107.4,27.3,107.4,27.3,107.4z"/>
							<path class="st5" d="M27.3,107.4L27.3,107.4L27.3,107.4C27.3,107.4,27.3,107.4,27.3,107.4z"/>
							<path class="st5" d="M24.8,103.4L24.8,103.4C24.8,103.4,24.8,103.4,24.8,103.4z"/>
							<polygon class="st5" points="26.5,105.9 26.5,105.9 26.5,105.9 							"/>
							<path class="st5" d="M26.5,105.9C26.5,105.9,26.5,105.9,26.5,105.9l0.1,0L26.5,105.9z"/>
							<path class="st5" d="M25.6,104.3L25.6,104.3C25.6,104.4,25.6,104.3,25.6,104.3C25.6,104.3,25.6,104.5,25.6,104.3l0.1,0.1
								c0,0,0,0,0,0c0,0.1,0.1,0,0.1,0c0,0,0,0,0,0l0,0c0,0,0,0,0,0l0,0l0,0c0,0,0,0,0.1,0c0,0,0,0,0,0l0,0c0,0-0.1,0-0.1,0
								c-0.1,0.1,0,0,0,0.1l0,0c0,0,0,0.1,0,0.1c0,0,0-0.1,0.1-0.1c0,0,0,0,0,0c0,0,0,0,0,0.1l0,0c0,0,0,0,0.1,0c0,0,0,0.1,0,0.1
								c0,0,0-0.1,0.1,0c0,0,0,0.1,0.1,0.1c0,0,0,0,0,0l0,0c0,0,0,0,0,0c0,0,0,0,0.1,0c0.1,0,0,0.1,0,0.1c0,0,0,0,0,0
								c0.1,0,0,0,0.1,0.1l0,0c0,0,0.1,0,0.1,0c0,0,0,0,0,0l0,0c0,0,0,0,0,0c0,0,0,0,0,0c0,0,0,0-0.1,0l0,0c0,0-0.1,0-0.1,0
								c0,0,0,0,0,0c0,0,0,0,0,0c0,0,0,0,0,0l0,0l0,0l0,0.1c0.1,0,0.2,0,0.2,0.1c0,0-0.1,0-0.1,0c0,0,0,0,0-0.1c0,0,0,0,0,0l0.1,0
								c0,0,0,0,0,0c0.1,0,0.1,0,0.1,0.1c0,0,0,0-0.1,0c0,0.1,0.1,0,0.1,0.1c0,0,0,0,0,0c0,0,0,0.1,0,0.1l0,0c0,0.1,0.1,0.2,0.1,0.2
								c0,0-0.1,0-0.1,0l0.2,0c-0.1,0-0.2,0.1-0.2,0c0,0,0,0,0,0.1c0,0,0.1,0,0.1,0c0,0.1,0,0-0.1,0.1c0,0,0.1,0,0.1,0
								c0,0-0.1,0-0.1,0l0.1,0c0,0-0.1,0-0.1,0c0,0,0,0,0,0.1l0,0c0,0.1,0.1,0,0.1,0.1c0,0-0.1,0-0.1,0c0,0,0.2,0,0.3,0l0,0l0,0
								c-0.1,0-0.2,0-0.3-0.1c0,0,0,0,0,0c0,0,0,0,0,0l0,0.1c0,0,0.1,0,0.1,0l-0.1-0.1c0,0,0.1,0,0.2,0.1c0,0-0.1,0-0.1,0
								c0,0,0,0,0,0.1l0,0c0,0,0.1,0,0,0.1c0,0-0.1,0.1,0,0c0,0,0.2-0.1,0.3-0.1c0,0,0,0.1-0.1,0.1c0,0-0.1,0-0.1,0c0,0,0,0,0,0
								c0,0,0,0,0,0c0.1,0,0,0.1,0,0c0,0,0,0,0,0.1c0,0,0.1,0,0.1,0c0,0,0,0,0,0c0,0.1,0,0.1,0,0.2c0,0,0,0,0,0c0,0,0,0,0,0
								c0,0,0,0-0.1,0c0,0,0,0,0.1,0.1c0,0,0-0.1,0-0.1c0.1,0,0.1,0,0.2,0.1c0,0,0,0,0,0c0,0.1,0.1,0.1,0.1,0.1c0,0-0.1,0-0.1,0
								c0,0,0-0.1,0-0.1l0,0c0,0,0,0,0,0c0,0,0,0.2,0,0.2c0,0,0,0,0,0l0,0c0,0,0.1,0,0.1,0c0,0,0.1,0.1,0.1,0.1l0,0c0,0,0,0,0,0
								c0,0,0,0.1,0,0.1l0,0c0,0,0.1,0.1,0.1,0.1c0,0,0,0,0,0c-0.1,0,0-0.1-0.1,0c0.1,0,0-0.1,0.1-0.1c0,0,0,0,0,0l0,0l0,0l0,0l0,0
								c0,0,0,0,0,0c0,0,0-0.1-0.1-0.1c0,0,0,0,0,0l0,0c0,0,0-0.1,0.1,0l0,0c0,0,0-0.1,0-0.1c0,0,0,0,0,0l0-0.1l0,0
								c0-0.1-0.1-0.1,0-0.2c0,0,0,0,0-0.1l0,0c0,0,0-0.1,0-0.1c0.1,0,0-0.1,0-0.2l0,0c0,0,0-0.1,0-0.1l0,0c0,0,0-0.1,0-0.1
								c0,0,0,0,0,0c0.1-0.1-0.1-0.1-0.1-0.2c0,0,0,0,0,0l0,0l0,0l0,0c0,0,0,0,0,0c0,0,0,0,0,0l0,0l0,0c0,0,0,0,0,0c0,0,0,0,0,0
								c0.1,0,0,0,0-0.1c0,0,0-0.1-0.1-0.1c0,0,0,0,0,0c0,0,0,0,0-0.1l0,0l-0.1,0c0,0,0,0,0.1,0c-0.1,0,0,0-0.1-0.1l0,0
								c0,0-0.1,0,0,0c0-0.1-0.1-0.2-0.1-0.3c-0.1,0.1,0-0.1,0,0c0,0,0,0,0,0c0,0,0-0.1-0.1-0.1c0,0,0,0,0,0c0,0,0,0,0,0
								c0,0,0,0,0,0c0,0-0.1,0-0.1,0c0,0,0,0,0,0c0,0,0,0,0,0c0,0,0-0.1-0.1-0.1c0,0,0,0,0,0c0,0,0,0,0-0.1l0,0c-0.1,0,0,0,0-0.1
								l0,0c0-0.1,0,0,0-0.1l0,0c-0.1,0,0-0.1,0-0.1l0,0c0,0,0.1-0.1,0.1-0.1c0,0,0,0,0,0c0-0.1,0,0-0.1,0c0,0,0.1,0,0-0.1
								c0,0-0.1,0-0.1-0.1c0,0,0,0,0,0c0,0,0-0.1-0.1-0.1c0,0,0,0,0,0c0,0-0.1-0.1-0.1,0c0.1-0.1-0.1-0.1-0.1-0.2l-0.1-0.1l0,0
								c0,0-0.1,0-0.1,0c0,0,0,0,0,0c0-0.1,0-0.1-0.1-0.1l0,0c0,0,0-0.1-0.1-0.1c0,0,0,0,0,0c-0.1,0-0.1-0.2-0.2-0.1l-0.1,0
								c0,0.1,0,0,0,0.1c0,0,0-0.1,0-0.1l0,0c0.1,0,0-0.1,0-0.1c-0.1-0.1-0.2-0.2-0.3-0.3l0,0l0,0c0,0,0,0,0,0c0,0-0.1,0-0.1,0
								c0-0.1,0.1,0,0,0l0,0l0,0c0,0,0,0-0.1,0c0,0,0,0,0,0c0,0,0,0,0,0l0,0l0,0c0,0,0,0-0.1,0c0-0.1-0.1-0.2-0.1-0.2
								c0,0-0.1,0-0.1-0.1c0,0,0,0.1,0,0c0.1-0.1,0-0.1,0-0.1c0,0.1-0.1-0.1-0.1,0c0,0,0,0,0-0.1c-0.1,0-0.1-0.1-0.2-0.2
								c0,0,0,0,0,0l0-0.1c0,0-0.1,0.1-0.1,0c0,0,0,0,0,0c-0.1-0.2-0.3-0.2-0.4-0.4c0,0,0,0,0,0c0,0,0,0,0,0l0-0.1c0,0-0.1,0-0.1,0
								l0,0c-0.1,0,0,0.1-0.1,0.2c0.1,0,0,0.1,0.1,0.1c0,0,0,0,0,0c0,0,0,0,0.1,0l0,0c0.1,0,0.1,0.1,0.2,0.2l0,0c0,0,0,0,0,0
								c0.1,0,0,0,0-0.1c0,0.1,0.1,0.1,0.1,0.2c0,0,0,0,0,0l0,0l0,0c0,0,0,0,0,0.1c0,0,0,0,0,0c0,0,0.1,0,0.1,0.1l0,0
								c0.1,0,0.2,0.1,0.2,0.2l0,0c0.1,0,0,0,0.1,0.1l0,0c0,0,0,0,0.1,0c0,0,0,0.1,0,0.1c0.1,0,0,0,0.1,0l0,0c0,0,0,0,0.1,0
								c0,0,0,0-0.1,0c0,0.1,0.1,0,0.1,0.1c0.1,0,0-0.1,0-0.1c0,0,0.1,0,0.1,0c0,0,0,0.1,0,0.1c0,0,0,0,0,0c0,0,0.1,0,0,0.1
								c0,0,0,0,0.1,0l-0.1,0c0,0,0.1,0,0.1,0c0,0,0,0,0,0c0,0,0,0,0,0c0,0-0.1,0-0.1,0c0,0,0.1,0,0,0c0.1,0,0,0.1,0.1,0l0,0
								c0,0,0,0,0,0l0,0c0.1,0,0,0.1,0.1,0.1c-0.1,0,0,0,0-0.1c0.1,0,0,0.1,0.1,0.2c0,0,0,0,0,0c0,0,0,0,0,0.1c0.1,0,0,0,0.1,0
								c0,0,0,0,0.1,0l0,0c0,0.1,0.1,0,0.1,0l-0.1,0l0,0l0,0c0,0,0.1,0,0.1,0.1c0,0,0,0,0.1,0c0,0,0,0,0,0c0,0-0.1,0,0,0l0,0
								c0,0,0,0,0,0.1c0,0,0,0,0,0l0.1,0c0,0,0,0,0,0c0,0,0,0,0,0c0,0,0,0-0.1,0l0.1,0c0,0,0,0,0,0c0,0,0.1,0,0.1,0.1c0,0,0,0,0,0
								c0,0,0,0.1,0.1,0.1l0,0.1C25.5,104.3,25.5,104.2,25.6,104.3C25.6,104.3,25.6,104.3,25.6,104.3
								C25.6,104.3,25.7,104.3,25.6,104.3C25.6,104.3,25.6,104.3,25.6,104.3z M25.9,104.7C25.9,104.7,25.9,104.7,25.9,104.7
								C25.9,104.7,25.9,104.7,25.9,104.7z M26.3,105.3C26.3,105.3,26.3,105.3,26.3,105.3C26.3,105.3,26.3,105.3,26.3,105.3z
								 M27.2,107.3L27.2,107.3C27.2,107.2,27.2,107.2,27.2,107.3z M27.2,107.3C27.2,107.3,27.2,107.3,27.2,107.3
								C27.2,107.3,27.2,107.3,27.2,107.3C27.2,107.3,27.2,107.3,27.2,107.3z M24.9,103.1L24.9,103.1
								C24.9,103.1,24.9,103.1,24.9,103.1z"/>
							<path class="st5" d="M26.3,105.2L26.3,105.2C26.3,105.2,26.3,105.2,26.3,105.2z"/>
							<polygon class="st5" points="25.4,104.1 25.4,104.1 25.4,104.1 							"/>
							<path class="st5" d="M26.7,106.7C26.7,106.7,26.7,106.7,26.7,106.7C26.7,106.7,26.7,106.7,26.7,106.7z"/>
							<path class="st5" d="M27.3,107.5L27.3,107.5C27.3,107.5,27.3,107.5,27.3,107.5C27.3,107.5,27.3,107.5,27.3,107.5z"/>
							<path class="st5" d="M27.1,107.8C27.1,107.8,27.1,107.8,27.1,107.8L27.1,107.8C27.2,107.8,27.1,107.8,27.1,107.8z"/>
							<path class="st5" d="M27.2,107.6C27.2,107.6,27.2,107.6,27.2,107.6L27.2,107.6C27.2,107.6,27.2,107.6,27.2,107.6z"/>
							<path class="st5" d="M27.2,107.6C27.2,107.6,27.2,107.6,27.2,107.6C27.2,107.6,27.2,107.6,27.2,107.6z"/>
							<path class="st5" d="M27.2,107.4C27.2,107.4,27.3,107.4,27.2,107.4C27.3,107.4,27.2,107.3,27.2,107.4z"/>
							<polygon class="st5" points="27.1,107.6 27.1,107.6 27.1,107.6 							"/>
							<path class="st5" d="M27.1,107.4L27.1,107.4C27.1,107.5,27.1,107.5,27.1,107.4C27.1,107.5,27.1,107.4,27.1,107.4z"/>
							<path class="st5" d="M27.1,107.5C27.1,107.5,27.1,107.5,27.1,107.5C27.1,107.5,27.1,107.5,27.1,107.5z"/>
							<polygon class="st5" points="27.1,107.6 27.1,107.6 27.1,107.5 							"/>
							<path class="st5" d="M27,107.1L27,107.1C27,107.1,27,107.1,27,107.1C27,107.1,27,107.1,27,107.1z"/>
							<path class="st5" d="M27,107.2C27,107.2,27,107.2,27,107.2L27,107.2L27,107.2z"/>
							<path class="st5" d="M26.9,107.1C26.9,107.1,26.9,107.1,26.9,107.1C26.9,107.1,26.9,107.2,26.9,107.1z"/>
							<polygon class="st5" points="26.8,106.6 26.9,106.6 26.9,106.6 							"/>
							<path class="st5" d="M26.5,106.2C26.5,106.3,26.6,106.2,26.5,106.2C26.6,106.3,26.6,106.2,26.5,106.2
								C26.6,106.2,26.6,106.2,26.5,106.2z"/>
							<path class="st5" d="M26.6,106.2C26.6,106.2,26.6,106.2,26.6,106.2C26.6,106.2,26.6,106.2,26.6,106.2z"/>
							<polygon class="st5" points="23.6,102.1 23.6,102 23.6,102.1 							"/>
							<path class="st5" d="M23.5,102.1L23.5,102.1L23.5,102.1C23.5,102.1,23.5,102.1,23.5,102.1z"/>
							<path class="st5" d="M25.9,104.8L25.9,104.8C25.9,104.8,25.9,104.8,25.9,104.8L25.9,104.8z"/>
							<polygon class="st5" points="25.7,104.5 25.7,104.5 25.8,104.5 							"/>
							<path class="st5" d="M25.5,104.3C25.5,104.3,25.5,104.3,25.5,104.3C25.5,104.3,25.5,104.3,25.5,104.3z"/>
						</g>
					</g>
				</g>
			</g>
		</g>
	</g>
	<path class="st3" d="M208.5,132.7"/>
	<g>
	</g>
	<g>
	</g>
	<g>
	</g>
	<g>
	</g>
	<g>
	</g>
	<g>
	</g>
</g>
</svg>
