<?xml version="1.0" encoding="utf-8"?>
<!-- Generator: Adobe Illustrator 19.2.1, SVG Export Plug-In . SVG Version: 6.00 Build 0)  -->
<svg version="1.1" id="Calque_1" xmlns="http://www.w3.org/2000/svg" xmlns:xlink="http://www.w3.org/1999/xlink" x="0px" y="0px"
	 viewBox="0 0 50 49" enable-background="new 0 0 50 49" xml:space="preserve">
<path fill="#6E8935" d="M50,16.2c0,0.5,0,0.9-0.1,1.4c-0.5,4.9-4.5,8.6-8.6,10.9c-1.3,0.7-2.6,1.3-3.9,1.8c-2,0.7-4.7,0.8-4.4,3.8
	c0.3,2.6,2.5,5.2,3.8,7.3c1.7,2.6,3.5,5.1,5.4,7.6c-3.8-4.8-8.4-9.4-13.3-13c-2.5-1.8-5.2-3.5-8.1-4.6c-4.5-1.7-9.7-1.4-13.9-3.8
	c-3.9-2.3-7-6.6-7-11.2C0,7.3,11.2,0,25,0C32,0,39.5,1.8,44.9,6.3C47.8,8.8,49.9,12.4,50,16.2z"/>
<circle fill="#FFFFFF" cx="14.4" cy="15.7" r="3.3"/>
<circle fill="#FFFFFF" cx="23.1" cy="15.7" r="3.3"/>
<circle fill="#FFFFFF" cx="31.9" cy="15.7" r="3.3"/>
</svg>
