<?xml version="1.0" encoding="utf-8"?>
<!-- Generator: Adobe Illustrator 19.2.1, SVG Export Plug-In . SVG Version: 6.00 Build 0)  -->
<svg version="1.1" xmlns="http://www.w3.org/2000/svg" xmlns:xlink="http://www.w3.org/1999/xlink" x="0px" y="0px"
	 viewBox="0 0 1133.9 961.9" enable-background="new 0 0 1133.9 961.9" xml:space="preserve">
<g id="Background">
</g>
<g id="Objects">
	<path fill-rule="evenodd" clip-rule="evenodd" fill="#546AB0" d="M299.8,451.2l35.2,37.6l-14.3-38.7c39.8-5.7,69.7-30.8,69.7-60.9
		c0-34.3-38.9-62.1-87-62.1c-48,0-87,27.8-87,62.1C216.3,422.6,253.4,449.9,299.8,451.2z"/>
	<path fill-rule="evenodd" clip-rule="evenodd" fill="#6E8935" d="M879.8,383l-74.3,79.3l30.3-81.8c-84-12.1-147.2-65.1-147.2-128.6
		c0-72.5,82.2-131.2,183.7-131.2s183.7,58.7,183.7,131.2C1056.1,322.6,977.8,380.2,879.8,383z"/>
	<path fill-rule="evenodd" clip-rule="evenodd" d="M571,753.3L571,753.3c3.6,0,6.5,2.9,6.5,6.5v122.7c0,3.6-2.9,6.5-6.5,6.5l0,0
		c-3.6,0-6.5-2.9-6.5-6.5V759.8C564.5,756.3,567.4,753.3,571,753.3z"/>
	<path fill-rule="evenodd" clip-rule="evenodd" fill="#3C3C3B" d="M574.1,813.8c45.7,0,83-10,83-22.4c0-12.3-37.3-22.4-83-22.4
		c-45.7,0-83,10-83,22.4C491.1,803.7,528.4,813.8,574.1,813.8z"/>
	<path fill-rule="evenodd" clip-rule="evenodd" fill="#3C3C3B" d="M790,776.5c41.9,0,76-9.2,76-20.5s-34.1-20.5-76-20.5
		c-41.9,0-76,9.2-76,20.5S748.1,776.5,790,776.5z"/>
	<path fill-rule="evenodd" clip-rule="evenodd" fill="#1D1D1B" d="M963,796.1L963,796.1c3.3,0,6,2.7,6,6v88.2c0,3.3-2.7,6-6,6h0
		c-3.3,0-6-2.7-6-6v-88.2C956.9,798.8,959.6,796.1,963,796.1z"/>
	<path fill-rule="evenodd" clip-rule="evenodd" d="M789.3,767.9L789.3,767.9c-3.3,0-5.9,2.7-5.9,5.9v112.4c0,3.3,2.7,5.9,5.9,5.9
		l0,0c3.3,0,5.9-2.7,5.9-5.9V773.9C795.3,770.6,792.6,767.9,789.3,767.9z"/>
	<path fill-rule="evenodd" clip-rule="evenodd" d="M396.3,791.4L396.3,791.4c-3.5,0-6.4,2.9-6.4,6.4v93c0,3.5,2.9,6.4,6.4,6.4l0,0
		c3.5,0,6.4-2.9,6.4-6.4v-93C402.6,794.3,399.8,791.4,396.3,791.4z"/>
	
		<path fill-rule="evenodd" clip-rule="evenodd" fill="none" stroke="#575756" stroke-width="6.4201" stroke-linecap="round" stroke-miterlimit="22.9256" d="
		M504.4,931.5c0.7-11.8-0.6-20.8,12.2-31.4c12.8-10.5,31.5-14.1,58.2-16.9c26.7-2.9,72.3-2.9,67.2,31.7"/>
	<path fill-rule="evenodd" clip-rule="evenodd" fill="#6E8935" d="M636.6,597.7c3.2,1.8,6.7,3.8,10.5,5.9c7.7,4.2,12.7,4.8,14.5,7.3
		c1.5-3.7,15.5,6.8,16.8,9c2.2,3.7,2,7-0.2,8.6c0,0,13.2,14.9,10.7,21.7c-2.5,6.8-4.3,42.4-9.2,54.7c-4.9,12.3-11.7,29.5-14.7,33.8
		c-3.1,4.3-3.1,3.1-3.1,3.1s12.9,9.2,11.7,24.6c-1.2,15.4-8,95.9-8.6,106.3c-0.6,10.4-0.6,30.1-0.6,30.1s-5.5,4.3-9.2,4.3
		c-3.7,0-5.5,9.8,1.2,22.7c6.8,12.9,11.1,24.6-4.3,23.3c-7.9-0.6-12.1-3.6-15.4-7.1V722.3c5.7,2.3,11.3,4.8,11.3,4.8
		s4.7-0.7,6.7-8.7c2-8,2.7-39.3,2.7-46.7c0-7.3,0.7-21-2-24c-2.9,5.5-18.5-4.9-17.6-9.4c-0.4-0.3-0.7-0.5-1.1-0.8V597.7z
		 M526.1,584.5c0,0-4.9-9.8-8-16.6c-3.1-6.8-2.5-9.8-2.5-9.8s-5.5-3.7-5.5-9.8c0-6.1,2.5-10.4,2.5-10.4c-2.2-10,2.7-25,11.1-27
		c16-4,25.8-10.4,41.2,0c15.4,10.4,9.8,31.3,9.8,31.3s-1.4,6.2-3.2,10.5c3.2,6.1-4.5,13.9-6.8,13.4c-1.6,3.4-5.3,8.1-3.5,11.1
		c1.8,3.1,8-4.9,13.5-2.5c5.5,2.5,26.4-1.2,33.2,4.3c5.5,4.5,14.7,10.6,28.8,18.7v39.8c-11.5-8.5-20.7-8.5-20.7-8.5s0.7,12,0.7,26
		c0,14,6,24.7,6,37.3c0,12.7-2,24.7,3.3,26c2.3,0.6,6.5,2.2,10.7,3.9v223.8c-3.1-3.3-5.6-6.9-9.8-9.5c-8.7-5.3-7-17.8-3.7-24.6
		c3.4-6.8,1.8-12.9,1.8-12.9s2.5-34.4,3.7-57.8c1.2-23.3,0.6-43.6,0.6-43.6s-19,6.8-35.6,6.8c-16.6,0-26.4-2.5-38.1-2.5
		c-11.7,0-27-3.7-31.3-5.5c-4.3-1.8,1.2,31.3,7.4,54.1c6.1,22.7,11.7,44.9,11.7,44.9l-3.1,2.5c0,0,2.2,12.2,4.6,17.7
		c2.5,5.5,5.9,17.2-3.2,23.5c-7,4.8-14.4,20.1-27.2,22.4c-12.8,2.4-16.8-6.7-9.9-19.8c6.8-13.1,12.9-17.6,13.8-26.3
		c0.9-8.8-1.4-16-1.4-16l-18.6,1c0,0-6.1-31.3-9.8-53.5c-3.7-22.1-12.9-73.7-11.7-87.2c1.2-13.5,3.7-21.5,9.2-24.6
		c5.5-3.1,7.4-5.5,7.4-5.5s-7.4-4.3-7.4-9.2s-0.2-6.8-0.6-8c-4.5,2.3-7.6-21.2-2.1-20.4c2.2-14-2.2-6.6-0.3-14
		c1.8-7.4,2.5-16,0-21.5c-2.5-5.5-0.6-21.5,1.8-29.5c2.5-8-0.6-10.4,8-17.8c8.6-7.4,19.7-11.1,19.7-11.1S515.6,584.5,526.1,584.5z"
		/>
	
		<path fill-rule="evenodd" clip-rule="evenodd" fill="none" stroke="#575756" stroke-width="6.4201" stroke-linecap="round" stroke-miterlimit="22.9256" d="
		M569.2,884c3.3-4.4,24.3-22.4,26.4-8.6c0.2,1.4,0.4,15.8,0.2,17.8"/>
	
		<path fill-rule="evenodd" clip-rule="evenodd" fill="none" stroke="#575756" stroke-width="6.4201" stroke-linecap="round" stroke-miterlimit="22.9256" d="
		M588.8,931.7c0-7.8,4.8-25.5-17.4-44.5"/>
	
		<path fill-rule="evenodd" clip-rule="evenodd" fill="none" stroke="#575756" stroke-width="6.4201" stroke-linecap="round" stroke-miterlimit="22.9256" d="
		M519.3,905.7c0.1-1.7,1.7-15.1,2.3-17c3.2-10.7,14.8-22,46.2-5.9"/>
	<path fill-rule="evenodd" clip-rule="evenodd" d="M518.8,933.5c4.5,0,8.1-3.8,8.1-8.6c0-4.7-3.6-8.6-8.1-8.6
		c-4.5,0-8.1,3.8-8.1,8.6C510.7,929.7,514.3,933.5,518.8,933.5z"/>
	<path fill-rule="evenodd" clip-rule="evenodd" d="M510.4,929.3c4.5,0,8.1-3.8,8.1-8.6c0-4.7-3.6-8.6-8.1-8.6s-8.1,3.8-8.1,8.6
		C502.3,925.5,505.9,929.3,510.4,929.3z"/>
	<polygon fill-rule="evenodd" clip-rule="evenodd" points="523.3,917.8 513.9,913 505.2,927.3 515.1,932.6 	"/>
	<path fill-rule="evenodd" clip-rule="evenodd" d="M578.8,927.9c4.1,0.4,7.5,4.5,7.5,9.3c0,4.7-3.3,8.2-7.5,7.9
		c-4.1-0.4-7.5-4.5-7.5-9.3C571.3,931,574.7,927.5,578.8,927.9z"/>
	<path fill-rule="evenodd" clip-rule="evenodd" d="M588.5,921.9c4.1,0.4,7.5,4.5,7.5,9.3c0,4.7-3.3,8.2-7.5,7.9
		c-4.1-0.4-7.5-4.5-7.5-9.3C581,925,584.3,921.5,588.5,921.9z"/>
	<polygon fill-rule="evenodd" clip-rule="evenodd" points="593.7,937 584.7,922.7 573.9,929.5 583.3,943.7 	"/>
	<path fill-rule="evenodd" clip-rule="evenodd" d="M532.1,887.9c2.1,0.4,3.7,4.5,3.7,9.3c0,4.7-1.7,8.2-3.7,7.9
		c-2.1-0.4-3.7-4.5-3.7-9.3C528.4,891,530,887.5,532.1,887.9z"/>
	<path fill-rule="evenodd" clip-rule="evenodd" d="M520.5,889.3c2.1,0.4,3.7,4.5,3.7,9.3c0,4.7-1.7,8.2-3.7,7.9
		c-2.1-0.4-3.7-4.5-3.7-9.3C516.7,892.4,518.4,888.9,520.5,889.3z"/>
	<polygon fill-rule="evenodd" clip-rule="evenodd" points="520.5,906.4 532.6,905 531.7,887.9 520,889.3 	"/>
	<path fill-rule="evenodd" clip-rule="evenodd" fill="#6E8935" d="M554,505.9c7.2,1.1,20.2,9,22.9,14.1c2.7,5.2-0.1-0.5-4.5-2.4
		c-4.3-1.9,3.9,4.2,4.9,9.6c0.9,5.4-0.1,0.4-5-2.7c-4.9-3.1-3.1,4.7-1.8,10c1.4,5.3-0.4,13.2-2.4,9
		C566.1,539.3,544.1,513.5,554,505.9z"/>
	<path fill-rule="evenodd" clip-rule="evenodd" fill="#6E8935" d="M522.4,511.5c-2.8-0.2-11.2,6-12.4,9.6c-1.2,3.6,1.7-0.4,3.5-0.7
		c1.7-0.4-2.8,4.1-3.5,6.8c-0.7,2.8,2.5-1.4,2.5,1.2C512.5,530.9,537.1,520.8,522.4,511.5z"/>
	<path fill-rule="evenodd" clip-rule="evenodd" fill="#6E8935" d="M766.8,494.9c-29.4,5.6-46.6,85.5-33.1,101.8
		c0,0-9.6,7.9-3.6,17.2c0.2,0.3,8.5,43.5,6.3,47.6c-2.2,4.1,1.2,6.9,2.5,13.5c1.3,6.6,1.4,14.6,4.8,14.6c-3.7,7.6-9.9,25.5-9.9,34.7
		c0,9.3-1.3,18.5-1.3,18.5l-0.7,9.3c0,0-15.2,21.2-25.8,36.4c-10.6,15.2-18.1,26.2-25.2,36.9c-7.2,10.7-16.4,17.9-23.7,23.9
		c-7.3,5.9-21.2,17.2-19.8,23.1c1.3,5.9,7.3,15.9,13.2,19.2c5.9,3.3,10.6-4.6,16.5-15.2c5.9-10.6,11.8-19.7,18.1-26.8
		c6.4-7.2,36.1-34,46.7-41.9c10.6-7.9,13.2-7.3,13.2-7.3s25.4,9.7,38.9,22.2c13.5,12.4,16.6,20.8,19.9,28.1c3.3,7.3,4,29.7,13.2,35
		c9.3,5.3,17.2,2,17.8-8.6c0.7-10.6-2.6-15.2-8.6-23.1c-5.9-7.9-4-16.5-5.3-25.1c-1.3-8.6-6.5-5-11.8-10.3
		c-5.3-5.3-8.7-15.5-14-22.1c-5.3-6.6-14.5-12.6-14.5-12.6s2.6-4,3.3-9.3c0.7-5.3-0.7-13.2-0.7-13.2s26.1,5.8,47.6-2.6
		c32-12.6,39.8-35.9,23.1-74.7c0,0,7.3-0.7,12.6-9.3c5.3-8.6-5.4-42.2-6.5-59.2c-1-17.1-8.4-35.9-16-40.9c-7.6-5-30-0.1-38.6-9.3
		C809.6,568.3,829.8,494.3,766.8,494.9z"/>
	
		<path fill-rule="evenodd" clip-rule="evenodd" fill="none" stroke="#575756" stroke-width="6.4201" stroke-linecap="round" stroke-miterlimit="22.9256" d="
		M849.3,931.5c-0.6-10.8,0.5-19.1-11.2-28.7c-11.7-9.7-28.9-12.9-53.4-15.5c-24.5-2.6-66.2-2.6-61.6,29.1"/>
	
		<path fill-rule="evenodd" clip-rule="evenodd" fill="none" stroke="#575756" stroke-width="6.4201" stroke-linecap="round" stroke-miterlimit="22.9256" d="
		M789.8,888c-3-4.1-22.2-20.5-24.2-7.9c-0.2,1.2-0.4,14.5-0.2,16.3"/>
	
		<path fill-rule="evenodd" clip-rule="evenodd" fill="none" stroke="#575756" stroke-width="6.4201" stroke-linecap="round" stroke-miterlimit="22.9256" d="
		M772,931.8c0-7.2-4.4-23.4,16-40.7"/>
	
		<path fill-rule="evenodd" clip-rule="evenodd" fill="none" stroke="#575756" stroke-width="6.4201" stroke-linecap="round" stroke-miterlimit="22.9256" d="
		M835.6,907.9c-0.1-1.6-1.6-13.8-2.1-15.6c-2.9-9.8-13.6-20.1-42.3-5.4"/>
	<path fill-rule="evenodd" clip-rule="evenodd" d="M837.2,933c4.1,0,7.4-3.5,7.4-7.8s-3.3-7.8-7.4-7.8c-4.1,0-7.4,3.5-7.4,7.8
		S833.1,933,837.2,933z"/>
	<path fill-rule="evenodd" clip-rule="evenodd" d="M844.9,929.1c4.1,0,7.4-3.5,7.4-7.8c0-4.3-3.3-7.8-7.4-7.8
		c-4.1,0-7.4,3.5-7.4,7.8C837.4,925.6,840.8,929.1,844.9,929.1z"/>
	<polygon fill-rule="evenodd" clip-rule="evenodd" points="833,918.6 841.6,914.2 849.6,927.3 840.5,932.1 	"/>
	<path fill-rule="evenodd" clip-rule="evenodd" d="M835.6,892.5c-1.9,0.4-3.4,4.2-3.4,8.5c0,4.3,1.5,7.6,3.4,7.2
		c1.9-0.4,3.4-4.2,3.4-8.5C839,895.3,837.5,892.1,835.6,892.5z"/>
	<path fill-rule="evenodd" clip-rule="evenodd" fill="#6E8935" d="M357.4,507.7c-13.2-0.8-21,6.1-24.2,13.5c-3.3,7.5-4,18.1-4,18.1
		c-5.9,1.9-3.4,19.2,3,20.9c0,0,2,6.2,1,10.9c-0.9,4.7-2.1,7.4-4.8,6.6c-2.7-0.8-3.8,4-8.6,7.6c-4.8,3.6-9.7,3.8-16,3.8
		c-6.3,0-18.9,4.8-18.9,32.2c0,27.3,5.5,45.2,11,54c5.6,8.8,15.6,41.9,15.6,56.7c0,14.8,7.8,37.5,9.6,42.3c1.8,4.8,3.6,5.4,7.8,4.2
		c4.2-1.2,14.4,25.1,32.9,25.7c18.5,0.6,41.9-0.6,64,3.6c22.1,4.2,35.9,9.6,37.7,17.9c1.8,8.4,10.8,39.5,15,43.7
		c4.2,4.2,9,6.6,6.6,12c-2.4,5.4-3.6,12-1.8,18.5c1.8,6.6-3.6,14.4-7.2,22.7c-3.6,8.4-9,25.7,7.2,29.3c16.1,3.6,19.7,1.2,19.7,1.2
		s0.6-6.6,10.2-3.6c9.6,3,19.7,12,35.3,6c15.5-6,25.1-13.2,25.1-13.2s21.5,1.8,36.5-11.4c15-13.2,7.8-17.9-12-22.1
		c-19.7-4.2-27.5,2.4-38.3,0c-10.8-2.4-8.4-7.2-17.3-12.6c-9-5.4-12-9-15-16.7c-3-7.8-5.4-2.4-1.2-23.3
		c4.2-20.9,13.8-45.5,12.6-59.2c-1.2-13.8,1.2-26.3-20.3-32.9c-21.5-6.6-64.6-17.3-70.6-19.1c-6-1.8,3.6-4.8-10.8-10.2
		c-14.4-5.4-26.8-7.7-23.5-15.6c19.6-9.8,8.8-46.5-2.2-43.9c-1.5-7.7-7.7-22.1-7.5-30.9c0.3-11.5-5.2-28.3-17.2-33.5
		c-12-5.2-15.4-5.8-20.2-11.2c-4.8-5.4-3.6-10.8-3-13.8c0.6-3,10.8-9.6,12.6-15c1.8-5.4,3.4-9.2,3.8-10.5c4.2-2.7,4.7-12.4,2.8-15.5
		C382.5,539.5,386.2,509.5,357.4,507.7z"/>
	<path fill-rule="evenodd" clip-rule="evenodd" fill="#3C3C3B" d="M402.4,816.8c44.9,0,81.5-9.9,81.5-22c0-12.1-36.6-22-81.5-22
		c-44.9,0-81.5,9.9-81.5,22C321,807,357.6,816.8,402.4,816.8z"/>
	
		<ellipse transform="matrix(0.9304 -0.3666 0.3666 0.9304 -241.9947 158.2391)" fill-rule="evenodd" clip-rule="evenodd" fill="#3C3C3B" cx="295.6" cy="716.2" rx="20.3" ry="49"/>
	
		<path fill-rule="evenodd" clip-rule="evenodd" fill="none" stroke="#575756" stroke-width="6.4201" stroke-miterlimit="22.9256" d="
		M330.2,935.8c0.6-11.6-0.5-20.5,12-30.8c12.5-10.3,31-13.8,57.2-16.6c26.2-2.8,71-2.8,66,31.2"/>
	
		<path fill-rule="evenodd" clip-rule="evenodd" fill="none" stroke="#575756" stroke-width="6.4201" stroke-miterlimit="22.9256" d="
		M397,892.4c3.2-4.4,23.8-22,25.9-8.5c0.2,1.3,0.4,15.6,0.2,17.5"/>
	
		<path fill-rule="evenodd" clip-rule="evenodd" fill="none" stroke="#575756" stroke-width="6.4201" stroke-miterlimit="22.9256" d="
		M410.8,936c0-7.7,4.7-25.1-17.1-43.6"/>
	
		<path fill-rule="evenodd" clip-rule="evenodd" fill="none" stroke="#575756" stroke-width="6.4201" stroke-miterlimit="22.9256" d="
		M345.6,914.9c0.1-1.7,1.7-14.8,2.2-16.7c3.1-10.5,14.6-21.6,45.4-5.8"/>
	<path fill-rule="evenodd" clip-rule="evenodd" d="M340.6,942.1c4.4,0,8-3.8,8-8.4c0-4.6-3.6-8.4-8-8.4s-8,3.8-8,8.4
		C332.7,938.3,336.3,942.1,340.6,942.1z"/>
	<path fill-rule="evenodd" clip-rule="evenodd" d="M342.3,898.7c2,0.4,3.7,4.5,3.7,9.1c0,4.6-1.6,8.1-3.7,7.7
		c-2-0.4-3.7-4.5-3.7-9.1C338.6,901.8,340.3,898.3,342.3,898.7z"/>
	<path fill-rule="evenodd" clip-rule="evenodd" fill="#6E8935" d="M384.7,688.5c-5.8,5.3-20,21.6-22.5,19.2
		c-2.5-2.5,9.5-12.6,6.5-14.6c-3.1-2-15.1,16.6-18,14.3c-2.9-2.3,12.7-15.9,10.2-17.6c-2.5-1.7-17.1,14.7-19.5,12.7
		c-2.3-2,13.1-16,11.1-17.2c-2-1.2-12.8,11.4-15,8.9c-2.8-3.2,14.5-19.2,26.4-23.2C375.8,667,390.4,675,384.7,688.5z"/>
	<path fill-rule="evenodd" clip-rule="evenodd" fill="#6E8935" d="M389.6,549.8c-15.4-0.3-51.3-10.7-55.3-24.7
		c-4-14,11.6-20.3,15.9-18.1C354.4,502.3,391.9,501.5,389.6,549.8z"/>
	<g>
		<rect x="251.3" y="699.7" fill-rule="evenodd" clip-rule="evenodd" fill="#575756" width="646.6" height="18.1"/>
		<path fill-rule="evenodd" clip-rule="evenodd" fill="#575756" d="M574.6,716.6c178.1,0,323.3-7.6,323.3-16.9
			s-145.2-16.9-323.3-16.9c-178.1,0-323.3,7.6-323.3,16.9S396.6,716.6,574.6,716.6z"/>
		<path fill-rule="evenodd" clip-rule="evenodd" fill="#575756" d="M574.6,734.7c178.1,0,323.3-7.6,323.3-16.9
			s-145.2-16.9-323.3-16.9c-178.1,0-323.3,7.6-323.3,16.9S396.6,734.7,574.6,734.7z"/>
	</g>
	<path fill-rule="evenodd" clip-rule="evenodd" fill="#6E8935" d="M119.6,541.6c-4-2.5-16.8-16.8-37.1-10.3
		c-37,11.9-23.4,50.3-7.5,70.3c-8.8,21.2-26.2,15.8-35.2,24.8c-10,10,3,50.9,12,56.9c9,6,14,10,14,10s17.5,16.5,22.5,30.4
		c5,14,10.5,46.9,14,59.9c3.5,13,14.5,18.5,47.4,18.5c32.9,0,71.4-5.5,88.8-16s19.5-11,19.5-11s-2,19.5-3.5,33.4
		c-1.5,14-2.5,31.1-1.9,41.4c0.5,10.2,1.1,25.9-3.2,25.9c-4.3,0-10.8-3.2-15.6,4.3c-4.9,7.5-8.6,57.2-8.6,57.2l8.1,1.1l4.3-36.1
		c0,0,9.7,13.5,11.3,22.1c1.6,8.6,3.2,24.8,18.9,24.3s23.2,0,25.9-7c2.7-7,4.9-9.2-4.3-11.9c-9.2-2.7-11.9-9.7-11.9-18.3
		c0-8.6-2.7-15.6-2.7-29.7c0-14,1.1-22.6,5.4-43.7c4.3-21,7.5-23.7,7.5-23.7s12.9,26.4,18.3,36.7c5.4,10.2,7,21.6,7,21.6
		s-15.1,17.3-14,22.6c1.1,5.4,5.9,41,5.9,41h5.4c0,0-3.2-25.9-1.1-31.3c2.2-5.4,9.7,3.8,14.6,10.8c4.9,7,7,26.4,17.3,27.5
		c10.2,1.1,24.8,3.2,29.7-2.7c4.9-5.9,3.2-9.2-5.9-13.5s-13.5-17.3-17.3-29.1c-3.8-11.9-15.6-31.3-17.8-45.3
		c-2.2-14-12.4-79.8-15.6-93.8c-3.2-14-8.1-28.6-27-28.6c-18.9,0-13.5-0.5-13.5-0.5l4.9-4.3l5.9-0.5l17.3-81.4l-39.4-0.5l-18.9,85.7
		l-70.1,13.5c0,0-1.6-11.9-7-24.8c-5.4-12.9-11.3-22.1-11.3-31.8s9.7-24.8-8.6-33.4c-18.3-8.6-20.5-15.6-24.3-21.6
		c-3.8-5.9-7-8.1-10.8-8.1S95.8,619,95.8,619s-3.5-2.9-0.9-5.9c2.7-3,10.8,5,13.5,2.8c2.7-2.2,2.3-6.5,2.3-6.5s3.2,0,2.7-2.7
		c-0.5-2.7,4,0.1,2.4-4.8c-0.7-2.1,2.3-2.8,5-2.5c2.7,0.3,3.3-1.8,2.8-6.2c-0.5-4.4,0.4-9.4,4.2-13.8c3.8-4.3,3.3-21.3,0.5-28
		C125.4,544.9,124.2,545.1,119.6,541.6z"/>
	<path fill-rule="evenodd" clip-rule="evenodd" fill="#6E8935" d="M153.1,672.3c6.8,7.3,26.9,23.5,33.8,30.8
		c6.8,7.3,15.4,19.7,20.5,16.2c5.1-3.4,13.7-11.5,16.2-9c2.6,2.6,2.1,3.8,5.6,3.4c3.4-0.4,3.8,3.4,6.8,6.8c3,3.4,2.6,3.7,0.1,3.9
		c-2.5,0.1-4.4-1.1-5.3-2.8c-0.8-1.7-2.2,0-4-0.6c-1.8-0.6-1.1,1.8,0.3,3.2c1.4,1.4,4.8,5.4,1.5,5.4c-3.3,0-5.4-1.9-6.2-2.6
		c-0.8-0.7-2.2,0.4-4.7,2.6c-2.5,2.2-7.3,6.8-11.8,7.3c-4.4,0.6-8.7,0.3-12.7-4.8c-4-5.1-11.6-12.2-17-16.9
		c-5.4-4.7-22.4-14.9-28.6-18.1C141.4,694.1,143.8,664.5,153.1,672.3z"/>
	<path fill-rule="evenodd" clip-rule="evenodd" fill="#3C3C3B" d="M187.8,825.1c42.6,0,77.3-9.4,77.3-20.8
		c0-11.5-34.7-20.8-77.3-20.8c-42.6,0-77.3,9.4-77.3,20.8C110.5,815.8,145.2,825.1,187.8,825.1z"/>
	
		<ellipse transform="matrix(0.9729 -0.2313 0.2313 0.9729 -166.444 39.7768)" fill-rule="evenodd" clip-rule="evenodd" fill="#3C3C3B" cx="86.4" cy="729.7" rx="19.2" ry="46.5"/>
	<path fill-rule="evenodd" clip-rule="evenodd" fill="#1D1D1B" d="M187.8,796.1L187.8,796.1c-3.3,0-6,2.7-6,6v88.2c0,3.3,2.7,6,6,6
		h0c3.3,0,6-2.7,6-6v-88.2C193.8,798.8,191.1,796.1,187.8,796.1z"/>
	
		<path fill-rule="evenodd" clip-rule="evenodd" fill="none" stroke="#575756" stroke-width="6.4201" stroke-linecap="round" stroke-miterlimit="22.9256" d="
		M243.2,939.5c-0.6-11,0.5-19.4-11.4-29.2c-11.9-9.8-29.4-13.1-54.2-15.8c-24.9-2.7-67.3-2.7-62.6,29.6"/>
	
		<path fill-rule="evenodd" clip-rule="evenodd" fill="none" stroke="#575756" stroke-width="6.4201" stroke-linecap="round" stroke-miterlimit="22.9256" d="
		M182.8,896.5c-3.1-4.1-22.6-20.8-24.6-8c-0.2,1.3-0.4,14.8-0.2,16.6"/>
	
		<path fill-rule="evenodd" clip-rule="evenodd" fill="none" stroke="#575756" stroke-width="6.4201" stroke-linecap="round" stroke-miterlimit="22.9256" d="
		M164.6,938.8c0-7.3-4.5-23.8,16.2-41.4"/>
	
		<path fill-rule="evenodd" clip-rule="evenodd" fill="none" stroke="#575756" stroke-width="6.4201" stroke-miterlimit="22.9256" d="
		M229.3,918.1c-0.1-1.6-1.6-14.1-2.1-15.8c-3-10-13.8-20.5-43-5.5"/>
	<path fill-rule="evenodd" clip-rule="evenodd" fill="#6E8935" d="M123.7,695.5c9,4.2,33.7,12,42.7,16.2c9,4.2,21.5,12.6,25,7.6
		c3.5-5.1,8.5-15.8,11.8-14.3c3.3,1.4,3.4,2.8,6.4,1.1c3-1.7,4.8,1.8,8.9,3.8c4,2.1,3.8,2.5,1.5,3.6c-2.3,1-4.5,0.6-5.9-0.6
		c-1.4-1.2-2.1,0.8-3.9,1c-1.9,0.1-0.4,2.1,1.4,2.9c1.8,0.8,6.5,3.2,3.4,4.5c-3.1,1.2-5.7,0.2-6.8-0.2c-1-0.3-1.9,1.2-3.4,4.2
		c-1.5,3-4.3,9-8.2,11.1c-3.9,2.1-8,3.5-13.6,0.2c-5.6-3.3-15.3-7.1-22-9.4c-6.7-2.4-26.3-5.7-33.3-6.3
		C120.8,720.1,112.2,691.7,123.7,695.5z"/>
	<path fill-rule="evenodd" clip-rule="evenodd" fill="#6E8935" d="M122.1,545.2c7.9,0,20.4,12.5,14.7,29.7
		c-4.7,14.1-31.6,8.8-32.1,8.1C100.6,577.3,105.5,539.7,122.1,545.2z"/>
	<path fill-rule="evenodd" clip-rule="evenodd" fill="#6E8935" d="M90,533.3c0-6.4-17-17-29.8-8.9c-12.8,8.2-22,20.5-12.4,46.5
		c13.4,36.3,2,45.1-3.9,44c-6-1.1-5.1,1.9-1.3,6.2c3.9,4.3,12.9,6.1,20.4,1.2c7.4-5,21.3-32.6,21.3-44C84.3,567,79.4,540,90,533.3z"
		/>
	<path fill-rule="evenodd" clip-rule="evenodd" fill="#6E8935" d="M1069.1,522.2c-2.6-1.5-3.4-2.3-3.2,0c0.2,2.3-2.6,2-4.6,1.1
		c-2-0.9-2.2,0.2-2.2,1.7c0,1.5-4.2,2.2-6,1.9c-1.9-0.3-1.5,1.7-1.7,2.8c-0.2,1.1-2.2,3.4-5.6,3.1c-3.4-0.3-2.8,1.9-1.2,2.9
		s0.9,4.8,2,4.8c1.1,0-2.9,10.3-4.2,12.8c-1.2,2.5,0.5,6.6-1.1,9.6c-1.5,2.9-0.8,15.3,0.9,21.3c1.7,6,2.9,11.4,5.9,13.1
		c2.9,1.7,4.5,1.8,4,5.6c-0.5,3.7-2.9,7.7-2.9,7.7s-10.3,5.7-10.8,6.9c-0.5,1.2-15.7,11.8-20.7,18.6s-10.4,16.7-10.4,16.7
		s-2.7-1.6-4.5,0.6c-1.8,2.2-1.2-0.6-3.7,1c-2.6,1.6-2.8,2.4-4.9,3.1c-2.2,0.8-2.2,3.9-4.5,3.7c-2.4-0.2-3.5,1-3.5,1
		s-6.3-2.2-10.8,0c-4.5,2.2-8.6,12.8-10.8,17.1c-2.2,4.3,2.2,16.9,4.5,18.3c2.4,1.4,5.1,5.5,5.1,5.5s-8.8,12.2-16.2,17.3
		c-7.4,5-13.9,11.5-27.5,10.3c-13.6-1.2-48-10.8-56.6-12.4c-8.6-1.7-26.3-1.9-32.5,13.6c-6.2,15.5-20.3,37.3-29.6,51.6
		c-9.3,14.3-10.3,20.5-14.6,26.1c-4.4,5.6-5.9,9.6-3.4,11.5c2.5,1.9-3.7,6.2-17.4,9.3c-13.7,3.1-28,3.1-31.1,2.8
		c-3.1-0.3-6.8,6.5-2.2,10.6c4.7,4,28.9,16.5,36.7,15.9c7.8-0.6,11.5-5.6,18.7-1.9c7.2,3.7,18,4.4,23.3,3.4
		c5.3-0.9,5.6-4.7,6.2-10.6c0.6-5.9,0.3-9.3,0.3-9.3s3.7-1.2,5.6-2.8c1.9-1.6-0.9,34.5-1.9,45.1c-0.9,10.6-5.9,36.1-2.2,36.4
		c3.7,0.3,6.5-1.2,1.2,5.6c-5.3,6.8-13.4,11.2-19.6,11.2c-6.2,0-15.9,0-15.9,3.7c0,3.7,7.2,9,23,9.6c15.9,0.6,23-1.6,26.7-3.1
		c3.7-1.6,9.6-0.3,11.8,2.5c2.2,2.8,21.1,1.2,23.6,0c2.5-1.2,3.4-9.3,2.2-13.7c-1.2-4.4-6.8-18-6.5-23.3c0.3-5.3-0.6-45.1,0.3-53.5
		c0.9-8.4,1.2-28.9,0.3-35.8c-0.9-6.8-3.7-12.4,0.9-12.4c4.7,0,6.5,0.6,13.7-1.9c7.2-2.5,22.1-11.5,42-8.1
		c19.9,3.4,61.4,8.2,72.9,2.7c11.5-5.5,11.5-16.5,18.8-22.9c7.3-6.4,6-7.8,11.5-12.4c5.5-4.6,13.8-28.9,22.5-44.9
		c8.7-16.1,21.6-38.5,28.4-48.2c6.9-9.6,12.4-14.2,12.4-24.8c0-10.5-5.5-25.7-5.5-35.3c0-9.6,0.5-18.3-1.8-18.3
		c-2.3,0-2.8-5.5,1.8-11.9c4.6-6.4,7.3-21.1,8.3-28.9c0.9-7.8,0-12.7-4.7-18.9c-4.7-6.2-17.5-13-19.5-14.3c-1.9-1.3-4.2-3.5-4.2-1.9
		C1074.5,522.1,1072.8,522.8,1069.1,522.2z"/>
	<path fill-rule="evenodd" clip-rule="evenodd" fill="#3C3C3B" d="M957.1,820.2c42.6,0,77.3-9.4,77.3-20.8s-34.7-20.8-77.3-20.8
		c-42.6,0-77.3,9.4-77.3,20.8S914.5,820.2,957.1,820.2z"/>
	
		<ellipse transform="matrix(0.3666 -0.9304 0.9304 0.3666 -3.9008 1443.8092)" fill-rule="evenodd" clip-rule="evenodd" fill="#3C3C3B" cx="1058.5" cy="724.8" rx="46.5" ry="19.2"/>
	
		<path fill-rule="evenodd" clip-rule="evenodd" fill="none" stroke="#575756" stroke-width="6.4201" stroke-linecap="round" stroke-miterlimit="22.9256" d="
		M1025.6,935.3c-0.6-11,0.5-19.4-11.4-29.2c-11.9-9.8-29.4-13.1-54.2-15.8c-24.9-2.7-67.3-2.7-62.6,29.6"/>
	
		<path fill-rule="evenodd" clip-rule="evenodd" fill="none" stroke="#575756" stroke-width="6.4201" stroke-linecap="round" stroke-miterlimit="22.9256" d="
		M965.1,891.1c-3.1-4.1-22.6-20.8-24.6-8c-0.2,1.3-0.4,14.8-0.2,16.6"/>
	
		<path fill-rule="evenodd" clip-rule="evenodd" fill="none" stroke="#575756" stroke-width="6.4201" stroke-linecap="round" stroke-miterlimit="22.9256" d="
		M947,935.5c0-7.3-4.5-23.8,16.2-41.4"/>
	
		<path fill-rule="evenodd" clip-rule="evenodd" fill="none" stroke="#575756" stroke-width="6.4201" stroke-linecap="round" stroke-miterlimit="22.9256" d="
		M1011.7,911.3c-0.1-1.6-1.6-14.1-2.1-15.8c-3-10-13.8-20.5-43-5.5"/>
	<path fill-rule="evenodd" clip-rule="evenodd" fill="#6E8935" d="M976.5,638.5c1.4-2.5,7.8-17.7,4.4-17
		C977.5,622.1,970.3,638.5,976.5,638.5z"/>
	<path fill-rule="evenodd" clip-rule="evenodd" fill="#6E8935" d="M954.3,647.5c-2-7.2-9.6-26.3-6.4-27.3c3.2-1,6.5,13.5,9.5,11.8
		c3-1.7-6.6-20.4-3.4-21.9c3.2-1.5,7,18,9.5,16.7s-3.2-21.7-0.5-22.8c2.7-1.1,5.1,21.2,8.5,19.5c3.4-1.7,0.4-17.5,3.6-18.3
		c3.9-1,3.6,17.9,1.6,32C974.7,651.3,963.3,658.1,954.3,647.5z"/>
	<path fill-rule="evenodd" clip-rule="evenodd" fill="#6E8935" d="M964.9,688.8c-1-6.8-3.6-25.3-7.1-33.3c-3.5-8-1.8-3.2-3.3-7.7
		c-1.5-4.6,23.5-16.2,21.4-6.8c-2.1,9.3-5,20.2,3.4,20.3C987.8,661.3,986.9,696.5,964.9,688.8z"/>
	<path fill-rule="evenodd" clip-rule="evenodd" fill="#6E8935" d="M966.1,692.5c-1.2-3.7-10.5-24-5-26c5.5-2,9.8-4.8,13.9-7.8
		c4.1-3,5.7,2.1,11.2,3.4C991.6,663.5,981.1,686.2,966.1,692.5z"/>
	<g>
		<path fill-rule="evenodd" clip-rule="evenodd" fill="#575756" d="M337.9,699.7L337.9,699.7c3.8,0,6.9,3.1,6.9,6.9V949
			c0,3.8-3.1,6.9-6.9,6.9l0,0c-3.8,0-6.9-3.1-6.9-6.9V706.6C331,702.8,334.1,699.7,337.9,699.7z"/>
		<path fill-rule="evenodd" clip-rule="evenodd" fill="#575756" d="M811.4,699.7L811.4,699.7c3.8,0,6.9,3.1,6.9,6.9V949
			c0,3.8-3.1,6.9-6.9,6.9l0,0c-3.8,0-6.9-3.1-6.9-6.9V706.6C804.6,702.8,807.7,699.7,811.4,699.7z"/>
	</g>
	<path fill-rule="evenodd" clip-rule="evenodd" fill="#F1B22B" d="M688.3,393.5l-98.6,105.3L630,390.2
		c-111.4-16.1-195.3-86.4-195.3-170.7c0-96.2,109.1-174.1,243.8-174.1c134.6,0,243.8,78,243.8,174.1
		C922.2,313.3,818.4,389.8,688.3,393.5z"/>
	<path fill-rule="evenodd" clip-rule="evenodd" fill="#F1B22B" d="M181.6,162.8c100.3,0,181.6,58.1,181.6,129.7
		c0,69.9-77.4,126.8-174.2,129.6l-73.4,78.4l30-80.9C62.5,407.7,0,355.3,0,292.5C0,220.9,81.3,162.8,181.6,162.8z"/>
	<path fill-rule="evenodd" clip-rule="evenodd" fill="#6E8935" d="M384.7,326.7l83.9,89.7l-34.2-92.5
		c94.9-13.7,166.3-73.5,166.3-145.4c0-81.9-92.9-148.3-207.6-148.3c-114.7,0-207.6,66.4-207.6,148.3
		C185.6,258.4,274,323.5,384.7,326.7z"/>
	<path fill-rule="evenodd" clip-rule="evenodd" fill="#6E78D9" d="M474.6,315c-25.2-27.4-39.9-60.2-39.9-95.5
		c0-60.1,42.6-113,107.4-144.3c36.4,26.7,58.8,63.2,58.8,103.4C600.8,239.8,548.8,292.4,474.6,315z"/>
	<path fill-rule="evenodd" clip-rule="evenodd" fill="#546AB0" d="M1012.9,449.2l47,50.2l-19.2-51.8c53.1-7.7,93.1-41.2,93.1-81.4
		c0-45.8-52-83-116.2-83s-116.2,37.2-116.2,83C901.4,411,950.9,447.4,1012.9,449.2z"/>
	<path fill-rule="evenodd" clip-rule="evenodd" fill="#E11F1C" d="M223,216.6l47,50.2L250.8,215c53.1-7.7,93.1-41.2,93.1-81.4
		c0-45.8-52-83-116.2-83s-116.2,37.2-116.2,83C111.5,178.4,161,214.8,223,216.6z"/>
	<path fill-rule="evenodd" clip-rule="evenodd" fill="#546AB0" d="M536.4,126.1l-35.7,38.1l14.6-39.3c-40.4-5.8-70.8-31.3-70.8-61.8
		C444.4,28.2,484,0,532.8,0c48.8,0,88.3,28.2,88.3,63.1C621.1,97.1,583.5,124.8,536.4,126.1z"/>
	<path fill-rule="evenodd" clip-rule="evenodd" fill="#E11F1C" d="M949,498.7L918.7,531l12.3-33.3c-34.1-4.9-59.9-26.5-59.9-52.3
		c0-29.5,33.5-53.4,74.7-53.4c41.3,0,74.7,23.9,74.7,53.4C1020.6,474.2,988.8,497.6,949,498.7z"/>
</g>
</svg>
