<svg xmlns="http://www.w3.org/2000/svg" xmlns:xlink="http://www.w3.org/1999/xlink" version="1.1" x="0px" y="0px" viewBox="0 0 100 125" style="enable-background:new 0 0 100 100;" xml:space="preserve"><path d="M7.9,85.8V98H62V85.8c0-7.4-5.7-13.1-13.1-13.1H21.1C14,72.7,7.9,78.6,7.9,85.8z"/><path d="M34.9,67.3c8.3,0,15.1-6.8,15.1-15.1s-6.8-15.1-15.1-15.1s-15.1,6.8-15.1,15.1  C19.9,60.5,26.6,67.3,34.9,67.3z"/><path d="M70.3,69.6c6.6,0,11.8-5.4,11.8-11.8s-5.4-11.8-11.8-11.8c-6.6,0-11.8,5.4-11.8,11.8S63.7,69.6,70.3,69.6z"/><path d="M81.2,73.9H60.8c3.4,2.9,5.5,7.3,5.5,12.1L66.8,98h24.8V84.2C91.6,78.4,87,73.9,81.2,73.9z"/><path d="M83.7,16C81.2,6.5,71.6,0.9,62.1,3.4C52.7,5.9,47,15.5,49.5,25c1.2,4.5,4,8.1,7.6,10.4l-4.6,7.1l18.7-4.9  C80.6,35.1,86.2,25.4,83.7,16z M68.5,28.1h-3.7v-3.4h3.7V28.1z M68.5,21.7h-3.7V11.6h3.7V21.7z"/><text x="0" y="115" fill="#000000" font-size="5px" font-weight="bold" font-family="'Helvetica Neue', Helvetica, Arial-Unicode, Arial, Sans-serif">Created by Aneeque Ahmed</text><text x="0" y="120" fill="#000000" font-size="5px" font-weight="bold" font-family="'Helvetica Neue', Helvetica, Arial-Unicode, Arial, Sans-serif">from the Noun Project</text></svg>