<svg xmlns="http://www.w3.org/2000/svg" xmlns:xlink="http://www.w3.org/1999/xlink" version="1.1" x="0px" y="0px" viewBox="0 0 128 160" style="enable-background:new 0 0 128 128;" xml:space="preserve"><style type="text/css">
	.st0{display:none;}
	.st1{display:inline;}
	.st2{fill:none;stroke:#000000;stroke-width:0.1;stroke-miterlimit:10;}
</style><g class="st0"><g class="st1"><rect class="st2" width="128" height="128"/><line class="st2" x1="0" y1="124" x2="128" y2="124"/><line class="st2" x1="0" y1="120" x2="128" y2="120"/><line class="st2" x1="0" y1="116" x2="128" y2="116"/><line class="st2" x1="0" y1="112" x2="128" y2="112"/><line class="st2" x1="0" y1="108" x2="128" y2="108"/><line class="st2" x1="0" y1="104" x2="128" y2="104"/><line class="st2" x1="0" y1="100" x2="128" y2="100"/><line class="st2" x1="0" y1="96" x2="128" y2="96"/><line class="st2" x1="0" y1="92" x2="128" y2="92"/><line class="st2" x1="0" y1="88" x2="128" y2="88"/><line class="st2" x1="0" y1="84" x2="128" y2="84"/><line class="st2" x1="0" y1="80" x2="128" y2="80"/><line class="st2" x1="0" y1="76" x2="128" y2="76"/><line class="st2" x1="0" y1="72" x2="128" y2="72"/><line class="st2" x1="0" y1="68" x2="128" y2="68"/><line class="st2" x1="0" y1="64" x2="128" y2="64"/><line class="st2" x1="0" y1="60" x2="128" y2="60"/><line class="st2" x1="0" y1="56" x2="128" y2="56"/><line class="st2" x1="0" y1="52" x2="128" y2="52"/><line class="st2" x1="0" y1="48" x2="128" y2="48"/><line class="st2" x1="0" y1="44" x2="128" y2="44"/><line class="st2" x1="0" y1="40" x2="128" y2="40"/><line class="st2" x1="0" y1="36" x2="128" y2="36"/><line class="st2" x1="0" y1="32" x2="128" y2="32"/><line class="st2" x1="0" y1="28" x2="128" y2="28"/><line class="st2" x1="0" y1="24" x2="128" y2="24"/><line class="st2" x1="0" y1="20" x2="128" y2="20"/><line class="st2" x1="0" y1="16" x2="128" y2="16"/><line class="st2" x1="0" y1="12" x2="128" y2="12"/><line class="st2" x1="0" y1="8" x2="128" y2="8"/><line class="st2" x1="0" y1="4" x2="128" y2="4"/><line class="st2" x1="124" y1="0" x2="124" y2="128"/><line class="st2" x1="120" y1="0" x2="120" y2="128"/><line class="st2" x1="116" y1="0" x2="116" y2="128"/><line class="st2" x1="112" y1="0" x2="112" y2="128"/><line class="st2" x1="108" y1="0" x2="108" y2="128"/><line class="st2" x1="104" y1="0" x2="104" y2="128"/><line class="st2" x1="100" y1="0" x2="100" y2="128"/><line class="st2" x1="96" y1="0" x2="96" y2="128"/><line class="st2" x1="92" y1="0" x2="92" y2="128"/><line class="st2" x1="88" y1="0" x2="88" y2="128"/><line class="st2" x1="84" y1="0" x2="84" y2="128"/><line class="st2" x1="80" y1="0" x2="80" y2="128"/><line class="st2" x1="76" y1="0" x2="76" y2="128"/><line class="st2" x1="72" y1="0" x2="72" y2="128"/><line class="st2" x1="68" y1="0" x2="68" y2="128"/><line class="st2" x1="64" y1="0" x2="64" y2="128"/><line class="st2" x1="60" y1="0" x2="60" y2="128"/><line class="st2" x1="56" y1="0" x2="56" y2="128"/><line class="st2" x1="52" y1="0" x2="52" y2="128"/><line class="st2" x1="48" y1="0" x2="48" y2="128"/><line class="st2" x1="44" y1="0" x2="44" y2="128"/><line class="st2" x1="40" y1="0" x2="40" y2="128"/><line class="st2" x1="36" y1="0" x2="36" y2="128"/><line class="st2" x1="32" y1="0" x2="32" y2="128"/><line class="st2" x1="28" y1="0" x2="28" y2="128"/><line class="st2" x1="24" y1="0" x2="24" y2="128"/><line class="st2" x1="20" y1="0" x2="20" y2="128"/><line class="st2" x1="16" y1="0" x2="16" y2="128"/><line class="st2" x1="12" y1="0" x2="12" y2="128"/><line class="st2" x1="8" y1="0" x2="8" y2="128"/><line class="st2" x1="4" y1="0" x2="4" y2="128"/></g></g><g><g><path d="M57.1,118c4-12.3,7.6-28.7,1.6-37.5l-0.1-0.2c-0.3-0.4-0.6-1-1.2-1.6l0,0c-2.6-2.7-5.1-5-7.6-7.2c-2.5-2.2-5-4.4-7.5-7.1    c-0.2-0.2-0.8-0.8-1.8-1.3c-1.5-0.7-3.9-0.9-5.8,0.7c-1.8,1.5-2,3.6-2,4.3c0,2.5,1.7,4.3,2.5,5.2l3.1,3.3c2,2.1,4,4.2,6,6.3    c0.1,0.4,0.1,0.8-0.1,0.9c-0.1,0.1-0.2,0.1-0.3,0.1L31.2,70.6c-1.9-2-2.7-3.9-3.1-4.8c-0.1-0.2-0.2-0.4-0.2-0.5    c-1.6-3.2-2.5-6.1-2.8-6.9c-0.5-1.8-1.2-3.6-1.8-5.4c-0.4-1-0.7-2.1-1.1-3.1c-0.3-0.9-0.8-1.6-1.4-2.2C19,46,16.1,45.9,14,47.5    l-0.1,0.1c-0.1,0.1-0.2,0.1-0.3,0.3c-0.8,0.8-1.5,1.9-1.9,3.5c-0.3,1.4,0.3,3.1,0.8,4.5c0.1,0.3,0.2,0.6,0.3,0.8l1.3,4    c1,3.1,2,6.1,2.9,9.2l2.9,7.5c0.7,1.8,1.7,3.4,3,4.7l12,12.6c1.4,1.3,2.3,2.9,2.7,4.7c0.4,1.8,0.3,3.3,0.2,4l-0.1,0.8l0.6,0.5    c5.2,4.3,10.2,8.6,16.2,13.9l1.7,1.5L57.1,118z M41,102.9c0.1-1.1,0-2.6-0.4-4.3c-0.6-2.4-1.8-4.5-3.5-6.2L25.1,80    c-1-1.1-1.8-2.3-2.4-3.7l-2.9-7.4c-1-3.1-2-6.1-2.9-9.2l-1.3-4c-0.1-0.3-0.2-0.6-0.3-1c-0.3-0.7-0.8-2.2-0.7-2.7    c0.3-1.2,0.7-1.7,1-2l0.1-0.1c0,0,0.1,0,0.1-0.1c1-0.7,2.2-0.7,3,0.1c0.3,0.2,0.5,0.6,0.6,0.9c0.3,1.1,0.7,2.1,1.1,3.1    c0.6,1.7,1.2,3.5,1.7,5.2c0.3,0.9,1.2,4,3,7.4c0,0.1,0.1,0.2,0.1,0.3c0.4,1,1.4,3.3,3.7,5.7l12.5,13c0.2,0.3,0.4,0.5,0.7,0.7    c1.2,0.9,3,0.5,4.1-0.4c1.2-1.1,1.5-3,0.7-4.7l-0.1-0.2l-0.2-0.2c-2.1-2.1-4.1-4.3-6.2-6.5l-3.2-3.3c-0.6-0.6-1.6-1.7-1.6-3    c0-0.2,0.1-1.3,0.9-2c0.8-0.7,2-0.6,2.7-0.3c0.4,0.2,0.7,0.5,0.8,0.6c2.6,2.7,5.1,5,7.6,7.2c2.4,2.2,5,4.4,7.4,7    c0.4,0.4,0.6,0.8,0.8,1.2c0.1,0.1,0.1,0.2,0.2,0.3c3.9,5.8,3.4,17.4-1.3,32.7C49.9,110.5,45.4,106.7,41,102.9z"/><path d="M33.3,109.9l16.2,17l5.6-5.8l-17.7-15.5L33.3,109.9z M37.6,109.7l13.1,11.6l-1.2,1.3l-12.1-12.7L37.6,109.7z"/><path d="M108,77.3l2.9-7.4l0-0.1c1-3.1,2-6.1,2.9-9.2l1.3-4c0.1-0.2,0.2-0.5,0.3-0.8c0.5-1.4,1.1-3.1,0.8-4.5    c-0.4-1.5-1-2.6-1.8-3.4c-0.1-0.1-0.2-0.2-0.3-0.3l-0.1-0.1c-2.1-1.6-5-1.5-6.9,0.3c-0.6,0.6-1.1,1.3-1.4,2.2    c-0.3,1-0.7,2.1-1.1,3.1c-0.6,1.7-1.3,3.6-1.8,5.4c-0.2,0.8-1.2,3.7-2.8,6.9c-0.1,0.1-0.1,0.3-0.2,0.5c-0.4,0.9-1.2,2.8-3.1,4.8    L84.1,83.7L84,83.8c-0.1,0-0.2-0.1-0.3-0.1c-0.1-0.1-0.2-0.5-0.1-0.9c2-2.1,4-4.2,6-6.3l3.1-3.3c0.8-0.8,2.5-2.6,2.5-5.1    c0-0.6-0.2-2.8-2-4.3c-1.9-1.6-4.3-1.4-5.8-0.7c-1,0.4-1.6,1.1-1.8,1.3c-2.5,2.6-5,4.9-7.4,7c-2.5,2.2-5.1,4.5-7.6,7.2    c-0.6,0.6-0.9,1.2-1.2,1.6l-0.1,0.2l0,0c-5.9,8.8-2.4,25.2,1.6,37.5l0.7,2.2l1.7-1.5c6-5.2,11.1-9.6,16.2-13.9l0.6-0.5l-0.1-0.8    c-0.1-0.7-0.2-2.2,0.2-4c0.4-1.8,1.3-3.4,2.7-4.8L105,82C106.3,80.7,107.3,79.1,108,77.3z M90.9,92.4c-1.8,1.7-3,3.8-3.5,6.2    c-0.4,1.7-0.4,3.2-0.4,4.3c-4.5,3.7-8.9,7.5-14,11.9c-4.7-15.4-5.2-26.9-1.3-32.7c0.1-0.1,0.1-0.2,0.2-0.3    c0.2-0.3,0.5-0.8,0.8-1.2c2.5-2.6,5-4.9,7.4-7c2.5-2.2,5.1-4.5,7.7-7.2c0.1-0.1,0.4-0.4,0.8-0.6c0.7-0.3,1.9-0.4,2.7,0.3    c0.8,0.7,0.9,1.8,0.9,2c0,1.3-1,2.4-1.7,3.1l-3.1,3.3c-2.1,2.2-4.1,4.3-6.2,6.5l-0.2,0.2L81,81.3c-0.8,1.7-0.5,3.6,0.7,4.7    c1,0.9,2.8,1.3,4.1,0.4c0.3-0.2,0.5-0.4,0.7-0.7l12.5-13c2.3-2.4,3.3-4.7,3.7-5.7c0.1-0.1,0.1-0.2,0.1-0.3c1.8-3.4,2.7-6.5,3-7.4    c0.5-1.8,1.1-3.5,1.7-5.2c0.4-1,0.7-2.1,1.1-3.1c0.1-0.4,0.3-0.7,0.6-0.9c0.8-0.7,2-0.8,3-0.1c0,0,0.1,0,0.1,0.1l0.1,0.1    c0.3,0.3,0.7,0.8,1,2c0.1,0.5-0.4,2-0.7,2.7c-0.1,0.4-0.3,0.7-0.3,1l-1.3,4c-1,3.1-2,6.1-2.9,9.2l-2.9,7.4    c-0.5,1.4-1.3,2.6-2.4,3.7L90.9,92.4z"/><path d="M72.9,121.1l5.6,5.8l16.2-17l-4.1-4.3L72.9,121.1z M78.5,122.5l-1.2-1.3l13.1-11.6l0.2,0.2L78.5,122.5z"/><path d="M65.1,75c1.6,0,3-1.3,3.1-2.9c2.6-1.1,4.4-3.6,4.4-6.6v-9.6c7.8-3.6,12.8-11.4,12.8-20c0-6.1-2.5-11.9-7-16.1    c-4.5-4.2-10.3-6.3-16.5-5.9c-11,0.7-19.9,9.5-20.6,20.6c-0.6,9.2,4.5,17.7,12.8,21.5v9.6c0,3.4,2.4,6.3,5.7,7    c0.3,1.4,1.5,2.5,3,2.5H65.1z M56.1,53.5c-7.6-3.1-12.4-10.7-11.8-18.9c0.6-9.5,8.3-17.2,17.8-17.8c0.4,0,0.8,0,1.2,0    c4.9,0,9.5,1.8,13,5.2c3.9,3.6,6,8.6,6,13.9c0,7.8-4.7,14.7-11.9,17.6l-0.9,0.4v8.7h-4.1V42.3l6.3-4.4L70,35.4l-5.9,4.2l-4-4    L58,37.7l4.4,4.4v20.4h-5.4v-8.7L56.1,53.5z M57.1,65.6h12.5c0,2.2-1.9,4-4.1,4h-4.2C58.9,69.7,57.1,67.9,57.1,65.6z"/><rect x="39.5" y="14.3" transform="matrix(0.7071 -0.7071 0.7071 0.7071 -0.6292 34.2274)" width="3" height="7.1"/><rect x="83.2" y="16.4" transform="matrix(0.7071 -0.7071 0.7071 0.7071 12.7792 66.5963)" width="7.1" height="3"/><rect x="59.7" y="5.4" transform="matrix(3.255602e-02 -0.9995 0.9995 3.255602e-02 54.356 69.923)" width="7.1" height="3"/></g></g><text x="0" y="143" fill="#000000" font-size="5px" font-weight="bold" font-family="'Helvetica Neue', Helvetica, Arial-Unicode, Arial, Sans-serif">Created by SBTS</text><text x="0" y="148" fill="#000000" font-size="5px" font-weight="bold" font-family="'Helvetica Neue', Helvetica, Arial-Unicode, Arial, Sans-serif">from the Noun Project</text></svg>