<svg xmlns="http://www.w3.org/2000/svg" xmlns:xlink="http://www.w3.org/1999/xlink" version="1.1" x="0px" y="0px" viewBox="0 0 64 80" enable-background="new 0 0 64 64" xml:space="preserve"><g><g><g><g><path d="M15.003,28.5c-0.209,0-0.419-0.065-0.599-0.2c-0.442-0.331-0.532-0.958-0.2-1.399l6-8c0.331-0.442,0.959-0.53,1.399-0.2      c0.442,0.331,0.532,0.958,0.2,1.399l-6,8C15.607,28.362,15.308,28.5,15.003,28.5z"/></g><g><path d="M27.005,28.5c-0.305,0-0.604-0.138-0.801-0.4l-6-8c-0.332-0.441-0.242-1.068,0.2-1.399      c0.44-0.332,1.068-0.243,1.399,0.2l6,8c0.332,0.441,0.242,1.068-0.2,1.399C27.424,28.435,27.214,28.5,27.005,28.5z"/></g><g><path d="M9.003,28.5c-0.219,0-0.439-0.071-0.624-0.219c-0.431-0.346-0.501-0.975-0.156-1.406l4-5      c0.346-0.43,0.975-0.502,1.406-0.156c0.431,0.346,0.501,0.975,0.156,1.406l-4,5C9.587,28.371,9.297,28.5,9.003,28.5z"/></g><g><path d="M15.972,27.209c-0.294,0-0.584-0.129-0.782-0.375l-2.967-3.709c-0.345-0.432-0.274-1.061,0.156-1.406      c0.433-0.346,1.061-0.273,1.406,0.156l2.967,3.709c0.345,0.432,0.274,1.061-0.156,1.406      C16.411,27.138,16.19,27.209,15.972,27.209z"/></g></g><g><path d="M11.034,17.5c-0.553,0-1.005-0.447-1.005-1s0.442-1,0.994-1h0.011c0.552,0,1,0.447,1,1S11.586,17.5,11.034,17.5z"/></g><g><g><path d="M4.026,5.5c-0.553,0-1.005-0.447-1.005-1s0.442-1,0.994-1h0.011c0.552,0,1,0.447,1,1S4.578,5.5,4.026,5.5z"/></g><g><path d="M7.026,5.5c-0.553,0-1.005-0.447-1.005-1s0.442-1,0.994-1h0.011c0.552,0,1,0.447,1,1S7.578,5.5,7.026,5.5z"/></g><g><path d="M10.026,5.5c-0.553,0-1.005-0.447-1.005-1s0.442-1,0.994-1h0.011c0.552,0,1,0.447,1,1S10.578,5.5,10.026,5.5z"/></g><g><path d="M63.004,62.5H1.014c-0.553,0-1-0.447-1-1v-55c0-0.553,0.447-1,1-1h61.99c0.553,0,1,0.447,1,1v55      C64.004,62.053,63.557,62.5,63.004,62.5z M2.014,60.5h59.99v-53H2.014V60.5z"/></g><g><path d="M0.996,5.5c-0.553,0-1-0.447-1-1c0-1.654,1.346-3,3-3c0.553,0,1,0.447,1,1s-0.447,1-1,1c-0.552,0-1,0.448-1,1      C1.996,5.053,1.549,5.5,0.996,5.5z"/></g><g><path d="M0.996,7.5c-0.553,0-1-0.447-1-1v-2c0-0.553,0.447-1,1-1s1,0.447,1,1v2C1.996,7.053,1.549,7.5,0.996,7.5z"/></g><g><path d="M62.986,5.5c-0.553,0-1-0.447-1-1c0-0.552-0.448-1-1-1c-0.553,0-1-0.447-1-1s0.447-1,1-1c1.654,0,3,1.346,3,3      C63.986,5.053,63.539,5.5,62.986,5.5z"/></g><g><path d="M62.986,7.5c-0.553,0-1-0.447-1-1v-2c0-0.553,0.447-1,1-1s1,0.447,1,1v2C63.986,7.053,63.539,7.5,62.986,7.5z"/></g><g><path d="M60.986,3.5H2.996c-0.553,0-1-0.447-1-1s0.447-1,1-1h57.99c0.553,0,1,0.447,1,1S61.539,3.5,60.986,3.5z"/></g></g><g><path d="M29.004,28.5h-23c-0.553,0-1-0.447-1-1v-16c0-0.553,0.447-1,1-1h23c0.553,0,1,0.447,1,1v16     C30.004,28.053,29.557,28.5,29.004,28.5z M7.004,26.5h21v-14h-21V26.5z"/></g><g><path d="M29.004,32.5h-23c-0.553,0-1-0.447-1-1s0.447-1,1-1h23c0.553,0,1,0.447,1,1S29.557,32.5,29.004,32.5z"/></g><g><path d="M29.004,36.5h-23c-0.553,0-1-0.447-1-1s0.447-1,1-1h23c0.553,0,1,0.447,1,1S29.557,36.5,29.004,36.5z"/></g><g><path d="M17.004,40.5h-11c-0.553,0-1-0.447-1-1s0.447-1,1-1h11c0.553,0,1,0.447,1,1S17.557,40.5,17.004,40.5z"/></g><g><path d="M58.004,28.5h-23c-0.553,0-1-0.447-1-1v-16c0-0.553,0.447-1,1-1h23c0.553,0,1,0.447,1,1v16     C59.004,28.053,58.557,28.5,58.004,28.5z M36.004,26.5h21v-14h-21V26.5z"/></g><g><path d="M58.004,32.5h-23c-0.553,0-1-0.447-1-1s0.447-1,1-1h23c0.553,0,1,0.447,1,1S58.557,32.5,58.004,32.5z"/></g><g><path d="M58.004,36.5h-23c-0.553,0-1-0.447-1-1s0.447-1,1-1h23c0.553,0,1,0.447,1,1S58.557,36.5,58.004,36.5z"/></g><g><path d="M45.004,40.5h-10c-0.553,0-1-0.447-1-1s0.447-1,1-1h10c0.553,0,1,0.447,1,1S45.557,40.5,45.004,40.5z"/></g><g><path d="M58.004,57.5h-52c-0.553,0-1-0.447-1-1v-12c0-0.553,0.447-1,1-1h52c0.553,0,1,0.447,1,1v12     C59.004,57.053,58.557,57.5,58.004,57.5z M7.004,55.5h50v-10h-50V55.5z"/></g><g><path d="M32.004,54.5c-0.256,0-0.512-0.098-0.707-0.293L30.59,53.5h-0.586c-0.553,0-1-0.447-1-1v-0.586l-0.705-0.705     c-0.391-0.391-0.391-1.022-0.001-1.413l0.706-0.708V48.5c0-0.553,0.447-1,1-1h0.586l0.707-0.707c0.391-0.391,1.023-0.391,1.414,0     l0.707,0.707h0.586c0.553,0,1,0.447,1,1v0.587l0.708,0.705c0.188,0.187,0.294,0.441,0.294,0.707c0,0.265-0.104,0.52-0.292,0.707     l-0.709,0.71l-0.001,0.586c-0.001,0.552-0.448,0.998-1,0.998h-0.586l-0.707,0.707C32.516,54.402,32.26,54.5,32.004,54.5z      M31.004,51.5c0.266,0,0.52,0.105,0.707,0.293l0.293,0.293l0.293-0.293c0.188-0.188,0.441-0.293,0.707-0.293     c0.001-0.265,0.105-0.519,0.293-0.705l0.294-0.294L33.3,50.21c-0.188-0.188-0.293-0.441-0.294-0.706L33.004,49.5     c-0.266,0-0.52-0.105-0.707-0.293l-0.293-0.293l-0.293,0.293c-0.188,0.188-0.441,0.293-0.707,0.293v0.002     c0,0.265-0.105,0.519-0.292,0.706l-0.293,0.293l0.292,0.292C30.898,50.98,31.004,51.234,31.004,51.5z"/></g><g><path d="M24.004,49.5h-14c-0.553,0-1-0.447-1-1s0.447-1,1-1h14c0.553,0,1,0.447,1,1S24.557,49.5,24.004,49.5z"/></g><g><path d="M20.004,53.5h-6c-0.553,0-1-0.447-1-1s0.447-1,1-1h6c0.553,0,1,0.447,1,1S20.557,53.5,20.004,53.5z"/></g><g><path d="M54.004,49.5h-14c-0.553,0-1-0.447-1-1s0.447-1,1-1h14c0.553,0,1,0.447,1,1S54.557,49.5,54.004,49.5z"/></g><g><path d="M50.004,53.5h-6c-0.553,0-1-0.447-1-1s0.447-1,1-1h6c0.553,0,1,0.447,1,1S50.557,53.5,50.004,53.5z"/></g><g><g><path d="M44.004,24.5c-0.553,0-1-0.447-1-1v-8c0-0.553,0.447-1,1-1s1,0.447,1,1v8C45.004,24.053,44.557,24.5,44.004,24.5z"/></g><g><path d="M44.005,24.5c-0.323,0-0.641-0.156-0.833-0.445c-0.307-0.46-0.183-1.08,0.277-1.387l6-4      c0.46-0.307,1.08-0.183,1.387,0.277s0.183,1.08-0.277,1.387l-6,4C44.388,24.445,44.195,24.5,44.005,24.5z"/></g><g><path d="M50.003,20.5c-0.19,0-0.383-0.055-0.554-0.168l-6-4c-0.46-0.307-0.584-0.927-0.277-1.387      c0.306-0.46,0.925-0.584,1.387-0.277l6,4c0.46,0.307,0.584,0.927,0.277,1.387C50.644,20.344,50.326,20.5,50.003,20.5z"/></g></g></g></g><text x="0" y="79" fill="#000000" font-size="5px" font-weight="bold" font-family="'Helvetica Neue', Helvetica, Arial-Unicode, Arial, Sans-serif">Created by lastspark</text><text x="0" y="84" fill="#000000" font-size="5px" font-weight="bold" font-family="'Helvetica Neue', Helvetica, Arial-Unicode, Arial, Sans-serif">from the Noun Project</text></svg>