<svg xmlns="http://www.w3.org/2000/svg" xmlns:xlink="http://www.w3.org/1999/xlink" version="1.1" x="0px" y="0px" viewBox="0 0 100 125" enable-background="new 0 0 100 100" xml:space="preserve"><g><path fill="#000000" d="M93.687,52.567L74.618,41.368V26.589h-9.826v9.008l-12.795-7.516L10.305,52.567   c-1.395,0.819-1.861,2.613-1.042,4.008c0.546,0.931,1.524,1.447,2.529,1.447c0.505,0,1.015-0.13,1.481-0.402l5.063-2.975v26.578   h5.858V51.205l27.803-16.33L90.72,57.62c1.396,0.819,3.189,0.353,4.01-1.045C95.548,55.181,95.081,53.387,93.687,52.567z"/><rect x="15.593" y="31.938" transform="matrix(-0.8623 0.5064 -0.5064 -0.8623 72.2896 50.0775)" fill="#000000" width="27.485" height="5.859"/><rect x="18.758" y="22.746" transform="matrix(0.4859 0.874 -0.874 0.4859 32.6933 -7.9468)" fill="#000000" width="8.688" height="2.141"/><rect x="5.434" y="36.392" transform="matrix(0.9514 0.3078 -0.3078 0.9514 12.0071 -1.1905)" fill="#000000" width="8.686" height="2.142"/><rect x="10.899" y="28.628" transform="matrix(0.752 0.6591 -0.6591 0.752 23.3548 -2.6818)" fill="#000000" width="8.685" height="2.143"/><rect x="40.927" y="15.21" transform="matrix(0.9706 0.2408 -0.2408 0.9706 5.9448 -9.5384)" fill="#000000" width="2.141" height="8.687"/><rect x="28.176" y="19.024" transform="matrix(0.1626 0.9867 -0.9867 0.1626 47.0596 -15.2581)" fill="#000000" width="8.685" height="2.143"/><path fill="#000000" d="M29.166,53.617v27.606h45.453V53.617L51.893,40.103L29.166,53.617z M64.591,56.674   c1.139-1.14,2.987-1.14,4.127-0.002c1.139,1.142,1.139,2.988,0,4.128l-5.654,5.654l5.654,5.655c1.139,1.139,1.139,2.986,0,4.126   c-0.571,0.569-1.318,0.855-2.065,0.855c-0.746,0-1.492-0.286-2.062-0.855l-9.78-9.781L64.591,56.674z"/><path fill="#000000" d="M79.242,56.674c-1.141,1.14-1.141,2.986,0,4.127l5.654,5.653l-5.654,5.655c-1.141,1.14-1.141,2.986,0,4.128   c0.569,0.567,1.315,0.854,2.062,0.854s1.493-0.286,2.063-0.855l9.78-9.781l-9.78-9.78C82.228,55.535,80.381,55.535,79.242,56.674z"/></g><text x="0" y="115" fill="#000000" font-size="5px" font-weight="bold" font-family="'Helvetica Neue', Helvetica, Arial-Unicode, Arial, Sans-serif">Created by gzz</text><text x="0" y="120" fill="#000000" font-size="5px" font-weight="bold" font-family="'Helvetica Neue', Helvetica, Arial-Unicode, Arial, Sans-serif">from the Noun Project</text></svg>