<svg xmlns="http://www.w3.org/2000/svg" xmlns:xlink="http://www.w3.org/1999/xlink" version="1.1" x="0px" y="0px" viewBox="0 0 50 62.5" enable-background="new 0 0 50 50" xml:space="preserve"><g><path d="M10.23999,13.44995c3.09009,0,5.58008-3.77002,5.58008-6.88C15.82007,3.5,13.32007,1,10.23999,1   C7.16016,1,4.66016,3.5,4.66016,6.56995C4.66016,9.67993,7.15015,13.44995,10.23999,13.44995z"/><path d="M19.20996,24.53003v-3.33008c-0.06982-4.18994-3.54004-7.59998-7.73999-7.59998H8.75   c-2.08008,0-4.02002,0.79993-5.47998,2.26001c-1.3999,1.38-2.19995,3.22998-2.27002,5.21997v3.45007c0,0.54993,0.4502,1,1,1   h16.20996C18.76001,25.53003,19.20996,25.07996,19.20996,24.53003z"/><path d="M41.27002,37.06995h-2.72998c-2.08008,0-4.02002,0.79993-5.47998,2.26001c-1.39014,1.38-2.19995,3.21997-2.27002,5.21997   V48c0,0.54993,0.44995,1,1,1H48c0.56006,0,1-0.45007,1-1v-3.32007c0,0,0-0.01001,0-0.02002   C48.93994,40.47998,45.46997,37.06995,41.27002,37.06995z"/><path d="M34.4502,30.04004c0,3.10986,2.48975,6.87988,5.57983,6.87988s5.58008-3.77002,5.58008-6.87988   c0-3.07007-2.5-5.57007-5.58008-5.57007C36.9502,24.46997,34.4502,26.96997,34.4502,30.04004z"/><path d="M24.94824,24.00781c-2.74381-0.94215-0.2467-4.02776,1.28271-2.36108c0.375,0.40723,1.00977,0.43262,1.41309,0.05859   c0.40625-0.37402,0.43262-1.00635,0.05957-1.41309c-0.4563-0.49561-1.02783-0.81885-1.63477-0.98206v-1.1322   c0-0.55225-0.44727-1-1-1s-1,0.44775-1,1v1.19141c-1.2981,0.44085-2.25326,1.63154-2.31836,3.08008   c-0.04102,0.91455,0.27832,1.79053,0.90039,2.4668c0.56337,0.61243,1.59918,1.08987,2.29712,1.07837   c2.15406,0.23805,1.6766,2.88917-0.00317,2.83179c-0.39844-0.00586-0.76465-0.16943-1.03223-0.46045   c-1.1875-1.29137-3.32176,1.37927,0.15625,2.328c0.07096,0.33989-0.36318,2.14221,1,2.14221c1.40535,0,0.9156-1.78946,1-2.20569   c2.29675-0.77829,2.96578-3.4827,1.66406-5.24255C27.04289,24.45463,26.01654,23.98687,24.94824,24.00781z"/><path d="M26.28662,13.92554c0.38829,0.38732,1.02111,0.39198,1.41406-0.00195c0.38965-0.39111,0.38867-1.02441-0.00195-1.41406   l-2.11279-2.10632c6.99756,0.2439,12.77271,5.38208,13.93408,12.0968c0.16992-0.02002,0.34009-0.03003,0.51001-0.03003   c0.53003,0,1.04004,0.05005,1.54004,0.1499c-1.14795-7.88843-7.86401-13.99072-16.03174-14.21838l2.1604-2.15369   c0.39063-0.38965,0.3916-1.02295,0.00195-1.41406s-1.02246-0.39209-1.41406-0.00195l-3.85059,3.83887   c-0.18848,0.1875-0.29395,0.44238-0.29395,0.70801s0.10547,0.52051,0.29395,0.70801L26.28662,13.92554z"/><path d="M23.84814,36.08862c-0.3916-0.38965-1.02441-0.38867-1.41406,0.00195c-0.38965,0.39111-0.38867,1.02441,0.00195,1.41406   l2.11865,2.11206c-7.00708-0.24353-12.77344-5.38159-13.94458-12.08667H8.58008c1.19629,7.82544,7.8877,13.85681,16.01099,14.08789   l-2.15503,2.14844c-0.39063,0.38965-0.3916,1.02295-0.00195,1.41406c0.38732,0.38828,1.02013,0.3949,1.41406,0.00195   l3.85059-3.83887c0.18848-0.1875,0.29395-0.44238,0.29395-0.70801s-0.10547-0.52051-0.29395-0.70801L23.84814,36.08862z"/></g><text x="0" y="65" fill="#000000" font-size="5px" font-weight="bold" font-family="'Helvetica Neue', Helvetica, Arial-Unicode, Arial, Sans-serif">Created by Vectors Point</text><text x="0" y="70" fill="#000000" font-size="5px" font-weight="bold" font-family="'Helvetica Neue', Helvetica, Arial-Unicode, Arial, Sans-serif">from the Noun Project</text></svg>