<?xml version="1.0" encoding="utf-8"?>
<!-- Generator: Adobe Illustrator 24.1.2, SVG Export Plug-In . SVG Version: 6.00 Build 0)  -->
<svg version="1.1" id="Calque_1" xmlns="http://www.w3.org/2000/svg" xmlns:xlink="http://www.w3.org/1999/xlink" x="0px" y="0px"
	 viewBox="0 0 127 345" style="enable-background:new 0 0 127 345;" xml:space="preserve">
<style type="text/css">
	.st0{fill:none;}
</style>
<path class="st0" d="M78.57,53.37c3.89-6.51,5.63-14.27,4.89-21.82c-0.22-2.23-0.99-4.45-1.84-6.53c-0.84-2.08-2.17-4.03-4.08-5.23
	c-2.68-1.69-6.06-1.65-9.23-1.57c-3.47,0.1-6.94,0.19-10.41,0.29c-2.81,0.08-5.81,0.22-8.09,1.88c-2.17,1.58-3.24,4.25-3.91,6.85
	c-2.27,8.88-0.81,18.65,3.95,26.48C42.72,62.3,37.7,72.76,34.34,83.41c-2.55,8.08-4.87,16.75-5.98,25.15
	c-1.18,8.97-1.56,18.13-1.76,27.17c-0.09,4.26-0.1,8.53-0.03,12.8c0.31,17.32,2.38,34.69,7.31,51.33c0.5,1.68,1.65,3.82,1.43,5.58
	c-0.22,1.82-0.99,3.75-1.37,5.56c-0.93,4.38-1.77,8.78-2.51,13.2c-1.49,8.83-2.61,17.73-3.35,26.66c-0.12,1.43-0.23,2.86-0.33,4.29
	c-1.19,17.19-2.79,34.59,1.9,51.16c1.32,4.67,3.1,9.47,6.75,12.68c3.8,3.34,9.05,4.43,14.08,4.99c7.57,0.84,15.2,0.75,22.82,0.67
	c3.96-0.05,7.99-0.1,11.84-1.12c1.82-0.48,3.42-1.03,4.75-2.37c1.27-1.28,2.5-2.55,3.59-4.01c4.37-5.88,6.61-13.07,7.97-20.18
	c0.1-0.5,0.19-1,0.28-1.51c1.5-8.65,2.01-17.47,1.48-26.24c-0.27-4.38-0.79-8.75-1.59-13.07c-0.78-4.22-1.1-8.5-1.62-12.76
	c-1.07-8.85-2.43-17.66-4.07-26.42c-0.42-2.21-0.85-4.42-1.29-6.62c-0.38-1.88-1.33-4.18-1.36-6.07c-0.03-1.8,1.21-4.09,1.74-5.83
	c0.63-2.07,1.21-4.15,1.76-6.24c4.43-16.93,6.13-34.5,5.76-51.95c-0.19-9.01-0.79-18.01-1.78-26.97c-0.9-8.08-1.73-16.35-3.67-24.25
	c-2.75-11.23-7.74-21.92-14.63-31.21C81.26,56.18,80.07,54.75,78.57,53.37z"/>
</svg>
