<svg id="Calque_1" data-name="Calque 1" xmlns="http://www.w3.org/2000/svg" viewBox="0 0 19.23 75.92"><defs><style>.cls-1{fill:none;stroke:#fffdfd;stroke-miterlimit:10;stroke-width:0.25px;}</style></defs><path class="cls-1" d="M13,8.81a8.85,8.85,0,0,0,1.21-5.39,5.68,5.68,0,0,0-.45-1.61,2.69,2.69,0,0,0-1-1.29A3.4,3.4,0,0,0,10.63.13c-.86,0-1.72,0-2.57,0A4.08,4.08,0,0,0,5.88.52a3.33,3.33,0,0,0-1,1.84,8.59,8.59,0,0,0,1,6.53,21.84,21.84,0,0,0-3.83,7.34,36.8,36.8,0,0,0-1.48,6.2,62.8,62.8,0,0,0-.43,6.71c0,1.05,0,2.11,0,3.16A47.59,47.59,0,0,0,2,45a4,4,0,0,1,.35,1.38A13.69,13.69,0,0,1,2,47.72c-.23,1.08-.44,2.17-.62,3.26C1,53.16.7,55.36.52,57.56c0,.35-.06.71-.08,1.06-.3,4.24-.69,8.54.46,12.63a6.37,6.37,0,0,0,1.67,3.13,6.09,6.09,0,0,0,3.48,1.23,45.92,45.92,0,0,0,5.63.17,11.91,11.91,0,0,0,2.92-.28,2.36,2.36,0,0,0,1.17-.58,9.25,9.25,0,0,0,.89-1,12.11,12.11,0,0,0,2-5l.06-.37a27.5,27.5,0,0,0,.37-6.47,28.77,28.77,0,0,0-.39-3.23c-.2-1-.28-2.1-.4-3.15-.27-2.19-.6-4.36-1-6.52-.1-.55-.21-1.09-.32-1.64a10,10,0,0,1-.33-1.49A5.3,5.3,0,0,1,17,44.63c.15-.52.3-1,.43-1.55A46.52,46.52,0,0,0,18.9,30.26q-.07-3.35-.44-6.66a46.83,46.83,0,0,0-.91-6,21.6,21.6,0,0,0-3.61-7.7,6.76,6.76,0,0,0-1-1.1"/></svg>