<?xml version="1.0" encoding="utf-8"?>
<!-- Generator: Adobe Illustrator 21.1.0, SVG Export Plug-In . SVG Version: 6.00 Build 0)  -->
<svg version="1.1" id="Calque_1" xmlns="http://www.w3.org/2000/svg" xmlns:xlink="http://www.w3.org/1999/xlink" x="0px" y="0px"
	 width="86px" height="62.5px" viewBox="0 0 86 62.5" style="enable-background:new 0 0 86 62.5;" xml:space="preserve">
<style type="text/css">
	.st0{fill:#504C4C;}
	.st1{fill:#8CC9A4;}
	.st2{fill:#963562;}
	.st3{font-family:'ArialMT';}
	.st4{font-size:13.0611px;}
	.st5{fill:#FFFFFF;stroke:#963562;stroke-width:0.8139;stroke-linecap:round;stroke-linejoin:round;stroke-miterlimit:10;}
	.st6{fill:#FFFFFF;}
	.st7{font-size:14.7264px;}
	.st8{fill:none;stroke:#963562;stroke-width:0.8139;stroke-linecap:round;stroke-miterlimit:10;}
	.st9{fill:none;stroke:#963562;stroke-width:0.8139;stroke-linecap:round;stroke-linejoin:round;stroke-miterlimit:10;}
</style>
<path class="st0" d="M70.4,62.1L8.1,49.9c-4-0.8-6.7-4.7-5.9-8.7L8.4,9.3c0.7-4,4.6-6.7,8.7-5.9l62.4,12.1c4,0.8,6.7,4.7,5.9,8.7
	l-6.2,31.9C78.3,60.2,74.4,62.8,70.4,62.1z"/>
<path class="st1" d="M68.9,59.1L6.5,47c-4-0.7-6.6-4.7-5.9-8.7L6.9,6.4c0.8-4,4.7-6.7,8.7-5.9L78,12.6c4,0.8,6.7,4.7,5.9,8.7
	l-6.2,31.9C76.8,57.2,72.9,59.9,68.9,59.1z"/>
<text transform="matrix(0.9816 0.1908 -0.1908 0.9816 11.0885 41.6221)" class="st2 st3 st4">Newsletter</text>
<g>
	<path class="st5" d="M59.2,19.7c-4.1-3.7-8.3-7.5-12.3-11.2l-15.7,5.8c0.9,6.1,5.4,11.1,11.2,12.6C48.9,28.5,55.8,25.6,59.2,19.7z"
		/>
	<g>
		<path class="st2" d="M54.9,23.7l-17.6-3.4c-1-0.2-1.6-1.1-1.4-2.1l2.3-11.6c0.2-1,1.1-1.6,2.1-1.4l17.6,3.4c1,0.2,1.6,1.1,1.4,2.1
			L57,22.3C56.9,23.3,56,23.9,54.9,23.7z"/>
		<text transform="matrix(0.9816 0.1908 -0.1908 0.9816 39.2384 16.8501)" class="st6 st3 st7">@</text>
	</g>
	<polygon class="st6" points="31,14.2 28,30.1 43.2,24.6 	"/>
	<polygon class="st6" points="56.4,35.6 59.4,19.7 44.2,24.8 	"/>
	<polygon class="st6" points="28.2,30.2 56.1,35.7 43.7,25 	"/>
	<polygon class="st2" points="43.4,24.6 31.2,14.1 31.1,14.1 31,14.2 43.2,24.6 	"/>
	<polygon class="st2" points="44.2,24.8 59.4,19.7 59.4,19.6 59.4,19.6 44.1,24.7 	"/>
	<path class="st2" d="M44.2,24.8l-0.1-0.1l-0.2-0.2l0,0l0,0l0,0l0,0c0,0-0.1,0-0.1-0.1h-0.1h-0.1h-0.1l0,0l0,0l0,0l0,0.1l-0.2,0.1
		l-15.2,5.5v0.1l0.2,0.1l15.6-5.2l12.5,10.6l0.2,0.1v-0.1L44.2,24.8z"/>
	<line class="st8" x1="28.2" y1="30.2" x2="56.1" y2="35.7"/>
	<line class="st9" x1="31.2" y1="14.4" x2="28.2" y2="30.1"/>
	<line class="st9" x1="59.2" y1="19.8" x2="56.2" y2="35.5"/>
</g>
</svg>
