<?xml version="1.0" encoding="utf-8"?>
<!-- Generator: Adobe Illustrator 19.2.1, SVG Export Plug-In . SVG Version: 6.00 Build 0)  -->
<svg version="1.1" id="Calque_1" xmlns="http://www.w3.org/2000/svg" xmlns:xlink="http://www.w3.org/1999/xlink" x="0px" y="0px"
	 viewBox="0 0 58.1 58.1" style="enable-background:new 0 0 58.1 58.1;" xml:space="preserve">
<style type="text/css">
	.st0{fill:#5E833A;}
</style>
<path class="st0" d="M29.1,1.9c15,0,27.2,12.2,27.2,27.2S44.1,56.3,29.1,56.3S1.9,44.1,1.9,29.1S14.2,1.9,29.1,1.9 M29.1,0.8
	C13.5,0.8,0.8,13.5,0.8,29.1s12.7,28.3,28.3,28.3s28.3-12.7,28.3-28.3S44.8,0.8,29.1,0.8L29.1,0.8z"/>
<g>
	<g>
		<polygon id="XMLID_106_" class="st0" points="12.2,29 12.2,45.1 19.9,45.1 19.9,27.8 19.9,23.2 12.2,23.2 		"/>
		<circle id="XMLID_105_" class="st0" cx="16.1" cy="16.1" r="3.9"/>
		<path id="XMLID_104_" class="st0" d="M45,30c-0.6-4.1-2.4-6.8-8-6.8c-3.3,0-5.6,1.2-6.4,3h-0.1v-3h-6.1v4.2v17.8h6.4V34.3
			c0-2.9,0.6-5.7,4.1-5.7c3.4,0,3.8,3.3,3.8,5.8v10.7h6.6v-12l0,0C45.1,32,45.1,30.9,45,30z"/>
	</g>
</g>
</svg>
