<?xml version="1.0" encoding="utf-8"?>
<!-- Generator: Adobe Illustrator 19.2.1, SVG Export Plug-In . SVG Version: 6.00 Build 0)  -->
<svg version="1.1" id="Calque_1" xmlns="http://www.w3.org/2000/svg" xmlns:xlink="http://www.w3.org/1999/xlink" x="0px" y="0px"
	 viewBox="0 0 58.1 58.1" style="enable-background:new 0 0 58.1 58.1;" xml:space="preserve">
<style type="text/css">
	.st0{fill:#5E833A;}
</style>
<path class="st0" d="M29.1,1.9c15,0,27.2,12.2,27.2,27.2S44.1,56.3,29.1,56.3S1.9,44.1,1.9,29.1S14.2,1.9,29.1,1.9 M29.1,0.8
	C13.5,0.8,0.8,13.5,0.8,29.1s12.7,28.3,28.3,28.3s28.3-12.7,28.3-28.3S44.8,0.8,29.1,0.8L29.1,0.8z"/>
<path class="st0" d="M28.4,23.4c-0.6-2.8,0.6-5.6,2.8-7.1c2.7-1.9,6.4-1.6,8.9,0.9c0.4-0.1,1-0.1,1.6-0.3c1.2-0.3,2.1-0.9,2.8-1.3
	c-0.1,0.4-0.2,1.1-0.7,1.8c-0.7,1.2-1.8,1.8-2.2,2c0.3,0,0.9,0,1.4-0.1c1.3-0.3,2.1-1.1,2.3-0.9c0.1,0.1-0.6,1-0.7,1.3
	c-0.6,0.7-1.3,1.6-2.6,2.3c0.1,1.7,0.1,7.1-3.7,12.3c-4.2,5.9-10.3,7.3-11.8,7.7C19,43.4,13.1,39.9,12,39.1c1.1,0.1,2.7,0.2,4.6-0.1
	c2.7-0.6,4.6-1.8,5.6-2.6c-0.7,0-1.9-0.2-3.2-0.9c-2.1-1.2-2.9-3.3-3.1-3.9c0.3,0.1,0.9,0.2,1.6,0.2c0.7,0,1.2-0.2,1.4-0.3
	c-0.7-0.1-2.1-0.6-3.4-1.9c-1.9-1.9-2-4.2-2-4.8c0.4,0.1,0.9,0.3,1.3,0.4c0.6,0.2,1.1,0.2,1.7,0.3c-0.6-0.3-1.9-1.4-2.6-3.6
	c-0.9-2.8,0.3-5.2,0.6-5.6c0.9,1.1,2.2,2.4,4.1,3.8c0.9,0.6,2.7,1.8,5.3,2.6C25.7,23.1,27.2,23.3,28.4,23.4z"/>
</svg>
